<svg viewBox="0 0 48 49" fill="none" xmlns="http://www.w3.org/2000/svg">
  <path d="M43.2012 44.1387H38.6692C30.5497 44.1387 21.6012 39.2711 21.6012 24.3207H26.1331C35.553 24.3207 43.2012 33.2011 43.2012 44.1387Z" fill="#FFB1D6"/>
  <path d="M19.1608 24.3203H7.23762C7.21641 24.3203 7.19922 24.3375 7.19922 24.3587V37.5378C7.19922 40.8515 9.88551 43.5378 13.1992 43.5378C16.5129 43.5378 19.1992 40.8515 19.1992 37.5378V24.3587C19.1992 24.3375 19.182 24.3203 19.1608 24.3203Z" fill="#FF60AC"/>
  <path d="M19.1992 21.5819V9.60156C19.1992 6.28785 16.5129 3.60156 13.1992 3.60156C9.88551 3.60156 7.19922 6.28786 7.19922 9.60156V21.5819C7.19922 21.6018 7.21533 21.6179 7.23522 21.6179H19.1632C19.1831 21.6179 19.1992 21.6018 19.1992 21.5819Z" fill="#FFA463"/>
  <path d="M21.5996 19.2016C21.5996 10.5859 28.584 3.60156 37.1996 3.60156V6.01792C37.1996 14.6336 30.2153 21.6179 21.5996 21.6179V19.2016Z" fill="#77DA67"/>
</svg>
