<?xml version="1.0" standalone="no"?>
<!DOCTYPE svg PUBLIC "-//W3C//DTD SVG 20010904//EN"
 "http://www.w3.org/TR/2001/REC-SVG-20010904/DTD/svg10.dtd">
<svg version="1.0" xmlns="http://www.w3.org/2000/svg"
 width="1000.000000pt" height="1000.000000pt" viewBox="0 0 1000.000000 1000.000000"
 preserveAspectRatio="xMidYMid meet">
<metadata>
Created by potrace 1.14, written by Peter Selinger 2001-2017
</metadata>
<g transform="translate(0.000000,1000.000000) scale(0.100000,-0.100000)"
fill="#000000" stroke="none">
<path d="M4898 8986 c-1 -2 -46 -7 -98 -10 -52 -4 -108 -9 -125 -11 -16 -2
-55 -6 -85 -10 -30 -3 -62 -8 -70 -10 -8 -2 -33 -6 -55 -10 -399 -58 -893
-232 -1285 -453 -172 -96 -505 -322 -550 -371 -3 -3 -30 -26 -60 -51 -165
-134 -426 -399 -539 -548 -20 -26 -42 -53 -49 -60 -6 -8 -26 -35 -44 -60 -18
-26 -40 -56 -50 -66 -10 -11 -18 -23 -18 -27 0 -4 -6 -14 -13 -21 -55 -58
-337 -551 -337 -591 0 -8 -6 -20 -14 -26 -8 -7 -17 -24 -21 -39 -3 -14 -16
-47 -27 -72 -47 -102 -155 -415 -173 -500 -2 -8 -10 -42 -18 -75 -9 -33 -18
-71 -21 -85 -2 -14 -10 -50 -16 -80 -23 -112 -37 -197 -46 -275 -3 -33 -8 -68
-10 -78 -19 -103 -26 -589 -11 -767 8 -86 30 -259 43 -335 3 -16 7 -39 9 -50
1 -11 5 -31 9 -45 3 -14 8 -37 11 -52 11 -58 17 -85 36 -163 23 -90 24 -96 75
-255 57 -179 105 -298 205 -507 145 -301 393 -673 609 -908 80 -88 273 -279
345 -341 142 -124 413 -325 510 -380 11 -6 63 -37 115 -68 330 -198 837 -391
1180 -451 19 -3 54 -10 78 -16 23 -5 59 -12 80 -15 20 -3 62 -9 92 -14 30 -6
88 -12 128 -16 40 -3 83 -8 95 -11 38 -9 548 -11 632 -2 249 25 291 30 480 65
17 3 59 12 95 20 36 9 73 17 82 19 141 30 424 125 633 213 79 33 321 156 384
193 34 22 65 39 67 39 12 0 273 178 375 256 159 122 229 184 404 359 194 194
378 416 485 585 19 30 37 57 40 60 3 3 28 43 56 90 152 252 252 465 359 762
l14 37 -56 37 c-146 97 -347 185 -520 229 -90 22 -113 27 -190 39 -194 31
-404 22 -654 -29 -30 -6 -155 -42 -179 -52 -8 -4 -18 -7 -22 -8 -5 -2 -10 -4
-13 -5 -3 -1 -8 -3 -12 -4 -42 -8 -253 -119 -348 -182 -254 -169 -450 -395
-600 -694 -56 -110 -211 -357 -272 -430 -76 -92 -96 -110 -137 -120 -22 -6
-51 -15 -63 -20 -26 -11 -251 -59 -308 -66 -22 -3 -50 -7 -61 -9 -43 -9 -212
-18 -334 -19 -169 0 -347 15 -460 39 -14 3 -38 8 -55 11 -16 3 -57 12 -90 21
-33 8 -69 17 -81 19 -12 2 -81 25 -155 50 -766 262 -1383 886 -1622 1641 -63
199 -78 262 -103 432 -4 25 -8 55 -10 66 -23 124 -22 462 0 630 3 17 7 50 10
75 4 37 36 193 50 250 93 368 297 759 548 1051 52 61 210 223 257 263 59 50
211 154 285 195 62 35 223 108 251 115 6 2 19 6 30 10 59 22 72 27 90 30 11 2
38 9 60 15 22 5 54 13 70 15 17 3 41 8 55 11 97 21 397 28 510 13 30 -5 69
-10 87 -12 195 -28 447 -127 666 -262 193 -120 398 -198 632 -240 76 -14 148
-18 300 -18 177 1 215 4 328 28 241 50 444 134 637 264 164 109 293 230 413
384 63 82 157 228 157 245 0 19 -275 274 -379 353 -18 14 -38 30 -44 35 -7 6
-28 22 -47 35 -19 13 -37 27 -40 30 -10 13 -168 119 -275 185 -109 68 -427
235 -475 250 -14 4 -47 18 -75 30 -194 88 -559 198 -765 231 -19 3 -53 9 -75
14 -22 5 -62 12 -90 15 -27 3 -59 8 -70 10 -11 2 -49 7 -85 10 -36 4 -81 9
-100 12 -39 5 -556 13 -562 9z"/>
</g>
</svg>
