<?xml version="1.0" encoding="utf-8"?><svg xmlns="http://www.w3.org/2000/svg" xmlns:xlink="http://www.w3.org/1999/xlink"><symbol viewBox="0 0 28 29" fill="none" id="add-circle-outline-rounded" xmlns="http://www.w3.org/2000/svg"><path d="M14 20.219c.33 0 .608-.112.832-.336.223-.223.335-.5.335-.83v-3.5h3.529c.33 0 .603-.113.817-.337.214-.223.32-.5.32-.83 0-.331-.111-.608-.335-.832a1.128 1.128 0 0 0-.831-.335h-3.5v-3.53c0-.33-.112-.602-.335-.816a1.158 1.158 0 0 0-.832-.32c-.33 0-.607.11-.83.334a1.13 1.13 0 0 0-.336.832v3.5h-3.53c-.33 0-.602.111-.816.335-.214.224-.321.5-.321.831 0 .331.111.608.335.831.224.224.5.336.832.336h3.5v3.53c0 .33.111.602.335.816.224.214.5.32.831.32Zm0 5.833c-1.614 0-3.13-.306-4.55-.92a11.775 11.775 0 0 1-3.704-2.492 11.773 11.773 0 0 1-2.493-3.705 11.354 11.354 0 0 1-.92-4.55c0-1.614.307-3.13.92-4.55a11.773 11.773 0 0 1 2.493-3.704A11.79 11.79 0 0 1 9.45 3.637 11.367 11.367 0 0 1 14 2.719c1.614 0 3.13.306 4.55.918a11.79 11.79 0 0 1 3.704 2.494 11.773 11.773 0 0 1 2.493 3.704c.613 1.42.92 2.936.92 4.55 0 1.614-.307 3.131-.92 4.55a11.773 11.773 0 0 1-2.493 3.705 11.775 11.775 0 0 1-3.704 2.493c-1.42.613-2.936.92-4.55.92Zm0-2.333c2.586 0 4.789-.91 6.607-2.727 1.818-1.818 2.727-4.02 2.727-6.607 0-2.586-.91-4.788-2.727-6.606C18.789 5.96 16.587 5.052 14 5.052c-2.586 0-4.788.909-6.606 2.727-1.818 1.818-2.727 4.02-2.727 6.606 0 2.586.91 4.789 2.728 6.607C9.211 22.81 11.415 23.72 14 23.72Z" fill="currentColor"/></symbol><symbol viewBox="0 0 29 28" fill="none" id="add-circle-rounded" xmlns="http://www.w3.org/2000/svg"><path d="M14.5 19.834c.33 0 .608-.112.832-.336.223-.223.335-.5.335-.83v-3.5h3.529c.33 0 .603-.113.816-.337.214-.223.321-.5.321-.83 0-.33-.112-.608-.336-.832a1.128 1.128 0 0 0-.83-.335h-3.5v-3.53c0-.33-.112-.602-.335-.816a1.158 1.158 0 0 0-.832-.32c-.33 0-.607.11-.83.334a1.13 1.13 0 0 0-.337.832v3.5H9.804c-.33 0-.603.112-.816.335-.214.224-.321.501-.321.832 0 .33.111.607.335.83.223.224.5.336.831.336h3.5v3.53c0 .33.112.602.336.816.224.214.5.321.831.321Zm0 5.833c-1.614 0-3.13-.306-4.55-.919a11.773 11.773 0 0 1-3.704-2.493 11.774 11.774 0 0 1-2.493-3.704 11.355 11.355 0 0 1-.92-4.55c0-1.614.307-3.13.92-4.55a11.774 11.774 0 0 1 2.493-3.705A11.79 11.79 0 0 1 9.95 3.252a11.367 11.367 0 0 1 4.55-.918c1.614 0 3.13.306 4.55.918a11.79 11.79 0 0 1 3.704 2.494 11.773 11.773 0 0 1 2.493 3.705c.613 1.42.92 2.936.92 4.55 0 1.614-.307 3.13-.92 4.55a11.773 11.773 0 0 1-2.493 3.704 11.774 11.774 0 0 1-3.704 2.493c-1.42.613-2.936.92-4.55.92Z" fill="currentColor"/></symbol><symbol fill="none" viewBox="0 0 20 20" id="arrow-square-out" xmlns="http://www.w3.org/2000/svg"><path d="M17.5 8.125a.625.625 0 1 1-1.25 0v-3.49l-5.182 5.182a.625.625 0 0 1-.884-.884l5.182-5.183h-3.491a.625.625 0 1 1 0-1.25h5a.625.625 0 0 1 .625.625v5ZM14.375 10a.624.624 0 0 0-.625.625v5.625h-10v-10h5.625a.625.625 0 0 0 0-1.25H3.75A1.25 1.25 0 0 0 2.5 6.25v10a1.25 1.25 0 0 0 1.25 1.25h10A1.25 1.25 0 0 0 15 16.25v-5.625a.624.624 0 0 0-.625-.625Z" fill="currentColor"/></symbol><symbol fill="none" viewBox="0 0 24 24" id="bank" xmlns="http://www.w3.org/2000/svg"><path d="M2.25 9.75H4.5v6H3a.75.75 0 1 0 0 1.5h18a.75.75 0 1 0 0-1.5h-1.5v-6h2.25a.75.75 0 0 0 .393-1.389l-9.75-6a.75.75 0 0 0-.786 0l-9.75 6A.75.75 0 0 0 2.25 9.75Zm3.75 0h3v6H6v-6Zm7.5 0v6h-3v-6h3Zm4.5 6h-3v-6h3v6ZM12 3.88l7.1 4.37H4.9L12 3.88ZM23.25 19.5a.75.75 0 0 1-.75.75h-21a.75.75 0 1 1 0-1.5h21a.75.75 0 0 1 .75.75Z" fill="currentColor"/></symbol><symbol fill="none" viewBox="0 0 24 24" id="bell" xmlns="http://www.w3.org/2000/svg"><path d="M5.266 9.75A6.74 6.74 0 0 1 12.044 3c3.713.028 6.685 3.113 6.685 6.834v.666c0 3.356.703 5.306 1.322 6.375A.75.75 0 0 1 19.404 18H4.59a.75.75 0 0 1-.647-1.125c.619-1.069 1.322-3.019 1.322-6.375v-.75ZM9 18v.75a3 3 0 0 0 6 0V18" stroke="currentColor" stroke-width="1.6" stroke-linecap="round" stroke-linejoin="round"/></symbol><symbol fill="none" viewBox="0 0 80 80" id="bell-ringing" xmlns="http://www.w3.org/2000/svg"><path d="M70.004 22.22a2.5 2.5 0 0 1-3.37-1.069A29.416 29.416 0 0 0 56.18 9.617a2.501 2.501 0 0 1 2.668-4.231A34.832 34.832 0 0 1 71.072 18.85a2.5 2.5 0 0 1-1.068 3.369Zm-58.841.281a2.5 2.5 0 0 0 2.219-1.35A29.415 29.415 0 0 1 23.838 9.617a2.502 2.502 0 0 0-2.669-4.231A34.83 34.83 0 0 0 8.944 18.85a2.5 2.5 0 0 0 2.219 3.65Zm58.156 32.481a5 5 0 0 1-4.315 7.52h-12.75a12.5 12.5 0 0 1-24.5 0h-12.75a5 5 0 0 1-4.31-7.52c2.816-4.859 4.31-11.768 4.31-19.98a25 25 0 0 1 50 0c0 8.209 1.493 15.118 4.315 19.98Zm-22.247 7.52H32.935a7.5 7.5 0 0 0 14.137 0Zm17.932-5c-3.325-5.71-5-13.279-5-22.5a20 20 0 1 0-40 0c0 9.224-1.682 16.793-5 22.5h50Z" fill="currentColor"/></symbol><symbol fill="none" viewBox="0 0 24 24" id="bubble-chat" xmlns="http://www.w3.org/2000/svg"><path d="M20.25 4.5H3.75A1.5 1.5 0 0 0 2.25 6v15a1.486 1.486 0 0 0 .866 1.36 1.49 1.49 0 0 0 1.607-.224L7.734 19.5H20.25a1.5 1.5 0 0 0 1.5-1.5V6a1.5 1.5 0 0 0-1.5-1.5Zm0 13.5H7.734a1.5 1.5 0 0 0-.965.352l-.011.01L3.75 21V6h16.5v12Zm-12-7.5A.75.75 0 0 1 9 9.75h6a.75.75 0 0 1 0 1.5H9a.75.75 0 0 1-.75-.75Zm0 3a.75.75 0 0 1 .75-.75h6a.75.75 0 1 1 0 1.5H9a.75.75 0 0 1-.75-.75Z" fill="currentColor"/></symbol><symbol fill="none" viewBox="0 0 24 24" id="buildings" xmlns="http://www.w3.org/2000/svg"><path d="M22.5 19.501H21v-10.5a1.5 1.5 0 0 0-1.5-1.5h-6v-4.5a1.5 1.5 0 0 0-2.332-1.249l-7.5 4.999A1.5 1.5 0 0 0 3 8.001v11.5H1.5a.75.75 0 1 0 0 1.5h21a.75.75 0 1 0 0-1.5Zm-3-10.5v10.5h-6v-10.5h6Zm-15-1 7.5-5v16.5H4.5v-11.5Zm6 2.5v1.5a.75.75 0 1 1-1.5 0v-1.5a.75.75 0 0 1 1.5 0Zm-3 0v1.5a.75.75 0 1 1-1.5 0v-1.5a.75.75 0 0 1 1.5 0Zm0 5.25v1.5a.75.75 0 1 1-1.5 0v-1.5a.75.75 0 0 1 1.5 0Zm3 0v1.5a.75.75 0 1 1-1.5 0v-1.5a.75.75 0 0 1 1.5 0Z" fill="currentColor"/></symbol><symbol fill="none" viewBox="0 0 24 24" id="calculator" xmlns="http://www.w3.org/2000/svg"><path d="M7.5 11.25h9a.75.75 0 0 0 .75-.75V6a.75.75 0 0 0-.75-.75h-9a.75.75 0 0 0-.75.75v4.5a.75.75 0 0 0 .75.75Zm.75-4.5h7.5v3h-7.5v-3Zm10.5-4.5H5.25a1.5 1.5 0 0 0-1.5 1.5v16.5a1.5 1.5 0 0 0 1.5 1.5h13.5a1.5 1.5 0 0 0 1.5-1.5V3.75a1.5 1.5 0 0 0-1.5-1.5Zm0 18H5.25V3.75h13.5v16.5Zm-9.375-6.375a1.125 1.125 0 1 1-2.25 0 1.125 1.125 0 0 1 2.25 0Zm3.75 0a1.125 1.125 0 1 1-2.25 0 1.125 1.125 0 0 1 2.25 0Zm3.75 0a1.125 1.125 0 1 1-2.25 0 1.125 1.125 0 0 1 2.25 0Zm-7.5 3.75a1.125 1.125 0 1 1-2.25 0 1.125 1.125 0 0 1 2.25 0Zm3.75 0a1.125 1.125 0 1 1-2.25 0 1.125 1.125 0 0 1 2.25 0Zm3.75 0a1.125 1.125 0 1 1-2.25 0 1.125 1.125 0 0 1 2.25 0Z" fill="currentColor"/></symbol><symbol viewBox="0 0 21 20" fill="none" id="camera" xmlns="http://www.w3.org/2000/svg"><path d="M16.75 16.25H4.25A1.25 1.25 0 0 1 3 15V6.25A1.25 1.25 0 0 1 4.25 5h2.5L8 3.125h5L14.25 5h2.5A1.25 1.25 0 0 1 18 6.25V15a1.25 1.25 0 0 1-1.25 1.25Z" stroke="currentColor" stroke-linecap="round" stroke-linejoin="round"/><path d="M10.5 13.125a2.813 2.813 0 1 0 0-5.625 2.813 2.813 0 0 0 0 5.625Z" stroke="currentColor" stroke-linecap="round" stroke-linejoin="round"/></symbol><symbol fill="none" viewBox="0 0 18 18" id="cancel-rounded" xmlns="http://www.w3.org/2000/svg"><path d="M5.775 12.225a.711.711 0 0 0 .525.206.711.711 0 0 0 .525-.206L9 10.05l2.194 2.194a.67.67 0 0 0 .516.197.728.728 0 0 0 .515-.216.711.711 0 0 0 .206-.525.711.711 0 0 0-.206-.525L10.05 9l2.194-2.194a.67.67 0 0 0 .197-.516.728.728 0 0 0-.216-.515.711.711 0 0 0-.525-.206.711.711 0 0 0-.525.206L9 7.95 6.806 5.756a.667.667 0 0 0-.515-.196.738.738 0 0 0-.516.215.711.711 0 0 0-.206.525c0 .213.069.388.206.525L7.95 9l-2.194 2.194a.668.668 0 0 0-.196.516.733.733 0 0 0 .215.515ZM9 16.5a7.3 7.3 0 0 1-2.925-.591 7.585 7.585 0 0 1-2.381-1.603 7.569 7.569 0 0 1-1.603-2.381A7.316 7.316 0 0 1 1.5 9a7.3 7.3 0 0 1 .591-2.925 7.586 7.586 0 0 1 1.603-2.381A7.569 7.569 0 0 1 6.075 2.09 7.316 7.316 0 0 1 9 1.5a7.3 7.3 0 0 1 2.925.591 7.586 7.586 0 0 1 2.381 1.603 7.579 7.579 0 0 1 1.604 2.381A7.29 7.29 0 0 1 16.5 9a7.3 7.3 0 0 1-.591 2.925 7.586 7.586 0 0 1-1.603 2.381 7.58 7.58 0 0 1-2.381 1.604A7.29 7.29 0 0 1 9 16.5Z" fill="currentColor"/></symbol><symbol viewBox="0 0 24 24" fill="none" id="caret-left" xmlns="http://www.w3.org/2000/svg"><path d="M15 19.5 7.5 12 15 4.5" stroke="currentColor" stroke-width="1.6" stroke-linecap="round" stroke-linejoin="round"/></symbol><symbol viewBox="0 0 20 20" fill="none" id="caret-right" xmlns="http://www.w3.org/2000/svg"><path d="M7.5 3.75 13.75 10 7.5 16.25" stroke="#5F5F5F" stroke-width="1.333" stroke-linecap="round" stroke-linejoin="round"/></symbol><symbol fill="none" viewBox="0 0 80 80" id="certificate" xmlns="http://www.w3.org/2000/svg"><path d="M77.5 40a17.5 17.5 0 1 0-30 12.232V70a2.5 2.5 0 0 0 3.619 2.237L60 67.794l8.881 4.444a2.5 2.5 0 0 0 3.619-2.237V52.23a17.44 17.44 0 0 0 5-12.23ZM60 27.5a12.5 12.5 0 1 1 0 25 12.5 12.5 0 0 1 0-25Zm1.119 35.263a2.5 2.5 0 0 0-2.238 0L52.5 65.957V55.81a17.48 17.48 0 0 0 15 0v10.147l-6.381-3.194ZM37.5 42.501A2.5 2.5 0 0 1 35 45H22.5a2.5 2.5 0 0 1 0-5H35a2.5 2.5 0 0 1 2.5 2.5Zm0-10A2.5 2.5 0 0 1 35 35H22.5a2.5 2.5 0 0 1 0-5H35a2.5 2.5 0 0 1 2.5 2.5Z" fill="currentColor"/><path d="M57.268 18.268A2.5 2.5 0 0 1 53 16.5V10H13v55h26.5a2.5 2.5 0 0 1 0 5H13a5 5 0 0 1-5-5V10a5 5 0 0 1 5-5h40a5 5 0 0 1 5 5v6.5a2.5 2.5 0 0 1-.732 1.768Z" fill="currentColor"/></symbol><symbol fill="none" viewBox="0 0 24 24" id="chat-circle" xmlns="http://www.w3.org/2000/svg"><path d="M12 2.25a9.75 9.75 0 0 0-8.608 14.332l-1.064 3.193a1.5 1.5 0 0 0 1.897 1.897l3.193-1.064A9.75 9.75 0 1 0 12 2.25Zm3 12H9a.75.75 0 1 1 0-1.5h6a.75.75 0 0 1 0 1.5Zm0-3H9a.75.75 0 1 1 0-1.5h6a.75.75 0 0 1 0 1.5Z" fill="currentColor"/></symbol><symbol fill="none" viewBox="0 0 24 24" id="chat-text" xmlns="http://www.w3.org/2000/svg"><path d="M20.25 4.5H3.75A1.5 1.5 0 0 0 2.25 6v15a1.486 1.486 0 0 0 .866 1.36 1.49 1.49 0 0 0 1.607-.224L7.734 19.5H20.25a1.5 1.5 0 0 0 1.5-1.5V6a1.5 1.5 0 0 0-1.5-1.5Zm0 13.5H7.734a1.5 1.5 0 0 0-.965.352l-.011.01L3.75 21V6h16.5v12Zm-12-7.5A.75.75 0 0 1 9 9.75h6a.75.75 0 0 1 0 1.5H9a.75.75 0 0 1-.75-.75Zm0 3a.75.75 0 0 1 .75-.75h6a.75.75 0 1 1 0 1.5H9a.75.75 0 0 1-.75-.75Z" fill="currentColor"/></symbol><symbol viewBox="0 0 24 24" id="check" xmlns="http://www.w3.org/2000/svg"><path fill="currentColor" d="m10 16.4-4-4L7.4 11l2.6 2.6L16.6 7 18 8.4l-8 8Z"/></symbol><symbol viewBox="0 0 15 14" fill="none" id="check-circle-rounded" xmlns="http://www.w3.org/2000/svg"><path d="M6.683 8.05 5.415 6.781a.535.535 0 0 0-.394-.16.56.56 0 0 0-.409.175.553.553 0 0 0-.16.408c0 .165.054.302.16.409l1.663 1.662c.107.107.243.16.408.16a.553.553 0 0 0 .409-.16l3.31-3.31a.535.535 0 0 0 .16-.394.56.56 0 0 0-.175-.408.553.553 0 0 0-.408-.16.553.553 0 0 0-.408.16L6.683 8.05Zm.817 4.783a5.678 5.678 0 0 1-2.275-.46 5.888 5.888 0 0 1-1.852-1.246 5.887 5.887 0 0 1-1.247-1.852A5.677 5.677 0 0 1 1.666 7c0-.807.154-1.565.46-2.275a5.887 5.887 0 0 1 1.247-1.852 5.895 5.895 0 0 1 1.852-1.247 5.683 5.683 0 0 1 2.275-.46c.807 0 1.565.154 2.275.46.71.306 1.327.722 1.852 1.247.525.525.94 1.142 1.247 1.852.306.71.46 1.468.46 2.275 0 .807-.154 1.565-.46 2.275a5.888 5.888 0 0 1-1.247 1.852 5.888 5.888 0 0 1-1.852 1.247c-.71.306-1.468.46-2.275.46Z" fill="currentColor"/></symbol><symbol viewBox="0 0 52 52" fill="none" id="check-success" xmlns="http://www.w3.org/2000/svg"><path d="M26 49.292a23.292 23.292 0 0 1 0-46.584c3.63-.012 7.21.843 10.443 2.492a1.628 1.628 0 0 1-1.473 2.903A19.5 19.5 0 0 0 26 5.937 20.041 20.041 0 1 0 46.042 26c.01-.18.01-.361 0-.542a1.632 1.632 0 0 1 3.25-.303V26A23.313 23.313 0 0 1 26 49.292Z" fill="currentColor"/><path d="M25.61 33.388a1.515 1.515 0 0 1-1.127-.476l-10.465-10.27a1.625 1.625 0 0 1 0-2.297 1.669 1.669 0 0 1 2.319 0l9.295 9.165L46.54 8.948a1.668 1.668 0 0 1 2.318 0 1.625 1.625 0 0 1 0 2.297L26.802 32.912a1.603 1.603 0 0 1-1.192.476Z" fill="currentColor"/></symbol><symbol fill="none" viewBox="0 0 80 80" id="circles" xmlns="http://www.w3.org/2000/svg"><path d="M53.75 23.75A13.75 13.75 0 1 0 40 37.5a13.766 13.766 0 0 0 13.75-13.75ZM40 32.5A8.75 8.75 0 1 1 40 15a8.75 8.75 0 0 1 0 17.5ZM58.75 40A13.75 13.75 0 1 0 72.5 53.75 13.765 13.765 0 0 0 58.75 40Zm0 22.5a8.75 8.75 0 1 1 0-17.5 8.75 8.75 0 0 1 0 17.5ZM21.25 40A13.75 13.75 0 1 0 35 53.75 13.765 13.765 0 0 0 21.25 40Zm0 22.5a8.75 8.75 0 1 1 0-17.5 8.75 8.75 0 0 1 0 17.5Z" fill="currentColor"/></symbol><symbol viewBox="0 0 24 24" fill="none" id="clipboard" xmlns="http://www.w3.org/2000/svg"><path d="M18.75 3h-3.4a4.492 4.492 0 0 0-6.7 0h-3.4a1.5 1.5 0 0 0-1.5 1.5v15.75a1.5 1.5 0 0 0 1.5 1.5h13.5a1.5 1.5 0 0 0 1.5-1.5V4.5a1.5 1.5 0 0 0-1.5-1.5ZM12 3a3 3 0 0 1 3 3H9a3 3 0 0 1 3-3Zm6.75 17.25H5.25V4.5h2.508c-.17.482-.258.989-.258 1.5v.75a.75.75 0 0 0 .75.75h7.5a.75.75 0 0 0 .75-.75V6c0-.511-.087-1.018-.258-1.5h2.508v15.75Z" fill="currentColor"/></symbol><symbol fill="none" viewBox="0 0 24 24" id="codepen" xmlns="http://www.w3.org/2000/svg"><path d="m22.105 8.347-9.75-5.25a.75.75 0 0 0-.71 0l-9.75 5.25a.75.75 0 0 0-.395.657v6a.75.75 0 0 0 .395.66l9.75 5.25a.75.75 0 0 0 .71 0l9.75-5.25a.75.75 0 0 0 .395-.66v-6a.75.75 0 0 0-.395-.657ZM21 13.748l-3.24-1.744L21 10.259v3.49Zm-4.822-2.597L12.75 9.305V5.01l7.418 3.995-3.99 2.147ZM12 13.401l-2.597-1.397L12 10.606l2.597 1.398L12 13.4Zm-.75-8.392v4.296l-3.428 1.846-3.99-2.147 7.418-3.995ZM3 10.259l3.24 1.745L3 13.748v-3.49Zm4.822 2.597 3.428 1.846v4.296l-7.418-3.994 3.99-2.148Zm4.928 6.142v-4.296l3.428-1.846 3.99 2.148-7.418 3.994Z" fill="currentColor"/></symbol><symbol viewBox="0 0 24 24" fill="none" id="coins" xmlns="http://www.w3.org/2000/svg"><path d="M17.25 8.397v-.522c0-2.351-3.547-4.125-8.25-4.125C4.297 3.75.75 5.524.75 7.875v3.75c0 1.958 2.46 3.515 6 3.98v.52c0 2.351 3.547 4.125 8.25 4.125 4.703 0 8.25-1.774 8.25-4.125v-3.75c0-1.94-2.383-3.499-6-3.978Zm4.5 3.978C21.75 13.615 18.863 15 15 15c-.35 0-.697-.012-1.039-.035 2.022-.737 3.289-1.934 3.289-3.34V9.913c2.8.417 4.5 1.55 4.5 2.462Zm-15 1.71v-2.23A17.22 17.22 0 0 0 9 12a17.22 17.22 0 0 0 2.25-.144v2.23c-.745.11-1.497.165-2.25.164-.753 0-1.505-.054-2.25-.164Zm9-3.78v1.32c0 .787-1.163 1.631-3 2.144v-2.19c1.21-.294 2.235-.731 3-1.273ZM9 5.25c3.863 0 6.75 1.386 6.75 2.625 0 1.24-2.887 2.625-6.75 2.625S2.25 9.114 2.25 7.875C2.25 6.635 5.137 5.25 9 5.25Zm-6.75 6.375v-1.32c.765.543 1.79.98 3 1.273v2.191c-1.837-.513-3-1.357-3-2.144Zm6 4.5v-.39a18.074 18.074 0 0 0 1.818-.017c.387.138.782.256 1.182.352v2.2c-1.837-.514-3-1.358-3-2.145Zm4.5 2.46V16.35a17.22 17.22 0 0 0 4.5.006v2.23a15.507 15.507 0 0 1-4.5 0Zm6-.316v-2.19c1.21-.294 2.235-.731 3-1.273v1.319c0 .787-1.163 1.631-3 2.144Z" fill="currentColor"/></symbol><symbol viewBox="0 0 24 24" fill="none" id="communication" xmlns="http://www.w3.org/2000/svg"><path d="M21.682 18.713A6.667 6.667 0 0 0 23 14.73c0-2.307-1.196-4.448-3.214-5.784-.186-2.055-1.145-3.96-2.75-5.428C15.264 1.894 12.91 1 10.41 1c-2.5 0-4.853.894-6.626 2.518C1.989 5.16 1 7.35 1 9.686c0 1.795.579 3.497 1.68 4.954l-1.617 3.999a.86.86 0 0 0 1.143 1.108l4.61-2.032a9.897 9.897 0 0 0 1.786.496 7.4 7.4 0 0 0 2.6 2.532 8.134 8.134 0 0 0 4.043 1.096c.021.001.042.003.064.003.993 0 1.955-.172 2.866-.51l3.619 1.595a.859.859 0 0 0 1.143-1.108l-1.255-3.105Zm-1.78.182.649 1.606-2.013-.888a.86.86 0 0 0-.684-.004 6.444 6.444 0 0 1-2.51.514l-.035-.002c-1.694 0-3.294-.662-4.412-1.763a10.022 10.022 0 0 0 4.045-1.058.86.86 0 0 0-.778-1.533 8.322 8.322 0 0 1-3.754.885 8.286 8.286 0 0 1-3.27-.66.86.86 0 0 0-.685.004L3.45 17.32l1.012-2.504a.86.86 0 0 0-.142-.88c-1.047-1.227-1.6-2.698-1.6-4.251 0-3.842 3.45-6.967 7.691-6.967s7.692 3.125 7.692 6.967c0 1.24-.365 2.458-1.055 3.522a.86.86 0 1 0 1.441.935 8.243 8.243 0 0 0 1.211-3.068c1.007.986 1.582 2.284 1.582 3.655 0 1.2-.428 2.336-1.237 3.285a.86.86 0 0 0-.143.88Zm-8.676-4.79a.86.86 0 1 1-1.718 0 .86.86 0 0 1 1.719 0Zm2.406-6.438a3.22 3.22 0 0 1-1.957 3.002.68.68 0 0 0-.406.631v.055a.86.86 0 1 1-1.718 0V11.3c0-.968.568-1.836 1.449-2.212a1.503 1.503 0 0 0-.59-2.889c-.83 0-1.504.675-1.504 1.504a.86.86 0 1 1-1.719 0A3.226 3.226 0 0 1 10.41 4.48a3.226 3.226 0 0 1 3.222 3.187Z" fill="currentColor"/></symbol><symbol viewBox="0 0 25 25" fill="none" id="conner-close" xmlns="http://www.w3.org/2000/svg"><path d="M.333.385h24v24h-24z"/><path d="M12.334.385c-6.629 0-12 5.373-12 12s5.371 12 12 12c6.628 0 12-5.373 12-12s-5.372-12-12-12Zm5.56 15.44a1.5 1.5 0 1 1-2.121 2.12l-3.44-3.439-3.439 3.44a1.495 1.495 0 0 1-2.121 0 1.499 1.499 0 0 1 0-2.121l3.44-3.44-3.44-3.44a1.5 1.5 0 1 1 2.121-2.12l3.44 3.44 3.439-3.44a1.5 1.5 0 0 1 2.121 2.12l-3.44 3.44 3.44 3.44Z" fill="currentColor"/></symbol><symbol fill="none" viewBox="0 0 24 24" id="credit-card" xmlns="http://www.w3.org/2000/svg"><path d="M21 4.5H3A1.5 1.5 0 0 0 1.5 6v12A1.5 1.5 0 0 0 3 19.5h18a1.5 1.5 0 0 0 1.5-1.5V6A1.5 1.5 0 0 0 21 4.5ZM21 6v2.25H3V6h18Zm0 12H3V9.75h18V18Zm-1.5-2.25a.75.75 0 0 1-.75.75h-3a.75.75 0 1 1 0-1.5h3a.75.75 0 0 1 .75.75Zm-6 0a.75.75 0 0 1-.75.75h-1.5a.75.75 0 1 1 0-1.5h1.5a.75.75 0 0 1 .75.75Z" fill="currentColor"/></symbol><symbol fill="none" viewBox="0 0 80 80" id="currency-circle-dollar" xmlns="http://www.w3.org/2000/svg"><path d="M40 7.5A32.5 32.5 0 1 0 72.5 40 32.534 32.534 0 0 0 40 7.5Zm0 60A27.5 27.5 0 1 1 67.5 40 27.531 27.531 0 0 1 40 67.5Zm12.5-21.25A8.75 8.75 0 0 1 43.75 55H42.5v2.5a2.5 2.5 0 0 1-5 0V55h-5a2.5 2.5 0 0 1 0-5h11.25a3.75 3.75 0 0 0 0-7.5h-7.5a8.75 8.75 0 0 1 0-17.5h1.25v-2.5a2.5 2.5 0 0 1 5 0V25h5a2.5 2.5 0 0 1 0 5H36.25a3.75 3.75 0 0 0 0 7.5h7.5a8.75 8.75 0 0 1 8.75 8.75Z" fill="currentColor"/></symbol><symbol fill="none" viewBox="0 0 80 80" id="customer" xmlns="http://www.w3.org/2000/svg"><path d="M74.388 53.362A2.502 2.502 0 0 0 72.5 52.5h-5v-5c0-2.755-2.243-5-5-5h-10c-2.758 0-5 2.245-5 5v5h-5a2.502 2.502 0 0 0-2.475 2.855l2.5 17.5A2.5 2.5 0 0 0 45 75h25a2.5 2.5 0 0 0 2.475-2.145l2.5-17.5a2.503 2.503 0 0 0-.587-1.992ZM52.5 47.5h10v5h-10v-5ZM67.832 70H47.168l-1.785-12.5h24.235L67.833 70ZM25 50h5v25h-5V50Z" fill="currentColor"/><path d="m41.95 44.688-4.765-5.96-3.605-9.013A7.465 7.465 0 0 0 26.615 25H12.5C8.365 25 5 28.365 5 32.5V50c0 2.758 2.242 5 5 5h2.5v20h5V50H10V32.5a2.5 2.5 0 0 1 2.5-2.5h14.115c1.027 0 1.94.617 2.32 1.573l4.113 9.99 5 6.25 3.902-3.126ZM10 12.5c0-5.515 4.485-10 10-10s10 4.485 10 10-4.485 10-10 10-10-4.485-10-10Zm5 0c0 2.758 2.242 5 5 5s5-2.242 5-5-2.242-5-5-5-5 2.242-5 5Z" fill="currentColor"/></symbol><symbol fill="none" viewBox="0 0 24 24" id="drop-half" xmlns="http://www.w3.org/2000/svg"><path d="M16.313 4.476a23.832 23.832 0 0 0-3.886-3.59.75.75 0 0 0-.861 0 23.832 23.832 0 0 0-3.879 3.59C5.11 7.436 3.75 10.556 3.75 13.5a8.25 8.25 0 0 0 16.5 0c0-2.944-1.36-6.064-3.938-9.024ZM18.75 13.5c0 .25-.015.5-.043.75H12.75v-1.5h5.966c.023.25.034.5.034.75Zm-1.557-5.25H12.75v-1.5h3.458c.356.482.684.982.985 1.5Zm-4.443 10.5h3.487a6.72 6.72 0 0 1-3.487 1.457V18.75Zm0-1.5v-1.5h5.613a6.752 6.752 0 0 1-.75 1.5H12.75Zm0-6v-1.5h5.193c.206.487.377.988.51 1.5H12.75Zm2.24-6h-2.24V3.056a24.11 24.11 0 0 1 2.24 2.194ZM5.25 13.5c0-4.688 3.962-8.692 6-10.444v17.15a6.757 6.757 0 0 1-6-6.706Z" fill="currentColor"/></symbol><symbol viewBox="0 0 18 18" fill="none" id="edit" xmlns="http://www.w3.org/2000/svg"><path d="m14.475 6.694-3.188-3.15 1.05-1.05a1.44 1.44 0 0 1 1.06-.432c.42 0 .772.144 1.06.432l1.05 1.05c.287.287.437.634.45 1.04.012.407-.126.754-.413 1.041l-1.069 1.069ZM13.387 7.8l-7.95 7.95H2.25v-3.188l7.95-7.95L13.388 7.8Z" fill="currentColor"/></symbol><symbol viewBox="0 0 24 24" fill="none" id="eye" xmlns="http://www.w3.org/2000/svg"><path d="M23.185 11.696c-.032-.074-.827-1.835-2.592-3.6C18.241 5.742 15.27 4.5 12 4.5c-3.27 0-6.24 1.243-8.593 3.595C1.642 9.861.844 11.625.815 11.696a.75.75 0 0 0 0 .61c.032.074.827 1.834 2.592 3.6C5.759 18.256 8.73 19.5 12 19.5c3.27 0 6.24-1.243 8.593-3.594 1.765-1.766 2.56-3.526 2.592-3.6a.75.75 0 0 0 0-.61ZM12 18c-2.886 0-5.407-1.05-7.493-3.117A12.511 12.511 0 0 1 2.344 12a12.499 12.499 0 0 1 2.163-2.883C6.593 7.05 9.114 6 12 6s5.407 1.05 7.493 3.117A12.507 12.507 0 0 1 21.661 12c-.676 1.262-3.62 6-9.661 6Zm0-10.5a4.5 4.5 0 1 0 0 9 4.5 4.5 0 0 0 0-9Zm0 7.5a3 3 0 1 1 0-5.999A3 3 0 0 1 12 15Z" fill="currentColor"/></symbol><symbol viewBox="0 0 24 24" fill="none" id="eye-solid" xmlns="http://www.w3.org/2000/svg"><path d="M23.185 11.696c-.032-.074-.827-1.835-2.592-3.6C18.241 5.742 15.27 4.5 12 4.5c-3.27 0-6.24 1.243-8.593 3.595C1.642 9.861.844 11.625.815 11.696a.75.75 0 0 0 0 .61c.032.074.827 1.834 2.592 3.6C5.759 18.256 8.73 19.5 12 19.5c3.27 0 6.24-1.243 8.593-3.594 1.765-1.766 2.56-3.526 2.592-3.6a.75.75 0 0 0 0-.61ZM12 15.75a3.75 3.75 0 1 1 0-7.5 3.75 3.75 0 0 1 0 7.5Z" fill="currentColor"/></symbol><symbol viewBox="0 0 24 24" fill="none" id="eye-solid-slash" xmlns="http://www.w3.org/2000/svg"><path d="M5.055 3.245a.75.75 0 1 0-1.11 1.01l1.804 1.984c-3.405 2.09-4.87 5.31-4.934 5.457a.75.75 0 0 0 0 .61c.032.074.827 1.834 2.592 3.6C5.759 18.255 8.73 19.5 12 19.5c1.68.01 3.344-.337 4.882-1.015l2.062 2.27a.75.75 0 1 0 1.11-1.01L5.055 3.245Zm8.344 11.409a3 3 0 0 1-3.907-4.299l3.907 4.299Zm9.786-2.349c-.04.089-.989 2.191-3.127 4.107a.75.75 0 0 1-1.056-.054L9.506 5.913a.75.75 0 0 1 .431-1.245A12.562 12.562 0 0 1 12 4.5c3.27 0 6.24 1.243 8.593 3.595 1.765 1.765 2.56 3.527 2.592 3.601a.75.75 0 0 1 0 .61Z" fill="currentColor"/></symbol><symbol viewBox="0 0 24 24" fill="none" id="facebook" xmlns="http://www.w3.org/2000/svg"><path d="M21.75 12a9.765 9.765 0 0 1-8.583 9.681.377.377 0 0 1-.417-.375v-7.055H15a.75.75 0 0 0 .75-.8.766.766 0 0 0-.774-.7H12.75V10.5a1.5 1.5 0 0 1 1.5-1.5h1.5a.75.75 0 0 0 .75-.8.766.766 0 0 0-.775-.7H14.25a3 3 0 0 0-3 3v2.25H9a.75.75 0 0 0-.75.8.766.766 0 0 0 .775.7h2.225v7.057a.375.375 0 0 1-.416.375 9.764 9.764 0 0 1-8.577-10.049c.187-5.062 4.288-9.178 9.354-9.375a9.761 9.761 0 0 1 10.139 9.742Z" fill="currentColor"/></symbol><symbol fill="none" viewBox="0 0 80 80" id="feedback" xmlns="http://www.w3.org/2000/svg"><g clip-path="url(#bia)" fill="currentColor"><path d="M22.5 5 20 7.5v7.635a22.75 22.75 0 0 1 5 0V10h45v25h-8.535L55 41.465V35H44.865a22.75 22.75 0 0 1 0 5H50v7.5l4.27 1.77L63.535 40H72.5l2.5-2.5v-30L72.5 5h-50Z"/><path fill-rule="evenodd" clip-rule="evenodd" d="M32.085 52.145a17.5 17.5 0 1 0-19.17 0A22.505 22.505 0 0 0 0 72.5V75h5v-2.5a17.51 17.51 0 0 1 35 0V75h5v-2.5a22.504 22.504 0 0 0-12.915-20.355ZM22.5 50a12.5 12.5 0 1 1 0-25 12.5 12.5 0 0 1 0 25Z"/></g><defs><clipPath id="bia"><path fill="currentColor" d="M0 0h80v80H0z"/></clipPath></defs></symbol><symbol viewBox="0 0 24 24" fill="none" id="file" xmlns="http://www.w3.org/2000/svg"><path d="m20.03 6.22-3.75-3.75a.75.75 0 0 0-.53-.22h-7.5a1.5 1.5 0 0 0-1.5 1.5v1.5h-1.5a1.5 1.5 0 0 0-1.5 1.5v13.5a1.5 1.5 0 0 0 1.5 1.5h10.5a1.5 1.5 0 0 0 1.5-1.5v-1.5h1.5a1.5 1.5 0 0 0 1.5-1.5V6.75a.75.75 0 0 0-.22-.53Zm-4.28 14.03H5.25V6.75h7.19l3.31 3.31v10.19Zm3-3h-1.5v-7.5a.75.75 0 0 0-.22-.53l-3.75-3.75a.75.75 0 0 0-.53-.22h-4.5v-1.5h7.19l3.31 3.31v10.19Zm-5.25-3a.75.75 0 0 1-.75.75h-4.5a.75.75 0 1 1 0-1.5h4.5a.75.75 0 0 1 .75.75Zm0 3a.75.75 0 0 1-.75.75h-4.5a.75.75 0 1 1 0-1.5h4.5a.75.75 0 0 1 .75.75Z" fill="currentColor"/></symbol><symbol fill="none" viewBox="0 0 20 20" id="filled-info" xmlns="http://www.w3.org/2000/svg"><path d="M10 .25A9.75 9.75 0 1 0 19.75 10 9.76 9.76 0 0 0 10 .25Zm-.375 4.5a1.125 1.125 0 1 1 0 2.25 1.125 1.125 0 0 1 0-2.25Zm1.125 10.5a1.5 1.5 0 0 1-1.5-1.5V10a.75.75 0 0 1 0-1.5 1.5 1.5 0 0 1 1.5 1.5v3.75a.75.75 0 1 1 0 1.5Z" fill="currentColor"/></symbol><symbol fill="none" viewBox="0 0 24 24" id="filled-thumbs-up" xmlns="http://www.w3.org/2000/svg"><path d="M21.938 7.511a2.25 2.25 0 0 0-1.688-.761H15v-1.5a3.75 3.75 0 0 0-3.75-3.75.75.75 0 0 0-.671.414L7.037 9H3a1.5 1.5 0 0 0-1.5 1.5v8.25a1.5 1.5 0 0 0 1.5 1.5h16.125a2.25 2.25 0 0 0 2.233-1.969l1.125-9a2.25 2.25 0 0 0-.546-1.77ZM3 10.5h3.75v8.25H3V10.5Z" fill="currentColor"/></symbol><symbol fill="none" viewBox="0 0 24 24" id="flag" xmlns="http://www.w3.org/2000/svg"><path d="M4.009 4.688a.75.75 0 0 0-.259.562V21a.75.75 0 1 0 1.5 0v-4.147c2.512-1.983 4.675-.914 7.167.32 1.538.76 3.193 1.58 4.969 1.58 1.306 0 2.676-.445 4.108-1.688a.75.75 0 0 0 .259-.562V5.25a.75.75 0 0 0-1.244-.562c-2.625 2.271-4.849 1.17-7.426-.105-2.67-1.324-5.697-2.821-9.074.105Zm16.241 11.46c-2.512 1.984-4.675.914-7.167-.32-2.344-1.157-4.951-2.449-7.833-.787V5.605c2.512-1.983 4.675-.914 7.167.32 2.344 1.157 4.952 2.449 7.833.787v9.436Z" fill="currentColor"/></symbol><symbol fill="none" viewBox="0 0 18 18" id="follow" xmlns="http://www.w3.org/2000/svg"><path d="M7.238 7.94h-.19a2.068 2.068 0 0 0-2.064 1.972h4.318A2.068 2.068 0 0 0 7.238 7.94Z" fill="currentColor"/><path d="M14.385 2.11H3.615c-1.373 0-2.49 1.207-2.49 2.692v6.801c0 1.485 1.117 2.693 2.49 2.693h3.233l1.74 1.348a.464.464 0 0 0 .823 0l1.74-1.348h3.234c1.373 0 2.49-1.208 2.49-2.693v-6.8c0-1.486-1.117-2.694-2.49-2.694Zm-4.988 8.73H4.889a.837.837 0 0 1-.835-.835c0-1.242.76-2.31 1.84-2.763a1.76 1.76 0 0 1-.517-1.247c0-.974.792-1.766 1.766-1.766s1.766.792 1.766 1.766c0 .487-.197.928-.517 1.247a2.999 2.999 0 0 1 1.84 2.763c0 .46-.375.835-.835.835Zm4.017-.766c0 .196-.24.295-.48.295s-.479-.099-.479-.295V6.946l-.178.111a.28.28 0 0 1-.154.05c-.178 0-.3-.191-.3-.382 0-.129.054-.252.177-.325l.811-.492c.05-.03.111-.043.179-.043.196 0 .424.117.424.301v3.908Z" fill="currentColor"/><path d="M7.143 6.832a.839.839 0 0 0 0-1.676.839.839 0 0 0 0 1.676Z" fill="currentColor"/></symbol><symbol fill="none" viewBox="0 0 80 80" id="gear" xmlns="http://www.w3.org/2000/svg"><path d="M39.997 24.997a15 15 0 1 0 15 15 15.015 15.015 0 0 0-15-15Zm0 25a10 10 0 1 1 0-20 10 10 0 0 1 0 20Zm27.5-9.325c.013-.45.013-.9 0-1.35l4.663-5.825a2.499 2.499 0 0 0 .462-2.206 33.5 33.5 0 0 0-3.4-8.203 2.5 2.5 0 0 0-1.875-1.228l-7.412-.825c-.309-.325-.621-.638-.938-.938l-.875-7.431a2.5 2.5 0 0 0-1.231-1.875 33.658 33.658 0 0 0-8.203-3.397 2.5 2.5 0 0 0-2.206.466l-5.81 4.637h-1.35l-5.825-4.653a2.5 2.5 0 0 0-2.206-.462 33.625 33.625 0 0 0-8.203 3.4 2.5 2.5 0 0 0-1.228 1.875l-.825 7.425c-.325.31-.638.622-.938.937l-7.431.853a2.501 2.501 0 0 0-1.875 1.232 33.658 33.658 0 0 0-3.397 8.203 2.5 2.5 0 0 0 .466 2.206l4.637 5.81v1.35l-4.653 5.824a2.5 2.5 0 0 0-.462 2.206 33.502 33.502 0 0 0 3.4 8.204 2.501 2.501 0 0 0 1.875 1.228l7.412.825c.31.325.623.637.938.937l.865 7.432a2.5 2.5 0 0 0 1.232 1.875 33.66 33.66 0 0 0 8.203 3.396 2.499 2.499 0 0 0 2.206-.465l5.81-4.638c.45.013.9.013 1.35 0l5.824 4.663a2.5 2.5 0 0 0 2.206.462 33.5 33.5 0 0 0 8.204-3.4 2.501 2.501 0 0 0 1.228-1.875l.825-7.412c.325-.309.637-.621.937-.938l7.432-.875a2.5 2.5 0 0 0 1.875-1.231 33.66 33.66 0 0 0 3.396-8.203 2.499 2.499 0 0 0-.465-2.206l-4.638-5.81Zm-5.031-2.031c.053.903.053 1.81 0 2.712a2.5 2.5 0 0 0 .544 1.713l4.434 5.54a28.617 28.617 0 0 1-1.947 4.688l-7.062.8a2.5 2.5 0 0 0-1.594.825 23.176 23.176 0 0 1-1.919 1.919 2.5 2.5 0 0 0-.825 1.594l-.784 7.056a28.529 28.529 0 0 1-4.688 1.947L43.082 63a2.5 2.5 0 0 0-1.563-.547h-.15c-.903.054-1.809.054-2.712 0a2.5 2.5 0 0 0-1.713.544l-5.556 4.438a28.612 28.612 0 0 1-4.688-1.947l-.8-7.053a2.5 2.5 0 0 0-.825-1.594 23.176 23.176 0 0 1-1.918-1.919 2.5 2.5 0 0 0-1.594-.825l-7.056-.787a28.545 28.545 0 0 1-1.947-4.688l4.434-5.544a2.5 2.5 0 0 0 .544-1.712 23.114 23.114 0 0 1 0-2.712 2.5 2.5 0 0 0-.544-1.713l-4.434-5.553a28.62 28.62 0 0 1 1.947-4.688l7.053-.8a2.5 2.5 0 0 0 1.594-.825 23.159 23.159 0 0 1 1.918-1.918 2.5 2.5 0 0 0 .828-1.597l.785-7.053a28.545 28.545 0 0 1 4.687-1.947l5.544 4.434a2.5 2.5 0 0 0 1.713.544c.903-.053 1.809-.053 2.712 0a2.5 2.5 0 0 0 1.712-.544l5.554-4.434a28.617 28.617 0 0 1 4.687 1.947l.8 7.053a2.5 2.5 0 0 0 .825 1.594 23.159 23.159 0 0 1 1.919 1.918 2.5 2.5 0 0 0 1.594.825l7.056.785a28.536 28.536 0 0 1 1.947 4.687L63 36.913a2.5 2.5 0 0 0-.543 1.728h.009Z" fill="currentColor"/></symbol><symbol fill="none" viewBox="0 0 80 80" id="gift" xmlns="http://www.w3.org/2000/svg"><path d="M67.5 22.497H56.538c.121-.104.246-.204.365-.313A9.229 9.229 0 0 0 60 15.487a10.194 10.194 0 0 0-10.487-10.49 9.228 9.228 0 0 0-6.7 3.096A17.169 17.169 0 0 0 40 12.618a17.169 17.169 0 0 0-2.813-4.525 9.228 9.228 0 0 0-6.7-3.096A10.194 10.194 0 0 0 20 15.487a9.228 9.228 0 0 0 3.097 6.697c.119.103.244.203.365.313H12.5a5 5 0 0 0-5 5v10a5 5 0 0 0 5 5v20a5 5 0 0 0 5 5h45a5 5 0 0 0 5-5v-20a5 5 0 0 0 5-5v-10a5 5 0 0 0-5-5ZM46.562 11.406A4.278 4.278 0 0 1 49.688 10h.153A5.194 5.194 0 0 1 55 15.334a4.279 4.279 0 0 1-1.406 3.125c-2.966 2.625-7.888 3.55-10.938 3.875.375-3.31 1.407-8.119 3.907-10.928Zm-20.028.112a5.197 5.197 0 0 1 3.65-1.521h.153a4.278 4.278 0 0 1 3.125 1.406c2.622 2.962 3.547 7.875 3.872 10.912-3.037-.312-7.95-1.25-10.912-3.872a4.278 4.278 0 0 1-1.406-3.125 5.187 5.187 0 0 1 1.506-3.8h.012ZM12.5 27.497h25v10h-25v-10Zm5 15h20v20h-20v-20Zm45 20h-20v-20h20v20Zm5-25h-25v-10h25v10Z" fill="currentColor"/></symbol><symbol viewBox="0 0 16 16" fill="none" id="grid-2-h" xmlns="http://www.w3.org/2000/svg"><path d="M16 1.005v4.99a.926.926 0 0 1-.356.71 1.359 1.359 0 0 1-.861.295H1.218c-.323 0-.633-.106-.861-.294A.926.926 0 0 1 0 5.995v-4.99C0 .74.128.483.357.295.585.104.895 0 1.217 0h13.566c.323 0 .632.106.86.294a.926.926 0 0 1 .357.711Zm-1.217 0H1.218v4.99h13.565v-4.99ZM16 10.005v4.99a.926.926 0 0 1-.356.71 1.359 1.359 0 0 1-.861.295H1.218c-.323 0-.633-.106-.861-.294A.926.926 0 0 1 0 14.995v-4.99c0-.266.128-.522.357-.71.228-.19.538-.295.86-.295h13.566c.323 0 .632.106.86.294a.926.926 0 0 1 .357.711Zm-1.217 0H1.218v4.99h13.565v-4.99Z" fill="currentColor"/></symbol><symbol viewBox="0 0 256 256" id="grid-four" xmlns="http://www.w3.org/2000/svg"><rect x="48" y="48" width="160" height="160" rx="8" fill="none" stroke="currentColor" stroke-linecap="round" stroke-linejoin="round" stroke-width="16"/><path fill="none" stroke="currentColor" stroke-linecap="round" stroke-linejoin="round" stroke-width="16" d="M128 48v160M48 128h160"/></symbol><symbol fill="none" viewBox="0 0 24 24" id="group" xmlns="http://www.w3.org/2000/svg"><path d="M12.001 12.688a.747.747 0 0 1-.301-.069L2.785 8.162a.686.686 0 0 1 0-1.234L11.7 2.47a.697.697 0 0 1 .617 0l8.914 4.458a.686.686 0 0 1 0 1.234l-8.914 4.457a.606.606 0 0 1-.302.069h-.014ZM4.623 7.545l7.378 3.689 7.379-3.69L12 3.857 4.623 7.545Z" fill="currentColor"/><path d="M12.001 17.146a.747.747 0 0 1-.301-.069L2.785 12.62a.686.686 0 0 1 0-1.234l4.457-2.222a.693.693 0 0 1 .92.302.693.693 0 0 1-.302.919l-3.237 1.618 7.378 3.69 7.379-3.69-3.237-1.618a.669.669 0 0 1-.302-.92.67.67 0 0 1 .92-.3l4.456 2.22a.686.686 0 0 1 0 1.235l-8.914 4.457a.606.606 0 0 1-.302.069Z" fill="currentColor"/><path d="M12.001 21.599a.748.748 0 0 1-.301-.069l-8.915-4.457a.686.686 0 0 1 0-1.234l4.457-2.222a.693.693 0 0 1 .92.302.693.693 0 0 1-.302.919l-3.237 1.618 7.378 3.69 7.379-3.69-3.237-1.618a.669.669 0 0 1-.302-.919.67.67 0 0 1 .92-.302l4.456 2.222a.687.687 0 0 1 0 1.234l-8.914 4.457a.607.607 0 0 1-.302.069Z" fill="currentColor"/></symbol><symbol fill="none" viewBox="0 0 24 24" id="hand-coins" xmlns="http://www.w3.org/2000/svg"><g clip-path="url(#bta)"><path d="M21.593 13.224a2.29 2.29 0 0 0-1.99-.396l-3.923.902a2.625 2.625 0 0 0-2.555-3.23H8.432a2.982 2.982 0 0 0-2.122.878L4.19 13.5H1.5A1.5 1.5 0 0 0 0 15v3.75a1.5 1.5 0 0 0 1.5 1.5h9.75a.744.744 0 0 0 .182-.023l6-1.5a.653.653 0 0 0 .111-.037l3.645-1.55.04-.02a2.306 2.306 0 0 0 .37-3.896h-.005ZM1.5 15h2.25v3.75H1.5V15Zm19.072.77-3.563 1.517-5.853 1.463H5.25v-4.19l2.122-2.12a1.487 1.487 0 0 1 1.06-.44h4.693a1.125 1.125 0 1 1 0 2.25H10.5a.75.75 0 1 0 0 1.5h3a.782.782 0 0 0 .168-.019l6.281-1.444.03-.008a.806.806 0 0 1 .59 1.49h.003ZM15.375 9c.185 0 .37-.015.553-.045a3.376 3.376 0 1 0 2.646-4.406A3.375 3.375 0 1 0 15.375 9ZM21 7.875a1.875 1.875 0 1 1-3.75 0 1.875 1.875 0 0 1 3.75 0ZM15.375 3.75a1.875 1.875 0 0 1 1.805 1.37 3.376 3.376 0 0 0-1.407 2.337 1.875 1.875 0 1 1-.398-3.707Z" fill="currentColor"/></g><defs><clipPath id="bta"><path fill="#fff" d="M0 0h24v24H0z"/></clipPath></defs></symbol><symbol fill="none" viewBox="0 0 24 24" id="hand-soap" xmlns="http://www.w3.org/2000/svg"><path d="M17.25 9.075V8.25a3 3 0 0 0-3-3h-1.5V3h3a.75.75 0 0 1 .75.75.75.75 0 1 0 1.5 0 2.25 2.25 0 0 0-2.25-2.25h-6a.75.75 0 0 0 0 1.5h1.5v2.25h-1.5a3 3 0 0 0-3 3v.825a3.757 3.757 0 0 0-3 3.675v7.5a1.5 1.5 0 0 0 1.5 1.5h13.5a1.5 1.5 0 0 0 1.5-1.5v-7.5a3.757 3.757 0 0 0-3-3.675ZM9.75 6.75h4.5a1.5 1.5 0 0 1 1.5 1.5V9h-7.5v-.75a1.5 1.5 0 0 1 1.5-1.5Zm9 13.5H5.25v-7.5A2.25 2.25 0 0 1 7.5 10.5h9a2.25 2.25 0 0 1 2.25 2.25v7.5Z" fill="currentColor"/></symbol><symbol fill="none" viewBox="0 0 24 24" id="home-check" xmlns="http://www.w3.org/2000/svg"><path d="m9.68 13.323 1.379 1.575a.297.297 0 0 0 .366.065.3.3 0 0 0 .1-.087l2.8-3.876" stroke="currentColor" stroke-width="1.5" stroke-linecap="round" stroke-linejoin="round"/><path d="M6.133 21C4.955 21 4 20.02 4 18.81v-8.802c0-.665.295-1.295.8-1.71l5.867-4.818a2.09 2.09 0 0 1 2.666 0l5.866 4.818c.506.415.801 1.045.801 1.71v8.802c0 1.21-.955 2.19-2.133 2.19H6.133Z" stroke="currentColor" stroke-width="1.5" stroke-linecap="round" stroke-linejoin="round"/></symbol><symbol fill="none" viewBox="0 0 32 33" id="image" xmlns="http://www.w3.org/2000/svg"><path d="M27 5.029H5a2 2 0 0 0-2 2v18a2 2 0 0 0 2 2h22a2 2 0 0 0 2-2v-18a2 2 0 0 0-2-2Zm0 2v12.844l-3.259-3.258a1.998 1.998 0 0 0-2.828 0l-2.5 2.5-5.5-5.5a2 2 0 0 0-2.828 0L5 18.7V7.03h22Zm-22 14.5 6.5-6.5 10 10H5v-3.5Zm22 3.5h-2.671l-4.5-4.5 2.5-2.5L27 22.7v2.328Zm-9-12.5a1.5 1.5 0 1 1 3 0 1.5 1.5 0 0 1-3 0Z" fill="currentColor"/></symbol><symbol fill="none" viewBox="0 0 18 16" id="import" xmlns="http://www.w3.org/2000/svg"><path d="M12 8 8 4v3H0v2h8v3m10 2V2a2 2 0 0 0-2-2H4a2 2 0 0 0-2 2v3h2V2h12v12H4v-3H2v3a2 2 0 0 0 2 2h12a2 2 0 0 0 2-2Z" fill="currentColor"/></symbol><symbol viewBox="0 0 22 22" fill="none" id="info" xmlns="http://www.w3.org/2000/svg"><path d="M11 1.375a9.625 9.625 0 1 1 0 19.25 9.625 9.625 0 0 1 0-19.25ZM11 5.5a1.255 1.255 0 0 0-1.251 1.37l.502 5.508a.754.754 0 0 0 1.498 0l.5-5.508A1.256 1.256 0 0 0 11 5.5Zm0 11a1.1 1.1 0 1 0 0-2.2 1.1 1.1 0 0 0 0 2.2Z" fill="currentColor"/></symbol><symbol viewBox="0 0 24 24" fill="none" id="instagram" xmlns="http://www.w3.org/2000/svg"><path d="M16.5 2.25h-9A5.256 5.256 0 0 0 2.25 7.5v9a5.256 5.256 0 0 0 5.25 5.25h9a5.256 5.256 0 0 0 5.25-5.25v-9a5.256 5.256 0 0 0-5.25-5.25ZM12 16.5a4.5 4.5 0 1 1 0-9 4.5 4.5 0 0 1 0 9Zm5.625-9a1.125 1.125 0 1 1 0-2.25 1.125 1.125 0 0 1 0 2.25ZM15 12a3 3 0 1 1-5.999 0A3 3 0 0 1 15 12Z" fill="currentColor"/></symbol><symbol viewBox="0 0 21 20" fill="none" id="link-alt" xmlns="http://www.w3.org/2000/svg"><path d="M4.018 16.482a4.153 4.153 0 0 0 2.946 1.219 4.154 4.154 0 0 0 2.947-1.219l2.357-2.357-1.179-1.178-2.356 2.357a2.506 2.506 0 0 1-3.536 0 2.504 2.504 0 0 1 0-3.536l2.357-2.356-1.178-1.179-2.358 2.357a4.172 4.172 0 0 0 0 5.892Zm12.964-7.07a4.174 4.174 0 0 0 0-5.893 4.172 4.172 0 0 0-5.893 0L8.733 5.877 9.91 7.055l2.357-2.358a2.506 2.506 0 0 1 3.535 0 2.504 2.504 0 0 1 0 3.536l-2.357 2.357 1.178 1.178 2.358-2.356Z" fill="currentColor"/><path d="m7.553 14.125-1.179-1.178 7.073-7.072 1.178 1.18-7.072 7.07Z" fill="currentColor"/></symbol><symbol viewBox="0 0 21 20" fill="none" id="location" xmlns="http://www.w3.org/2000/svg"><path d="M10.5 11.25a3.125 3.125 0 1 1 0-6.25 3.125 3.125 0 0 1 0 6.25Zm0-5a1.875 1.875 0 1 0 0 3.75 1.875 1.875 0 0 0 0-3.75Z" fill="currentColor"/><path d="m10.5 18.75-5.272-6.218a22.439 22.439 0 0 1-.218-.282 6.806 6.806 0 0 1-1.385-4.125 6.875 6.875 0 0 1 13.75 0 6.802 6.802 0 0 1-1.384 4.123l-.001.002s-.188.246-.216.28L10.5 18.75Zm-4.492-7.253.179.234 4.313 5.086 4.319-5.093.174-.229a5.562 5.562 0 0 0 1.132-3.37 5.625 5.625 0 1 0-11.25 0 5.566 5.566 0 0 0 1.133 3.372Z" fill="currentColor"/></symbol><symbol fill="none" viewBox="0 0 24 24" id="lock" xmlns="http://www.w3.org/2000/svg"><path d="M19.5 7.5h-3V5.25a4.5 4.5 0 1 0-9 0V7.5h-3A1.5 1.5 0 0 0 3 9v10.5A1.5 1.5 0 0 0 4.5 21h15a1.5 1.5 0 0 0 1.5-1.5V9a1.5 1.5 0 0 0-1.5-1.5ZM9 5.25a3 3 0 1 1 6 0V7.5H9V5.25ZM19.5 19.5h-15V9h15v10.5Zm-6.375-5.25a1.125 1.125 0 1 1-2.25 0 1.125 1.125 0 0 1 2.25 0Z" fill="currentColor"/></symbol><symbol viewBox="0 0 30 30" fill="none" id="logo-smatez" xmlns="http://www.w3.org/2000/svg"><path d="M27.127 12.426H14.643a.425.425 0 0 0-.345.175 2.672 2.672 0 0 1-2.173 1.112c-.74 0-1.41-.299-1.894-.784a2.665 2.665 0 0 1-.785-1.89c0-.74.3-1.407.785-1.892a2.672 2.672 0 0 1 1.893-.783c.894 0 1.686.437 2.172 1.11.08.11.21.178.347.178H25.39c.4 0 .6-.482.317-.764l-7.622-7.612a4.366 4.366 0 0 0-6.17 0L1.258 11.92a4.327 4.327 0 0 0-1.221 2.376c-.281 1.724 1.088 3.28 2.836 3.28h12.484a.425.425 0 0 0 .345-.175 2.68 2.68 0 0 1 2.462-1.097 2.684 2.684 0 0 1 2.376 2.4 2.66 2.66 0 0 1-.772 2.147 2.672 2.672 0 0 1-1.894.784 2.666 2.666 0 0 1-2.173-1.112.425.425 0 0 0-.345-.175H4.61c-.399 0-.6.482-.317.764l7.622 7.612a4.366 4.366 0 0 0 6.17 0L28.742 18.08a4.327 4.327 0 0 0 1.221-2.376c.281-1.724-1.088-3.279-2.836-3.279Z" fill="currentColor"/></symbol><symbol viewBox="0 0 20 20" fill="none" id="logout-outline" xmlns="http://www.w3.org/2000/svg"><path d="M16.953 14.297H15.58a.308.308 0 0 0-.24.113 6.911 6.911 0 0 1-5.332 2.504 6.89 6.89 0 0 1-4.895-2.025A6.9 6.9 0 0 1 3.63 12.69 6.846 6.846 0 0 1 3.086 10a6.881 6.881 0 0 1 2.027-4.889 6.91 6.91 0 0 1 4.895-2.025A6.91 6.91 0 0 1 15.34 5.59a.31.31 0 0 0 .24.113h1.373c.123 0 .2-.137.13-.24a8.402 8.402 0 0 0-7.097-3.861 8.389 8.389 0 0 0-8.384 8.484c.046 4.6 3.792 8.312 8.406 8.312 2.97 0 5.58-1.539 7.076-3.86a.156.156 0 0 0-.13-.241Zm1.736-4.42-2.771-2.188a.156.156 0 0 0-.254.124v1.484H9.531a.157.157 0 0 0-.156.156v1.094c0 .086.07.156.156.156h6.133v1.485c0 .13.152.205.254.123l2.771-2.188a.156.156 0 0 0 0-.246Z" fill="currentColor"/></symbol><symbol fill="none" viewBox="0 0 80 80" id="map-pin-line" xmlns="http://www.w3.org/2000/svg"><path d="M62.5 70H47.044a83.299 83.299 0 0 0 7.331-7.422C62.953 52.712 67.5 42.312 67.5 32.5a27.5 27.5 0 1 0-55 0c0 9.813 4.534 20.212 13.125 30.078A83.311 83.311 0 0 0 32.956 70H17.5a2.5 2.5 0 0 0 0 5h45a2.5 2.5 0 0 0 0-5Zm-45-37.5a22.5 22.5 0 1 1 45 0c0 17.884-17.334 32.813-22.5 36.875-5.166-4.063-22.5-18.99-22.5-36.875Zm35 0a12.5 12.5 0 1 0-25 0 12.5 12.5 0 0 0 25 0Zm-20 0a7.5 7.5 0 1 1 15 0 7.5 7.5 0 0 1-15 0Z" fill="currentColor"/></symbol><symbol fill="none" viewBox="0 0 24 24" id="medal" xmlns="http://www.w3.org/2000/svg"><path d="M20.25 9a8.25 8.25 0 1 0-13.5 6.36v7.14a.75.75 0 0 0 1.086.671L12 21.094l4.165 2.082c.105.05.22.075.335.074a.75.75 0 0 0 .75-.75v-7.14a8.237 8.237 0 0 0 3-6.36Zm-15 0A6.75 6.75 0 1 1 12 15.75 6.758 6.758 0 0 1 5.25 9Zm10.5 12.287-3.415-1.707a.75.75 0 0 0-.672 0L8.25 21.287v-4.94a8.24 8.24 0 0 0 7.5 0v4.94ZM12 14.25a5.25 5.25 0 1 0 0-10.499 5.25 5.25 0 0 0 0 10.499Zm0-9a3.75 3.75 0 1 1 0 7.5 3.75 3.75 0 0 1 0-7.5Z" fill="currentColor"/></symbol><symbol fill="none" viewBox="0 0 24 24" id="money" xmlns="http://www.w3.org/2000/svg"><path d="M12 8.25a3.75 3.75 0 1 0 0 7.5 3.75 3.75 0 0 0 0-7.5Zm0 6a2.25 2.25 0 1 1 0-4.5 2.25 2.25 0 0 1 0 4.5Zm10.5-9h-21A.75.75 0 0 0 .75 6v12a.75.75 0 0 0 .75.75h21a.75.75 0 0 0 .75-.75V6a.75.75 0 0 0-.75-.75Zm-4.345 12H5.845a5.324 5.324 0 0 0-3.595-3.595v-3.31A5.323 5.323 0 0 0 5.845 6.75h12.31a5.324 5.324 0 0 0 3.595 3.595v3.31a5.324 5.324 0 0 0-3.595 3.595Zm3.595-8.497a3.826 3.826 0 0 1-2.003-2.003h2.003v2.003ZM4.253 6.75A3.826 3.826 0 0 1 2.25 8.753V6.75h2.003ZM2.25 15.247a3.826 3.826 0 0 1 2.003 2.003H2.25v-2.003Zm17.497 2.003a3.826 3.826 0 0 1 2.003-2.003v2.003h-2.003Z" fill="currentColor"/></symbol><symbol fill="none" viewBox="0 0 24 24" id="more" xmlns="http://www.w3.org/2000/svg"><path d="M5 10c-1.1 0-2 .9-2 2s.9 2 2 2 2-.9 2-2-.9-2-2-2Zm14 0c-1.1 0-2 .9-2 2s.9 2 2 2 2-.9 2-2-.9-2-2-2Zm-7 0c-1.1 0-2 .9-2 2s.9 2 2 2 2-.9 2-2-.9-2-2-2Z" fill="currentColor"/></symbol><symbol fill="none" viewBox="0 0 24 24" id="outline-chat-circle-text" xmlns="http://www.w3.org/2000/svg"><path d="M15.75 10.5a.75.75 0 0 1-.75.75H9a.75.75 0 1 1 0-1.5h6a.75.75 0 0 1 .75.75ZM15 12.75H9a.75.75 0 1 0 0 1.5h6a.75.75 0 1 0 0-1.5Zm6.75-.75a9.75 9.75 0 0 1-14.332 8.608l-3.193 1.064a1.5 1.5 0 0 1-1.897-1.897l1.064-3.193A9.75 9.75 0 1 1 21.75 12Zm-1.5 0a8.25 8.25 0 1 0-15.393 4.13.75.75 0 0 1 .062.614L3.75 20.25l3.506-1.17a.736.736 0 0 1 .612.063A8.25 8.25 0 0 0 20.25 12Z" fill="currentColor"/></symbol><symbol fill="none" viewBox="0 0 24 24" id="outline-info" xmlns="http://www.w3.org/2000/svg"><path d="M12 2.25A9.75 9.75 0 1 0 21.75 12 9.76 9.76 0 0 0 12 2.25Zm0 18A8.25 8.25 0 1 1 20.25 12 8.26 8.26 0 0 1 12 20.25Zm1.5-3.75a.75.75 0 0 1-.75.75 1.5 1.5 0 0 1-1.5-1.5V12a.75.75 0 1 1 0-1.5 1.5 1.5 0 0 1 1.5 1.5v3.75a.75.75 0 0 1 .75.75Zm-3-8.625a1.125 1.125 0 1 1 2.25 0 1.125 1.125 0 0 1-2.25 0Z" fill="currentColor"/></symbol><symbol viewBox="0 0 21 20" fill="none" id="outline-mail" xmlns="http://www.w3.org/2000/svg"><path d="M18.833 5c0-.916-.75-1.666-1.666-1.666H3.833c-.916 0-1.666.75-1.666 1.667v10c0 .916.75 1.666 1.666 1.666h13.334c.916 0 1.666-.75 1.666-1.666V5Zm-1.666 0L10.5 9.168 3.833 5.001h13.334Zm0 10H3.833V6.668l6.667 4.167 6.667-4.167v8.334Z" fill="currentColor"/></symbol><symbol fill="none" viewBox="0 0 24 24" id="outline-star" xmlns="http://www.w3.org/2000/svg"><path d="M22.423 9.118a1.536 1.536 0 0 0-1.337-1.055l-5.53-.447-2.137-5.164a1.533 1.533 0 0 0-2.837 0L8.448 7.615l-5.534.448a1.543 1.543 0 0 0-.879 2.705l4.22 3.64-1.286 5.444a1.536 1.536 0 0 0 2.297 1.67L12 18.61l4.737 2.913a1.537 1.537 0 0 0 2.294-1.67l-1.29-5.444 4.22-3.64a1.541 1.541 0 0 0 .462-1.65Zm-1.438.513L16.42 13.57a.75.75 0 0 0-.24.741l1.395 5.888a.035.035 0 0 1-.016.045c-.016.013-.021.01-.035 0l-5.13-3.155a.75.75 0 0 0-.786 0l-5.13 3.156c-.014.009-.018.012-.035 0a.035.035 0 0 1-.016-.044l1.395-5.888a.75.75 0 0 0-.24-.742L3.015 9.633c-.011-.01-.022-.018-.012-.047.01-.029.017-.025.03-.027l5.993-.484a.75.75 0 0 0 .63-.463l2.308-5.588c.008-.016.01-.024.033-.024s.026.008.033.024l2.314 5.588a.75.75 0 0 0 .633.461l5.992.484c.014 0 .023 0 .031.027.009.027 0 .038-.015.047Z" fill="currentColor"/></symbol><symbol fill="none" viewBox="0 0 24 24" id="outline-store-front" xmlns="http://www.w3.org/2000/svg"><path d="M21.75 9c0-.07-.01-.14-.028-.206l-1.345-4.707A1.507 1.507 0 0 0 18.937 3H5.063a1.507 1.507 0 0 0-1.439 1.088L2.28 8.794A.74.74 0 0 0 2.25 9v1.5a3.75 3.75 0 0 0 1.5 3v6.75a.75.75 0 0 0 .75.75h15a.75.75 0 0 0 .75-.75V13.5a3.75 3.75 0 0 0 1.5-3V9ZM5.062 4.5h13.875l1.071 3.75H3.995L5.062 4.5ZM9.75 9.75h4.5v.75a2.25 2.25 0 0 1-4.5 0v-.75Zm-1.5 0v.75a2.25 2.25 0 0 1-3.293 1.993.741.741 0 0 0-.17-.1A2.25 2.25 0 0 1 3.75 10.5v-.75h4.5Zm10.5 9.75H5.25v-5.325A3.75 3.75 0 0 0 9 12.75a3.75 3.75 0 0 0 6 0 3.75 3.75 0 0 0 3.75 1.425V19.5Zm.462-7.106a.757.757 0 0 0-.169.098A2.25 2.25 0 0 1 15.75 10.5v-.75h4.5v.75a2.25 2.25 0 0 1-1.038 1.894Z" fill="currentColor"/></symbol><symbol fill="none" viewBox="0 0 24 24" id="outline-thumbs-up" xmlns="http://www.w3.org/2000/svg"><path d="M21.938 7.511a2.25 2.25 0 0 0-1.688-.761H15v-1.5a3.75 3.75 0 0 0-3.75-3.75.75.75 0 0 0-.671.414L7.037 9H3a1.5 1.5 0 0 0-1.5 1.5v8.25a1.5 1.5 0 0 0 1.5 1.5h16.125a2.25 2.25 0 0 0 2.233-1.969l1.125-9a2.25 2.25 0 0 0-.546-1.77ZM3 10.5h3.75v8.25H3V10.5Zm17.994-1.406-1.125 9a.75.75 0 0 1-.744.656H8.25V9.927l3.442-6.884A2.25 2.25 0 0 1 13.5 5.25V7.5a.75.75 0 0 0 .75.75h6a.75.75 0 0 1 .744.844Z" fill="currentColor"/></symbol><symbol viewBox="0 0 24 24" fill="none" id="package" xmlns="http://www.w3.org/2000/svg"><path d="m20.97 6.202-8.25-4.514a1.489 1.489 0 0 0-1.44 0L3.03 6.204a1.5 1.5 0 0 0-.78 1.312v8.966a1.5 1.5 0 0 0 .78 1.313l8.25 4.516a1.489 1.489 0 0 0 1.44 0l8.25-4.516a1.5 1.5 0 0 0 .78-1.313V7.517a1.5 1.5 0 0 0-.78-1.315ZM12 3l7.532 4.125-2.791 1.528-7.533-4.125L12 3Zm0 8.25L4.468 7.125l3.178-1.74 7.532 4.125L12 11.25ZM3.75 8.438l7.5 4.104v8.043l-7.5-4.102V8.438Zm16.5 8.042-7.5 4.105v-8.04l3-1.64v3.345a.75.75 0 1 0 1.5 0v-4.167l3-1.645v8.042Z" fill="currentColor"/></symbol><symbol fill="none" viewBox="0 0 24 24" id="packages" xmlns="http://www.w3.org/2000/svg"><g clip-path="url(#cqa)" stroke="currentColor" stroke-width="1.2" stroke-linecap="round" stroke-linejoin="round"><path d="m6.602 16.86-5.399-3.238 5.399-3.24L12 13.623v5.938L6.602 22.8v-5.94Z"/><path d="M1.203 13.62v5.938l5.399 3.239m0-5.89L12 13.636m5.398 3.223L12 13.619m5.398 3.24v5.938m0-5.938 5.399-3.24M12 13.62l5.398-3.239M12 13.62V7.68m5.398 2.7 5.399 3.239m-5.399-3.24V4.442m5.399 9.178v5.938l-5.399 3.239m0 0L12 19.557m0-11.876L6.602 4.442 12 1.203l5.398 3.24M12 7.68l5.398-3.239m-10.796.033v5.89"/></g><defs><clipPath id="cqa"><path fill="#fff" d="M0 0h24v24H0z"/></clipPath></defs></symbol><symbol viewBox="0 0 21 20" fill="none" id="pencil-simple-line" xmlns="http://www.w3.org/2000/svg"><path d="m18.26 5.732-3.492-3.49a1.25 1.25 0 0 0-1.768 0l-9.634 9.633a1.24 1.24 0 0 0-.366.883v3.492a1.25 1.25 0 0 0 1.25 1.25h13.125a.625.625 0 1 0 0-1.25H9.509l8.75-8.75a1.25 1.25 0 0 0 0-1.768ZM7.74 16.25H4.25v-3.492l6.875-6.875 3.491 3.492-6.875 6.875ZM15.5 8.49 12.01 5l1.874-1.875 3.491 3.491L15.5 8.491Z" fill="currentColor"/></symbol><symbol fill="none" viewBox="0 0 80 80" id="permission" xmlns="http://www.w3.org/2000/svg"><path d="M33.33 16.664H9.998a3.333 3.333 0 0 0-3.333 3.333v43.334a3.334 3.334 0 0 0 3.333 3.333h60a3.333 3.333 0 0 0 3.334-3.333v-4.167" stroke="currentColor" stroke-width="4" stroke-linecap="round" stroke-linejoin="round"/><path d="M16.664 38.328h13.333M16.664 51.661h40" stroke="currentColor" stroke-width="4" stroke-linecap="round"/><path d="M56.664 36.664c5.523 0 10-4.477 10-10s-4.477-10-10-10-10 4.477-10 10 4.477 10 10 10ZM73.333 47.362c-3.255-6.361-10-10.698-16.666-10.698-6.667 0-9.989 1.888-13.417 5" stroke="currentColor" stroke-width="4" stroke-linecap="round" stroke-linejoin="round"/></symbol><symbol viewBox="0 0 25 24" fill="none" id="person-outline" xmlns="http://www.w3.org/2000/svg"><path d="M12.5 4a4 4 0 1 1 0 8 4 4 0 0 1 0-8Zm0 2a2 2 0 1 0 0 4 2 2 0 0 0 0-4Zm0 7c2.67 0 8 1.33 8 4v3h-16v-3c0-2.67 5.33-4 8-4Zm0 1.9c-2.97 0-6.1 1.46-6.1 2.1v1.1h12.2V17c0-.64-3.13-2.1-6.1-2.1Z" fill="currentColor"/></symbol><symbol fill="none" viewBox="0 0 80 80" id="personal-support" xmlns="http://www.w3.org/2000/svg"><path d="M40 60.001a7.5 7.5 0 0 1-7.37-6.1 24.925 24.925 0 0 1-12.37-8.56 25 25 0 1 1 44.62-17.835c.135 1.375-1 2.495-2.38 2.495s-2.485-1.125-2.65-2.495a20 20 0 1 0-26.425 21.39A7.5 7.5 0 1 1 40 60.001Zm-20-7.5v-.135a30.167 30.167 0 0 1-3.74-4.025 7.466 7.466 0 0 0-1.26 4.16v2.5c0 9.855 9.3 20 25 20s25-10.145 25-20v-2.5a7.5 7.5 0 0 0-7.5-7.5H50a12.362 12.362 0 0 1 2.25 5h5.25a2.5 2.5 0 0 1 2.5 2.5v2.5c0 7.19-7.16 15-20 15s-20-7.81-20-15v-2.5Zm20-12.5a12.45 12.45 0 0 0-7.86 2.78A14.944 14.944 0 0 1 25 30.001a15 15 0 1 1 22.86 12.78 12.45 12.45 0 0 0-7.86-2.78Zm-10-10a10 10 0 1 0 20 0 10 10 0 0 0-20 0Z" fill="currentColor"/></symbol><symbol viewBox="0 0 20 20" fill="none" id="phone" xmlns="http://www.w3.org/2000/svg"><path d="m5.882 2.015.972-.292a2.292 2.292 0 0 1 2.752 1.254l.751 1.671a2.292 2.292 0 0 1-.527 2.616L8.584 8.425a.208.208 0 0 0-.065.13c-.037.33.188.974.705 1.87.375.65.716 1.108 1.005 1.364.203.18.313.218.36.204l1.676-.512a2.291 2.291 0 0 1 2.528.85l1.067 1.48a2.292 2.292 0 0 1-.282 3.004l-.739.7a3.124 3.124 0 0 1-2.99.74c-2.294-.64-4.352-2.577-6.195-5.77-1.845-3.196-2.493-5.95-1.895-8.26a3.125 3.125 0 0 1 2.123-2.21Zm.36 1.198a1.875 1.875 0 0 0-1.275 1.325c-.501 1.943.073 4.384 1.77 7.323 1.695 2.935 3.519 4.652 5.45 5.192a1.875 1.875 0 0 0 1.793-.445l.738-.7a1.042 1.042 0 0 0 .129-1.366l-1.067-1.48a1.042 1.042 0 0 0-1.15-.386l-1.68.514c-.974.29-1.858-.494-2.808-2.14-.641-1.108-.94-1.967-.865-2.634.039-.347.2-.667.455-.905l1.245-1.16a1.042 1.042 0 0 0 .24-1.19l-.751-1.672a1.042 1.042 0 0 0-1.251-.57l-.973.294Z" fill="currentColor"/></symbol><symbol viewBox="0 0 21 20" fill="none" id="phone-voice" xmlns="http://www.w3.org/2000/svg"><path d="M15.5 8.125h-1.25a1.877 1.877 0 0 0-1.875-1.875V5A3.129 3.129 0 0 1 15.5 8.125Z" fill="currentColor"/><path d="M18 8.125h-1.25a4.38 4.38 0 0 0-4.375-4.375V2.5A5.631 5.631 0 0 1 18 8.125Zm-1.25 10h-.106C4.362 17.419 2.619 7.056 2.375 3.894A1.875 1.875 0 0 1 4.25 1.875h3.294a1.25 1.25 0 0 1 1.162.788L9.656 5a1.25 1.25 0 0 1-.275 1.35L8.05 7.694a5.85 5.85 0 0 0 4.737 4.75l1.357-1.344a1.25 1.25 0 0 1 1.356-.256l2.356.944a1.25 1.25 0 0 1 .769 1.162v3.3a1.875 1.875 0 0 1-1.875 1.875Zm-12.5-15a.625.625 0 0 0-.625.675c.287 3.7 2.131 12.45 13.087 13.075a.625.625 0 0 0 .662-.586l.001-.039v-3.3l-2.356-.944-1.794 1.781-.3-.037C7.487 13.069 6.75 7.631 6.75 7.575l-.038-.3 1.775-1.794-.937-2.356h-3.3Z" fill="currentColor"/></symbol><symbol viewBox="0 0 32 32" fill="none" id="picture" xmlns="http://www.w3.org/2000/svg"><path d="M21 12.5a1.5 1.5 0 1 1-3 .001 1.5 1.5 0 0 1 3-.001ZM29 7v18a2.002 2.002 0 0 1-2 2H5a2.002 2.002 0 0 1-2-2V7a2.002 2.002 0 0 1 2-2h22a2.002 2.002 0 0 1 2 2Zm-1.999 13.587L27 7H5v11.586L9.586 14a2.002 2.002 0 0 1 2.828 0L18 19.586 20.586 17a2.002 2.002 0 0 1 2.828 0l3.587 3.587Z" fill="currentColor"/></symbol><symbol viewBox="0 0 23 22" fill="none" id="plus" xmlns="http://www.w3.org/2000/svg"><path d="M19.75 11a.687.687 0 0 1-.688.688h-6.875v6.874a.687.687 0 1 1-1.374 0v-6.875H3.936a.687.687 0 1 1 0-1.374h6.876V3.436a.687.687 0 1 1 1.374 0v6.876h6.876a.687.687 0 0 1 .687.687Z" fill="currentColor"/></symbol><symbol fill="none" viewBox="0 0 24 24" id="plus-circle" xmlns="http://www.w3.org/2000/svg"><path d="M12 2.25A9.75 9.75 0 1 0 21.75 12 9.76 9.76 0 0 0 12 2.25Zm0 18A8.25 8.25 0 1 1 20.25 12 8.26 8.26 0 0 1 12 20.25ZM16.5 12a.75.75 0 0 1-.75.75h-3v3a.75.75 0 1 1-1.5 0v-3h-3a.75.75 0 1 1 0-1.5h3v-3a.75.75 0 1 1 1.5 0v3h3a.75.75 0 0 1 .75.75Z" fill="currentColor"/></symbol><symbol viewBox="0 0 24 24" fill="none" id="privacy-tip" xmlns="http://www.w3.org/2000/svg"><path d="M11 17h2v-6h-2v6Zm1-8a.968.968 0 0 0 .713-.288A.964.964 0 0 0 13 8a.965.965 0 0 0-.288-.712A.972.972 0 0 0 12 7a.965.965 0 0 0-.712.288A.973.973 0 0 0 11 8c0 .283.096.521.288.713.192.192.43.288.712.287Zm0 13c-2.317-.583-4.23-1.913-5.738-3.988C4.753 15.937 3.999 13.632 4 11.1V5l8-3 8 3v6.1c0 2.533-.754 4.838-2.262 6.913S14.318 21.417 12 22Z" fill="currentColor"/></symbol><symbol fill="none" viewBox="0 0 52 52" id="processing" xmlns="http://www.w3.org/2000/svg"><path d="M26.292 49.584a23.292 23.292 0 0 1 0-46.584c3.63-.012 7.21.842 10.443 2.492a1.63 1.63 0 0 1 .323 2.688 1.628 1.628 0 0 1-1.796.215 19.5 19.5 0 0 0-8.97-2.167 20.041 20.041 0 1 0 20.041 20.064c.012-.18.012-.362 0-.542a1.632 1.632 0 0 1 3.25-.303v.845a23.313 23.313 0 0 1-23.291 23.291Z" fill="currentColor"/><path fill-rule="evenodd" clip-rule="evenodd" d="M25.392 16c.768 0 1.392.648 1.392 1.446v8.661h5.824c.769 0 1.392.648 1.392 1.447 0 .798-.623 1.446-1.392 1.446H24V17.446c0-.798.623-1.446 1.392-1.446Z" fill="currentColor"/></symbol><symbol fill="none" viewBox="0 0 24 24" id="product-list" xmlns="http://www.w3.org/2000/svg"><path d="M12 11.719v11.238l-.75.375-9.75-4.863V6.28l9.75-4.875L21 6.281V15h-1.5V7.969l-7.5 3.75Zm-.75-8.625L8.426 4.5l7.277 3.68 2.871-1.43-7.324-3.656ZM10.5 21.28V11.72L3 7.969v9.562l7.5 3.75ZM3.926 6.75l7.324 3.656 2.79-1.383-7.29-3.68L3.926 6.75ZM16.5 21v-1.5H24V21h-7.5Zm0-4.5H24V18h-7.5v-1.5Zm-3 7.5v-1.5H15V24h-1.5Zm0-6v-1.5H15V18h-1.5Zm0 3v-1.5H15V21h-1.5Zm3 3v-1.5H24V24h-7.5Z" fill="currentColor"/></symbol><symbol fill="none" viewBox="0 0 80 80" id="qa-chat-box" xmlns="http://www.w3.org/2000/svg"><path d="M70 15h5v50H65v15L50 65H30l5-5h17.07L60 67.93V60h10V15ZM30 55 15 70V55H0V0h65v55H30ZM5 50h15v7.93L27.93 50H60V5H5v45Zm25-5v-5h5v5h-5Zm2.5-30c-.703 0-1.354.13-1.953.39a5.01 5.01 0 0 0-1.563 1.055 5.45 5.45 0 0 0-1.093 1.602A4.237 4.237 0 0 0 27.5 20h-5c0-1.38.26-2.67.781-3.867a10.65 10.65 0 0 1 2.149-3.203 9.347 9.347 0 0 1 3.164-2.149c1.198-.495 2.5-.755 3.906-.781 1.38 0 2.67.26 3.867.781a10.65 10.65 0 0 1 3.203 2.149 9.347 9.347 0 0 1 2.149 3.164c.495 1.198.755 2.5.781 3.906 0 1.198-.182 2.253-.547 3.164a10.662 10.662 0 0 1-1.445 2.54 18.033 18.033 0 0 1-2.031 2.226 62.062 62.062 0 0 0-2.305 2.265c-.521.521-.846 1.068-.977 1.64-.13.574-.208 1.186-.234 1.837v.625c0 .208.013.443.039.703h-5v-1.875c0-1.198.182-2.253.547-3.164.364-.912.82-1.732 1.367-2.461.547-.73 1.159-1.38 1.836-1.953a16.49 16.49 0 0 0 1.797-1.758c.52-.599.99-1.185 1.406-1.758.417-.573.6-1.25.547-2.031 0-.703-.13-1.354-.39-1.953a5.01 5.01 0 0 0-1.055-1.563 5.45 5.45 0 0 0-1.602-1.093A4.237 4.237 0 0 0 32.5 15Z" fill="currentColor"/></symbol><symbol fill="none" viewBox="0 0 53 52" id="question" xmlns="http://www.w3.org/2000/svg"><path d="M28.853 38.235a2.353 2.353 0 1 1-4.706 0 2.353 2.353 0 0 1 4.706 0ZM26.5 13.295c-4.941 0-8.941 3.587-8.941 8v.94a1.412 1.412 0 0 0 2.823 0v-.94c0-2.855 2.744-5.177 6.118-5.177s6.118 2.322 6.118 5.176-2.744 5.177-6.118 5.177a1.412 1.412 0 0 0-1.412 1.411v1.883a1.412 1.412 0 0 0 2.824 0v-.57c4.26-.607 7.53-3.92 7.53-7.9 0-4.413-4-8-8.942-8ZM50.5 26a24 24 0 1 1-24-24 24.028 24.028 0 0 1 24 24Zm-2.824 0A21.176 21.176 0 1 0 26.5 47.176 21.2 21.2 0 0 0 47.676 26Z" fill="currentColor"/></symbol><symbol fill="none" viewBox="0 0 80 80" id="reconciliation-outlined" xmlns="http://www.w3.org/2000/svg"><path d="M52.813 44.14a7.189 7.189 0 0 0 0 14.376 7.189 7.189 0 0 0 0-14.375Zm0 9.844a2.654 2.654 0 0 1-2.657-2.656 2.654 2.654 0 0 1 2.657-2.656 2.654 2.654 0 0 1 2.656 2.656 2.654 2.654 0 0 1-2.657 2.656ZM68.75 13.125H52.187a4.378 4.378 0 0 0-4.374-4.375h-6.25a4.378 4.378 0 0 0-4.376 4.375H20.625a2.497 2.497 0 0 0-2.5 2.5V31.25H11.25a2.497 2.497 0 0 0-2.5 2.5v35c0 1.383 1.117 2.5 2.5 2.5H37.5c1.383 0 2.5-1.117 2.5-2.5V67.5h28.75c1.383 0 2.5-1.117 2.5-2.5V15.625c0-1.383-1.117-2.5-2.5-2.5Zm-32.188 5h5.626V13.75h5v4.375h5.624v3.75h-16.25v-3.75ZM35 66.25H13.75V48.125H35V66.25Zm0-23.125H13.75V36.25H35v6.875Zm30.625 18.75H40V33.75c0-1.383-1.117-2.5-2.5-2.5H23.75v-12.5h7.813v8.125h26.25V18.75h7.812v43.125ZM55 31.875v7.5c0 .344.281.625.625.625h3.75a.627.627 0 0 0 .625-.625v-7.5a.627.627 0 0 0-.625-.625h-3.75a.627.627 0 0 0-.625.625ZM46.25 40H50a.627.627 0 0 0 .625-.625V35a.627.627 0 0 0-.625-.625h-3.75a.627.627 0 0 0-.625.625v4.375c0 .344.281.625.625.625Z" fill="currentColor"/></symbol><symbol fill="none" viewBox="0 0 80 80" id="refund-2-line" xmlns="http://www.w3.org/2000/svg"><path d="M18.923 14.19c13.093-10.73 32.443-9.983 44.666 2.24 13.017 13.017 13.017 34.123 0 47.14-13.016 13.017-34.123 13.017-47.14 0a33.31 33.31 0 0 1-8.926-31.013l.256-1.044 6.447 1.7A26.667 26.667 0 1 0 24.403 18.38l-.734.553 3.39 3.39-15.32 3.534 3.534-15.32 3.65 3.653ZM43.353 20v6.667h8.333v6.666H33.353a1.667 1.667 0 0 0-.3 3.307l.3.027h13.333a8.333 8.333 0 0 1 0 16.666h-3.333V60h-6.667v-6.667h-8.333v-6.666h18.333a1.666 1.666 0 0 0 .3-3.307l-.3-.027H33.353a8.333 8.333 0 0 1 0-16.666h3.333V20h6.667Z" fill="currentColor"/></symbol><symbol fill="none" viewBox="0 0 80 80" id="report" xmlns="http://www.w3.org/2000/svg"><path d="M25 45h20v5H25v-5Zm0-12.5h30v5H25v-5Zm0 25h12.5v5H25v-5Z" fill="#FF549C"/><path d="M62.5 12.5H55V10a5 5 0 0 0-5-5H30a5 5 0 0 0-5 5v2.5h-7.5a5 5 0 0 0-5 5V70a5 5 0 0 0 5 5h45a5 5 0 0 0 5-5V17.5a5 5 0 0 0-5-5ZM30 10h20v10H30V10Zm32.5 60h-45V17.5H25V25h30v-7.5h7.5V70Z" fill="#FF549C"/></symbol><symbol fill="none" viewBox="0 0 80 80" id="sales-ops" xmlns="http://www.w3.org/2000/svg"><path d="M75 15v-5h-7.5V5h-5v5H60c-2.758 0-5 2.245-5 5v5c0 2.758 2.242 5 5 5h10v5H55v5h7.5v5h5v-5H70c2.757 0 5-2.242 5-5v-5c0-2.755-2.243-5-5-5H60v-5h15ZM60 50v5h6.465L57.5 63.965l-5.73-5.733a2.5 2.5 0 0 0-1.765-.732H50a2.493 2.493 0 0 0-1.765.733L35 71.465 38.535 75l11.468-11.465 5.73 5.733a2.5 2.5 0 0 0 3.535 0L70 58.534V65h5V50H60ZM10 75H5V62.5C5 52.85 12.85 45 22.5 45h15a17.52 17.52 0 0 1 13.042 5.833l-3.724 3.334A12.521 12.521 0 0 0 37.5 50h-15C15.607 50 10 55.608 10 62.5V75Zm20-35a17.5 17.5 0 1 0 0-35 17.5 17.5 0 0 0 0 35Zm0-30a12.5 12.5 0 1 1 0 25 12.5 12.5 0 0 1 0-25Z" fill="currentColor"/></symbol><symbol fill="none" viewBox="0 0 80 80" id="scroll" xmlns="http://www.w3.org/2000/svg"><path d="M30 32.5a2.5 2.5 0 0 1 2.5-2.5h20a2.5 2.5 0 0 1 0 5h-20a2.5 2.5 0 0 1-2.5-2.5ZM32.5 45h20a2.5 2.5 0 0 0 0-5h-20a2.5 2.5 0 0 0 0 5Zm40 15a10 10 0 0 1-10 10h-35a10 10 0 0 1-10-10V20a5 5 0 1 0-10 0c0 1.794 1.51 3.006 1.525 3.019A2.5 2.5 0 0 1 7.5 27.5c-.54 0-1.067-.176-1.497-.503C5.641 26.73 2.5 24.253 2.5 20a10 10 0 0 1 10-10H55a10 10 0 0 1 10 10v32.5h2.5a2.5 2.5 0 0 1 1.5.5c.375.269 3.5 2.747 3.5 7Zm-42.419-5.788A2.522 2.522 0 0 1 32.5 52.5H60V20a5 5 0 0 0-5-5H21.153a9.91 9.91 0 0 1 1.347 5v40a5 5 0 1 0 10 0c0-1.794-1.51-3.006-1.525-3.019a2.443 2.443 0 0 1-.894-2.769ZM67.5 60a3.93 3.93 0 0 0-1.01-2.5H37.117c.25.81.378 1.652.378 2.5a9.945 9.945 0 0 1-1.34 5H62.5a5 5 0 0 0 5-5Z" fill="currentColor"/></symbol><symbol viewBox="0 0 24 24" fill="none" id="search" xmlns="http://www.w3.org/2000/svg"><path d="M10.875 18.75a7.875 7.875 0 1 0 0-15.75 7.875 7.875 0 0 0 0 15.75ZM16.443 16.443 21 21" stroke="currentColor" stroke-width="1.48" stroke-linecap="round" stroke-linejoin="round"/></symbol><symbol viewBox="0 0 24 24" fill="none" id="shield-warning" xmlns="http://www.w3.org/2000/svg"><path d="M19.5 3.75h-15A1.5 1.5 0 0 0 3 5.25v5.51c0 8.402 7.108 11.188 8.531 11.66.304.104.634.104.938 0C13.894 21.947 21 19.16 21 10.76V5.25a1.5 1.5 0 0 0-1.5-1.5Zm0 7.012c0 7.351-6.22 9.808-7.5 10.235-1.268-.422-7.5-2.876-7.5-10.235V5.25h15v5.512Zm-8.25 1.988V9a.75.75 0 1 1 1.5 0v3.75a.75.75 0 1 1-1.5 0Zm-.375 3.375a1.125 1.125 0 1 1 2.25 0 1.125 1.125 0 0 1-2.25 0Z" fill="currentColor"/></symbol><symbol fill="none" viewBox="0 0 24 24" id="sign-out" xmlns="http://www.w3.org/2000/svg"><path d="M10.5 20.25a.75.75 0 0 1-.75.75H4.5A1.5 1.5 0 0 1 3 19.5v-15A1.5 1.5 0 0 1 4.5 3h5.25a.75.75 0 1 1 0 1.5H4.5v15h5.25a.75.75 0 0 1 .75.75Zm10.28-8.78-3.75-3.75a.75.75 0 0 0-1.28.53v3h-6a.75.75 0 1 0 0 1.5h6v3a.75.75 0 0 0 1.28.53l3.75-3.75a.747.747 0 0 0 0-1.06Z" fill="currentColor"/></symbol><symbol fill="none" viewBox="0 0 80 80" id="square-four" xmlns="http://www.w3.org/2000/svg"><path d="M32.5 12.5h-15a5 5 0 0 0-5 5v15a5 5 0 0 0 5 5h15a5 5 0 0 0 5-5v-15a5 5 0 0 0-5-5Zm0 20h-15v-15h15v15Zm30-20h-15a5 5 0 0 0-5 5v15a5 5 0 0 0 5 5h15a5 5 0 0 0 5-5v-15a5 5 0 0 0-5-5Zm0 20h-15v-15h15v15Zm-30 10h-15a5 5 0 0 0-5 5v15a5 5 0 0 0 5 5h15a5 5 0 0 0 5-5v-15a5 5 0 0 0-5-5Zm0 20h-15v-15h15v15Zm30-20h-15a5 5 0 0 0-5 5v15a5 5 0 0 0 5 5h15a5 5 0 0 0 5-5v-15a5 5 0 0 0-5-5Zm0 20h-15v-15h15v15Z" fill="currentColor"/></symbol><symbol fill="none" viewBox="0 0 24 24" id="star" xmlns="http://www.w3.org/2000/svg"><path d="m12.412 17.878 4.725 3c.61.384 1.36-.187 1.182-.89l-1.369-5.382a.816.816 0 0 1 .272-.825l4.237-3.534c.553-.46.272-1.388-.45-1.434l-5.53-.357a.778.778 0 0 1-.685-.506L12.73 2.756a.778.778 0 0 0-1.462 0L9.206 7.95a.778.778 0 0 1-.684.506l-5.531.357c-.722.046-1.004.975-.45 1.434l4.237 3.534a.815.815 0 0 1 .272.825l-1.266 4.988c-.215.843.685 1.528 1.407 1.069l4.397-2.785a.769.769 0 0 1 .825 0Z" fill="currentColor"/></symbol><symbol fill="none" viewBox="0 0 24 24" id="store-front" xmlns="http://www.w3.org/2000/svg"><path d="m21.72 8.795-1.343-4.707A1.507 1.507 0 0 0 18.937 3H5.063a1.507 1.507 0 0 0-1.439 1.088L2.28 8.794A.744.744 0 0 0 2.25 9v1.5a3.75 3.75 0 0 0 1.5 3v6.75a.75.75 0 0 0 .75.75h15a.75.75 0 0 0 .75-.75V13.5a3.75 3.75 0 0 0 1.5-3V9c0-.07-.01-.139-.03-.205ZM8.25 10.5a2.25 2.25 0 0 1-3.293 1.993.741.741 0 0 0-.17-.1A2.25 2.25 0 0 1 3.75 10.5v-.75h4.5v.75Zm6 0a2.25 2.25 0 0 1-4.5 0v-.75h4.5v.75Zm6 0a2.25 2.25 0 0 1-1.038 1.894.757.757 0 0 0-.169.098A2.25 2.25 0 0 1 15.75 10.5v-.75h4.5v.75Z" fill="currentColor"/></symbol><symbol fill="none" viewBox="0 0 24 24" id="swap" xmlns="http://www.w3.org/2000/svg"><path d="M21 4.5v9.75a1.5 1.5 0 0 1-1.5 1.5H9.31l.97.97a.75.75 0 1 1-1.06 1.06l-2.25-2.25a.749.749 0 0 1 0-1.06l2.25-2.25a.75.75 0 1 1 1.06 1.06l-.97.97H19.5V4.5H9v.75a.75.75 0 0 1-1.5 0V4.5A1.5 1.5 0 0 1 9 3h10.5A1.5 1.5 0 0 1 21 4.5ZM15.75 18a.75.75 0 0 0-.75.75v.75H4.5V9.75h10.19l-.97.97a.75.75 0 1 0 1.06 1.06l2.25-2.25a.748.748 0 0 0 0-1.06l-2.25-2.25a.75.75 0 1 0-1.06 1.06l.97.97H4.5A1.5 1.5 0 0 0 3 9.75v9.75A1.5 1.5 0 0 0 4.5 21H15a1.5 1.5 0 0 0 1.5-1.5v-.75a.75.75 0 0 0-.75-.75Z" fill="currentColor"/></symbol><symbol fill="none" viewBox="0 0 24 24" id="test-tube" xmlns="http://www.w3.org/2000/svg"><path d="M22.281 8.095 16.656 2.47a.75.75 0 0 0-1.061 0L3.479 14.585a4.197 4.197 0 1 0 5.937 5.936l10.49-10.49 2.082-.693a.75.75 0 0 0 .293-1.242v-.001ZM8.354 19.46a2.697 2.697 0 0 1-3.813-3.814l2.7-2.7c.794-.271 2.039-.374 3.662.47.994.519 1.892.75 2.678.818L8.354 19.46Zm10.91-10.796a.75.75 0 0 0-.294.181l-3.71 3.71c-.794.271-2.039.375-3.663-.47-.993-.519-1.892-.75-2.677-.818l7.205-7.206 4.237 4.236-1.099.367Z" fill="currentColor"/></symbol><symbol viewBox="0 0 28 28" fill="none" id="three-line-horizontal" xmlns="http://www.w3.org/2000/svg"><path d="M5.833 7h16.334M5.833 14h16.334M5.833 21h16.334" stroke="currentColor" stroke-width="2" stroke-linecap="round"/></symbol><symbol viewBox="0 0 21 20" fill="none" id="trash" xmlns="http://www.w3.org/2000/svg"><path d="M17.375 3.75H14.25v-.625a1.875 1.875 0 0 0-1.875-1.875h-3.75A1.875 1.875 0 0 0 6.75 3.125v.625H3.625a.625.625 0 0 0 0 1.25h.625v11.25A1.25 1.25 0 0 0 5.5 17.5h10a1.25 1.25 0 0 0 1.25-1.25V5h.625a.625.625 0 1 0 0-1.25ZM8 3.125a.625.625 0 0 1 .625-.625h3.75a.625.625 0 0 1 .625.625v.625H8v-.625Zm7.5 13.125h-10V5h10v11.25ZM9.25 8.125v5a.625.625 0 1 1-1.25 0v-5a.625.625 0 0 1 1.25 0Zm3.75 0v5a.624.624 0 1 1-1.25 0v-5a.625.625 0 1 1 1.25 0Z" fill="currentColor"/></symbol><symbol fill="none" viewBox="0 0 24 24" id="truck" xmlns="http://www.w3.org/2000/svg"><path d="m23.196 10.969-1.313-3.281a1.493 1.493 0 0 0-1.391-.938H17.25V6a.75.75 0 0 0-.75-.75H2.25a1.5 1.5 0 0 0-1.5 1.5v10.5a1.5 1.5 0 0 0 1.5 1.5h1.594a3 3 0 0 0 5.812 0h4.688a3 3 0 0 0 5.812 0h1.594a1.5 1.5 0 0 0 1.5-1.5v-6a.742.742 0 0 0-.054-.281ZM17.25 8.25h3.242l.9 2.25H17.25V8.25Zm-15-1.5h13.5v6H2.25v-6Zm4.5 12.75a1.5 1.5 0 1 1 0-3 1.5 1.5 0 0 1 0 3Zm7.594-2.25H9.656a3 3 0 0 0-5.812 0H2.25v-3h13.5v1.154a3.008 3.008 0 0 0-1.406 1.846Zm2.906 2.25a1.5 1.5 0 1 1 0-3 1.5 1.5 0 0 1 0 3Zm4.5-2.25h-1.594A3.007 3.007 0 0 0 17.25 15v-3h4.5v5.25Z" fill="currentColor"/></symbol><symbol viewBox="0 0 41 40" fill="none" id="upload" xmlns="http://www.w3.org/2000/svg"><path d="M38 21.25v10a2.5 2.5 0 0 1-2.5 2.5h-30a2.5 2.5 0 0 1-2.5-2.5v-10a2.5 2.5 0 0 1 2.5-2.5H13a1.25 1.25 0 0 1 0 2.5H5.5v10h30v-10H28a1.25 1.25 0 0 1 0-2.5h7.5a2.5 2.5 0 0 1 2.5 2.5Zm-24.116-9.116 5.366-5.367V20a1.25 1.25 0 0 0 2.5 0V6.767l5.366 5.367a1.251 1.251 0 0 0 1.768-1.768l-7.5-7.5a1.25 1.25 0 0 0-1.768 0l-7.5 7.5a1.251 1.251 0 0 0 1.768 1.768ZM31.75 26.25a1.875 1.875 0 1 0-3.751 0 1.875 1.875 0 0 0 3.751 0Z" fill="currentColor"/></symbol><symbol fill="none" viewBox="0 0 80 80" id="user" xmlns="http://www.w3.org/2000/svg"><path d="M40 12.5c-9.637 0-17.5 7.863-17.5 17.5 0 6.025 3.075 11.375 7.735 14.532C21.317 48.358 15 57.209 15 67.5h5c0-11.075 8.925-20 20-20s20 8.925 20 20h5c0-10.292-6.318-19.14-15.235-22.97A17.56 17.56 0 0 0 57.5 30c0-9.637-7.862-17.5-17.5-17.5Zm0 5c6.932 0 12.5 5.567 12.5 12.5 0 6.932-5.568 12.5-12.5 12.5S27.5 36.932 27.5 30c0-6.933 5.568-12.5 12.5-12.5Z" fill="currentColor"/></symbol><symbol fill="none" viewBox="0 0 24 24" id="users-three" xmlns="http://www.w3.org/2000/svg"><path d="M22.95 14.1a.75.75 0 0 1-1.05-.15A4.838 4.838 0 0 0 18 12a.75.75 0 1 1 0-1.5 2.25 2.25 0 1 0-2.178-2.813.75.75 0 1 1-1.454-.375 3.75 3.75 0 1 1 6.164 3.704 6.368 6.368 0 0 1 2.571 2.032.749.749 0 0 1-.153 1.051ZM17.9 19.873a.751.751 0 1 1-1.297.75 5.344 5.344 0 0 0-9.203 0 .75.75 0 1 1-1.297-.75 6.756 6.756 0 0 1 3.163-2.805 4.5 4.5 0 1 1 5.47 0 6.756 6.756 0 0 1 3.164 2.805ZM12 16.5a3 3 0 1 0 0-6 3 3 0 0 0 0 6Zm-5.25-5.25A.75.75 0 0 0 6 10.5 2.25 2.25 0 1 1 8.18 7.687a.75.75 0 1 0 1.453-.375 3.75 3.75 0 1 0-6.163 3.704A6.368 6.368 0 0 0 .9 13.048a.75.75 0 1 0 1.2.901A4.838 4.838 0 0 1 6 12a.75.75 0 0 0 .75-.75Z" fill="currentColor"/></symbol><symbol viewBox="0 0 24 24" fill="none" id="view-card" xmlns="http://www.w3.org/2000/svg"><path d="M18.437 11H5.565a2.5 2.5 0 0 1-2.5-2.5V5.564a2.5 2.5 0 0 1 2.5-2.5h12.872a2.5 2.5 0 0 1 2.5 2.5V8.5a2.5 2.5 0 0 1-2.5 2.5ZM5.565 4.064a1.5 1.5 0 0 0-1.5 1.5V8.5a1.5 1.5 0 0 0 1.5 1.5h12.872a1.5 1.5 0 0 0 1.5-1.5V5.564a1.5 1.5 0 0 0-1.5-1.5H5.565Zm12.872 16.872H5.565a2.5 2.5 0 0 1-2.5-2.5V15.5a2.5 2.5 0 0 1 2.5-2.5h12.872a2.5 2.5 0 0 1 2.5 2.5v2.934a2.5 2.5 0 0 1-2.5 2.502ZM5.565 14a1.5 1.5 0 0 0-1.5 1.5v2.934a1.5 1.5 0 0 0 1.5 1.5h12.872a1.5 1.5 0 0 0 1.5-1.5V15.5a1.5 1.5 0 0 0-1.5-1.5H5.565Z" fill="currentColor"/></symbol><symbol viewBox="0 0 24 24" id="view-table" xmlns="http://www.w3.org/2000/svg"><path fill="currentColor" d="M18.44 3.06H5.56a2.507 2.507 0 0 0-2.5 2.5v12.88a2.507 2.507 0 0 0 2.5 2.5h12.88a2.514 2.514 0 0 0 2.5-2.5V5.56a2.514 2.514 0 0 0-2.5-2.5ZM8.71 19.94H5.56a1.5 1.5 0 0 1-1.5-1.5v-3.11h4.65Zm0-5.61H4.06V9.67h4.65Zm0-5.66H4.06V5.56a1.5 1.5 0 0 1 1.5-1.5h3.15Zm11.23 9.77a1.511 1.511 0 0 1-1.5 1.5H9.71v-4.61h10.23Zm0-4.11H9.71V9.67h10.23Zm0-5.66H9.71V4.06h8.73a1.511 1.511 0 0 1 1.5 1.5Z"/></symbol><symbol fill="none" viewBox="0 0 52 52" id="warning" xmlns="http://www.w3.org/2000/svg"><path d="M51.454 40.34 30.782 4.695a5.358 5.358 0 0 0-1.965-1.928 5.406 5.406 0 0 0-5.34 0 5.359 5.359 0 0 0-1.965 1.928L.841 40.339a5.026 5.026 0 0 0 0 5.098 5.265 5.265 0 0 0 1.96 1.937c.815.462 1.739.7 2.677.689h41.338c.938.01 1.86-.228 2.675-.69a5.265 5.265 0 0 0 1.958-1.936 5.027 5.027 0 0 0 .005-5.098Zm-2.46 3.686c-.222.377-.54.69-.922.904a2.486 2.486 0 0 1-1.256.317H5.478a2.486 2.486 0 0 1-1.255-.317 2.464 2.464 0 0 1-.922-.904 2.22 2.22 0 0 1 0-2.281l20.67-35.643c.225-.373.545-.681.926-.895a2.555 2.555 0 0 1 3.427.895l20.671 35.643a2.219 2.219 0 0 1-.002 2.281Zm-24.265-14.27V20.37c0-.374.15-.732.416-.996a1.423 1.423 0 0 1 2.005 0c.266.264.415.622.415.996v9.388c0 .373-.149.731-.415.995a1.423 1.423 0 0 1-2.005 0 1.403 1.403 0 0 1-.416-.995Zm3.782 8.45c0 .464-.139.918-.399 1.304a2.36 2.36 0 0 1-1.06.864 2.38 2.38 0 0 1-2.576-.509 2.342 2.342 0 0 1-.512-2.557 2.35 2.35 0 0 1 .87-1.054 2.376 2.376 0 0 1 2.985.292c.443.44.692 1.037.692 1.66Z" fill="currentColor"/></symbol><symbol fill="none" viewBox="0 0 52 52" id="x-circle" xmlns="http://www.w3.org/2000/svg"><path d="M34.882 19.196 28.078 26l6.804 6.804a1.472 1.472 0 1 1-2.078 2.078L26 28.078l-6.804 6.804a1.47 1.47 0 0 1-2.078-2.078L23.922 26l-6.804-6.804a1.47 1.47 0 0 1 2.078-2.078L26 23.922l6.804-6.804a1.471 1.471 0 0 1 2.078 2.078ZM51 26A25 25 0 1 1 26 1a25.03 25.03 0 0 1 25 25Zm-2.941 0A22.058 22.058 0 1 0 26 48.059 22.083 22.083 0 0 0 48.059 26Z" fill="currentColor"/></symbol><symbol viewBox="0 0 24 24" fill="none" id="x-close" xmlns="http://www.w3.org/2000/svg"><path d="M19.28 18.22a.75.75 0 0 1-1.06 1.06L12 13.06l-6.22 6.22a.75.75 0 0 1-1.06-1.06L10.94 12 4.72 5.78a.75.75 0 1 1 1.06-1.06L12 10.94l6.22-6.22a.75.75 0 0 1 1.06 1.06L13.06 12l6.22 6.22Z" fill="currentColor"/></symbol><symbol viewBox="0 0 24 24" fill="none" id="youtube" xmlns="http://www.w3.org/2000/svg"><path d="M21.968 6.518A2.25 2.25 0 0 0 20.61 4.98C17.396 3.739 12.281 3.75 12 3.75c-.281 0-5.396-.011-8.61 1.23a2.25 2.25 0 0 0-1.358 1.537C1.789 7.454 1.5 9.163 1.5 12c0 2.837.289 4.547.532 5.483A2.25 2.25 0 0 0 3.39 19.02c3.079 1.188 7.897 1.229 8.548 1.229h.124c.65 0 5.472-.041 8.548-1.23a2.25 2.25 0 0 0 1.358-1.537c.243-.938.532-2.646.532-5.483 0-2.837-.289-4.547-.532-5.482Zm-6.76 5.794-4.5 3a.375.375 0 0 1-.583-.312V9a.376.376 0 0 1 .583-.312l4.5 3a.375.375 0 0 1 0 .624Z" fill="currentColor"/></symbol></svg>