<?xml version="1.0" encoding="utf-8"?>
<svg xmlns="http://www.w3.org/2000/svg"><symbol viewBox="0 0 104 104" fill="none" id="contract-line" xmlns="http://www.w3.org/2000/svg"><path d="M23.111 23.689h46.222v4.622H23.111V23.69Zm0 23.111h23.36v4.622H23.11V46.8Zm44.425-11.555H23.112v4.622h39.806l4.62-4.622Zm-30.578 48.74a7.136 7.136 0 0 0 6.34 2.381h22.543a2.022 2.022 0 0 0 0-4.044H43.299c-2.632-.046-2.164-2.332-1.794-3.04.482-.83.857-1.718 1.118-2.643a3.418 3.418 0 0 0-1.78-3.819 5.486 5.486 0 0 0-6.471 1.494c-.994 1.025-2.375 2.594-3.698 4.12.818-3.204 1.878-7.315 2.918-11.325a3.799 3.799 0 0 0-2.181-4.697 4.116 4.116 0 0 0-5.128 2.29c-1.248 2.401-11.128 18.957-11.226 19.125a2.023 2.023 0 0 0 3.472 2.074c.37-.62 8.257-13.832 10.744-18.243-1.872 7.222-3.934 15.259-4.056 15.981a2.511 2.511 0 0 0 1.176 2.8 2.658 2.658 0 0 0 3.195-.648c.364-.329 1.046-1.112 2.765-3.108a179.378 179.378 0 0 1 4.92-5.55c.63-.664 1.01-.37.64.284a6.619 6.619 0 0 0-1.359 3.156 6.617 6.617 0 0 0 .404 3.413Z" fill="#79028C"/><path d="M80.889 62.675v29.77H11.556v-80.89h69.333V25.98l3.842-3.842a12.431 12.431 0 0 1 1.936-1.56V8.667a2.889 2.889 0 0 0-2.89-2.89H8.668a2.889 2.889 0 0 0-2.89 2.89v86.666a2.889 2.889 0 0 0 2.89 2.89h75.11a2.889 2.889 0 0 0 2.89-2.89V61.9a8.407 8.407 0 0 1-5.778.775Z" fill="#79028C"/><path d="m98.592 34.265-1.51-1.51a5.483 5.483 0 0 0-.319-7 5.65 5.65 0 0 0-7.944.467L52.635 62.4l-2.417 9.077a.675.675 0 0 0 .855.85l9.045-2.448 33.777-33.777 1.427 1.43a1.072 1.072 0 0 1 0 1.517L81.117 53.254a2.31 2.31 0 1 0 3.27 3.267l14.205-14.205a5.697 5.697 0 0 0 0-8.054v.003Z" fill="#79028C"/></symbol><symbol viewBox="0 0 104 104" fill="none" id="eos-icons-product" xmlns="http://www.w3.org/2000/svg"><path d="M30.333 8.666H13A4.333 4.333 0 0 0 8.667 13v78A4.334 4.334 0 0 0 13 95.333h17.333A4.334 4.334 0 0 0 34.667 91V13a4.334 4.334 0 0 0-4.334-4.334ZM21.667 91a8.667 8.667 0 1 1 0-17.334 8.667 8.667 0 0 1 0 17.334Zm8.666-39H13V13h17.333v39ZM26 82.333a4.333 4.333 0 1 1-8.667 0 4.333 4.333 0 0 1 8.667 0ZM60.667 8.667H43.333A4.334 4.334 0 0 0 39 13v78a4.334 4.334 0 0 0 4.333 4.333h17.334A4.333 4.333 0 0 0 65 91V13a4.333 4.333 0 0 0-4.333-4.334ZM52 91a8.666 8.666 0 1 1 0-17.333A8.666 8.666 0 0 1 52 91Zm8.667-39H43.333V13h17.334v39Zm-4.334 30.333a4.334 4.334 0 1 1-8.668 0 4.334 4.334 0 0 1 8.668 0ZM91 8.667H73.667A4.333 4.333 0 0 0 69.333 13v78a4.333 4.333 0 0 0 4.334 4.333H91A4.334 4.334 0 0 0 95.333 91V13A4.334 4.334 0 0 0 91 8.666ZM82.333 91a8.667 8.667 0 1 1 0-17.334 8.667 8.667 0 0 1 0 17.334ZM91 52H73.667V13H91v39Zm-4.333 30.333a4.333 4.333 0 1 1-8.667 0 4.333 4.333 0 0 1 8.667 0Z" fill="#11A1E1"/></symbol><symbol fill="none" viewBox="0 0 32 32" id="file-pdf" xmlns="http://www.w3.org/2000/svg"><path d="M4.604 30.146 1.6 27.19h3.004v2.956ZM27.396 30.146 30.4 27.19h-3.004v2.956Z" fill="#A43037"/><path d="M27.396 4.729h-4.793V.005l4.793 4.724Z" fill="#B1B1B1"/><path d="M22.625 0H5.558a.947.947 0 0 0-.954.941V31.06c0 .52.427.941.954.941h20.885a.947.947 0 0 0 .953-.941V4.706h-4.798L22.625 0Z" fill="#F0F0F0"/><path d="M2.2 16.55h27.595c.33 0 .6.266.6.592V27.19H1.6V17.14c0-.325.269-.59.6-.59Z" fill="#C94C4F"/><path d="M11.003 22.54v1.696H9.817v-4.833h1.921c.583 0 1.027.143 1.332.427.305.285.458.67.458 1.152 0 .301-.068.568-.205.803-.136.235-.338.42-.607.554-.268.134-.594.201-.978.201h-.735Zm1.318-1.558c0-.424-.238-.636-.714-.636h-.604v1.258h.604c.476 0 .714-.207.714-.622ZM18.213 23.071a2.148 2.148 0 0 1-.888.858c-.386.205-.84.308-1.363.308H14.11v-4.833h1.852c.527 0 .982.1 1.366.301.384.2.679.483.885.848.205.364.308.783.308 1.257 0 .474-.103.895-.308 1.262Zm-1.277-.242c.257-.242.386-.581.386-1.019 0-.437-.129-.777-.386-1.018-.256-.241-.616-.362-1.078-.362h-.562v2.761h.562c.462 0 .822-.12 1.078-.362ZM22.39 19.403v.93h-2.01v1.06h1.553v.888H20.38v1.955h-1.186v-4.833h3.197Z" fill="#fff"/><path d="M11.38 14.683c-.424 0-.748-.166-.956-.4-.446-.502-.36-1.3.203-1.897.47-.497 1.852-1.042 3.443-1.508a55.22 55.22 0 0 0 1.186-3.502 9.995 9.995 0 0 1-.753-3.39c-.059-1.202.55-1.885 1.183-1.939.49-.041 1.043.308 1.154 1.186.052.414.007.863-.132 1.335l-.195.674c-.201.695-.407 1.396-.616 2.084a9.014 9.014 0 0 0 1.85 2.684c.96-.174 1.798-.277 2.291-.274 1.36.008 1.87.579 2.054.92.213.394.192.866-.054 1.23-.262.389-.728.592-1.252.544-.752-.07-2.036-.657-3.25-1.784-.958.185-2.024.436-3.015.715-.546 1.366-1.089 2.382-1.6 2.739-.602.42-1.12.583-1.541.583Zm2.41-3.106c-1.304.403-2.374.841-2.724 1.212-.396.42-.396.874-.19 1.106.23.259.813.341 1.699-.278.369-.258.792-1.036 1.214-2.04Zm4.5-1.066c.986.833 1.966 1.276 2.551 1.33.307.031.558-.075.698-.282a.596.596 0 0 0 .023-.626c-.205-.381-.762-.601-1.527-.606-.409-.004-1.03.066-1.745.184Zm-2.656-2.338c-.28.887-.565 1.737-.85 2.506a38.514 38.514 0 0 1 2.255-.532 9.455 9.455 0 0 1-1.405-1.974Zm.132-5.538a.32.32 0 0 0-.03.001c-.288.025-.677.451-.634 1.321.045.896.204 1.715.444 2.459.154-.519.286-.977.39-1.335l.196-.678c.116-.394.154-.763.112-1.096-.052-.413-.238-.672-.479-.672Z" fill="#C94C4F"/></symbol><symbol viewBox="0 0 104 104" fill="none" id="outline-discount" xmlns="http://www.w3.org/2000/svg"><path d="M55.423 91 13 48.577v8.666a8.52 8.52 0 0 0 2.557 6.11L49.313 97.11c3.38 3.38 8.884 3.38 12.264 0l26.91-26.91c3.38-3.38 3.38-8.883 0-12.263L55.423 91Z" fill="#4A8CEF"/><path d="M49.313 75.443A8.637 8.637 0 0 0 55.423 78c2.21 0 4.42-.867 6.11-2.557l26.91-26.91c3.38-3.38 3.38-8.883 0-12.263L54.687 2.513A8.658 8.658 0 0 0 48.577 0h-26.91C16.9 0 13 3.9 13 8.667v26.91a8.52 8.52 0 0 0 2.557 6.11l33.756 33.756ZM21.667 8.667h26.91l33.756 33.756-26.91 26.91-33.756-33.756V8.667Z" fill="#4A8CEF"/><path d="M31.417 23.833a5.417 5.417 0 1 0 0-10.833 5.417 5.417 0 0 0 0 10.833Z" fill="#4A8CEF"/></symbol><symbol viewBox="0 0 104 104" fill="none" id="people-audience" xmlns="http://www.w3.org/2000/svg"><path d="M63.934 43.333a7.586 7.586 0 0 1 7.583 7.584V65H71.5v1.083a3.25 3.25 0 1 1-6.5 0v-9.75h.017v-5.416a1.083 1.083 0 0 0-1.083-1.084H40.092a1.083 1.083 0 0 0-1.083 1.084V65H39v1.083a3.25 3.25 0 1 1-6.5 0v-9.75h.009v-5.416a7.583 7.583 0 0 1 7.583-7.584h23.842Zm24.9 7.584v15.166a3.25 3.25 0 1 0 6.5 0V50.917a7.583 7.583 0 0 0-7.584-7.584H73.125a11.845 11.845 0 0 1 2.678 6.5H87.75a1.083 1.083 0 0 1 1.083 1.084ZM8.666 66.083a3.25 3.25 0 1 0 6.5 0V50.917a1.083 1.083 0 0 1 1.083-1.084h11.973a11.865 11.865 0 0 1 2.678-6.5H16.25a7.583 7.583 0 0 0-7.583 7.584v15.166ZM52 13a13 13 0 1 1 0 26 13 13 0 0 1 0-26Zm0 6.5a6.5 6.5 0 1 0 0 13 6.5 6.5 0 0 0 0-13Zm28.167-2.167a10.833 10.833 0 1 1 0 21.667 10.833 10.833 0 0 1 0-21.667Zm0 6.5a4.334 4.334 0 1 0 0 8.668 4.334 4.334 0 0 0 0-8.668Zm-56.334-6.5a10.834 10.834 0 1 1 0 21.668 10.834 10.834 0 0 1 0-21.668Zm0 6.5a4.334 4.334 0 1 0 0 8.668 4.334 4.334 0 0 0 0-8.668ZM11.917 73.667a3.25 3.25 0 0 0-3.25 3.25v2.166a16.25 16.25 0 0 0 16.25 16.25h54.166a16.25 16.25 0 0 0 16.25-16.25v-2.166a3.25 3.25 0 0 0-3.25-3.25H11.917Zm13 15.166a9.75 9.75 0 0 1-9.69-8.666h73.546a9.75 9.75 0 0 1-9.69 8.666H24.917Z" fill="#BF1006"/></symbol><symbol fill="none" viewBox="0 0 44 44" id="person" xmlns="http://www.w3.org/2000/svg"><rect height="44" rx="22" width="44"/><path d="M10.389 37.252v-2.444c0-3.052 3.06-5.5 6.111-5.5 3.667 3.055 7.333 3.055 11 0 3.052 0 6.111 2.448 6.111 5.5v2.444" fill="#92D3F5"/><path d="M15.239 18.919c0 5.5 3.017 8.555 6.722 8.555 3.628 0 6.761-3.055 6.761-8.555 0-1.834-.61-2.445-.61-2.445a46.96 46.96 0 0 0-4.279-3.666c-2.444 1.833-4.277 2.444-7.944 3.055 0 0-.65 0-.65 3.056Z" fill="#FCEA2B"/><path d="M28.572 17.563c.122-1.324-6.034-6.353-4.833-5.028 1.202 1.325-6.156 2.502-7.75 3.703-1.595 1.202-.1 7.57-.1 7.57-2.444 0-2.444-3.667-2.444-7.944 0-4.278 2.444-8.556 8.555-8.556s8.556 4.278 8.556 8.556c0 4.277 0 7.944-2.445 7.944.25-.06.338-4.92.46-6.245Z" fill="#F1B31C"/><path d="M15.889 23.808c-2.444 0-2.444-3.667-2.444-7.945 0-4.278 2.444-8.555 8.555-8.555s8.556 4.277 8.556 8.555 0 7.945-2.445 7.945M10.39 36.64v-1.833c0-3.052 3.06-5.5 6.111-5.5 3.667 3.055 7.333 3.055 11 0 3.052 0 6.111 2.448 6.111 5.5v1.833" stroke="#000" stroke-linecap="round" stroke-linejoin="round" stroke-width="2"/><path d="M25.667 18.919c0 .675-.547.611-1.223.611-.675 0-1.222.064-1.222-.611.046-.469.264-.904.611-1.222.676 0 1.834.547 1.834 1.222Zm-4.89 0c0 .675-.546.611-1.221.611-.676 0-1.223.064-1.223-.611 0-.611 1.236-1.222 1.911-1.222.313.334.502.765.534 1.222Z" fill="#000"/><path d="M23.222 23.655a1.86 1.86 0 0 0-2.444 0" stroke="#000" stroke-linecap="round" stroke-linejoin="round" stroke-width="2"/><path d="M15.239 18.919c0 5.5 3.017 8.555 6.722 8.555 3.628 0 6.761-3.055 6.761-8.555 0-1.834-.61-2.445-.61-2.445a46.96 46.96 0 0 0-4.279-3.666c-2.444 1.833-5.5 3.055-7.944 3.055 0 0-.65 0-.65 3.056Z" stroke="#000" stroke-linejoin="round" stroke-width="2"/></symbol><symbol viewBox="0 0 104 104" fill="none" id="sales-performance" xmlns="http://www.w3.org/2000/svg"><path d="M82.333 28.167c-7.15 0-13-1.95-13-4.334v4.334c0 2.383 5.85 4.333 13 4.333s13-1.95 13-4.333v-4.334c0 2.384-5.85 4.334-13 4.334Z" fill="#FFA000"/><path d="M82.333 21.667c-7.15 0-13-1.95-13-4.334v4.334c0 2.383 5.85 4.333 13 4.333s13-1.95 13-4.333v-4.334c0 2.384-5.85 4.334-13 4.334Zm0 13c-7.15 0-13-1.95-13-4.334v4.334c0 2.383 5.85 4.333 13 4.333s13-1.95 13-4.333v-4.334c0 2.384-5.85 4.334-13 4.334Z" fill="#FFA000"/><path d="M82.333 41.167c-7.15 0-13-1.95-13-4.334v4.334c0 2.383 5.85 4.333 13 4.333s13-1.95 13-4.333v-4.334c0 2.384-5.85 4.334-13 4.334Z" fill="#FFA000"/><path d="M82.333 47.667c-7.15 0-13-1.95-13-4.334v4.334c0 2.383 5.85 4.333 13 4.333s13-1.95 13-4.333v-4.334c0 2.384-5.85 4.334-13 4.334Z" fill="#FFA000"/><path d="M82.333 54.167c-7.15 0-13-1.95-13-4.334v4.334c0 2.383 5.85 4.333 13 4.333s13-1.95 13-4.333v-4.334c0 2.384-5.85 4.334-13 4.334Z" fill="#FFA000"/><path d="M82.333 60.667c-7.15 0-13-1.95-13-4.334v4.334c0 2.383 5.85 4.333 13 4.333s13-1.95 13-4.333v-4.334c0 2.384-5.85 4.334-13 4.334Z" fill="#FFA000"/><path d="M82.333 67.167c-7.15 0-13-1.95-13-4.334v4.334c0 2.383 5.85 4.333 13 4.333s13-1.95 13-4.333v-4.334c0 2.384-5.85 4.334-13 4.334Z" fill="#FFA000"/><path d="M82.333 73.667c-7.15 0-13-1.95-13-4.334v4.334c0 2.383 5.85 4.333 13 4.333s13-1.95 13-4.333v-4.334c0 2.384-5.85 4.334-13 4.334Z" fill="#FFA000"/><path d="M82.333 80.167c-7.15 0-13-1.95-13-4.334v4.334c0 2.383 5.85 4.333 13 4.333s13-1.95 13-4.333v-4.334c0 2.384-5.85 4.334-13 4.334Z" fill="#FFA000"/><path d="M82.333 86.667c-7.15 0-13-1.95-13-4.334v4.334c0 2.383 5.85 4.333 13 4.333s13-1.95 13-4.333v-4.334c0 2.384-5.85 4.334-13 4.334Z" fill="#FFA000"/><path d="M82.333 21.667c7.18 0 13-1.94 13-4.334 0-2.393-5.82-4.333-13-4.333s-13 1.94-13 4.333c0 2.394 5.82 4.334 13 4.334ZM82.333 26c-6.066 0-11.05-1.3-12.566-3.25-.217.433-.434.65-.434 1.083 0 2.384 5.85 4.334 13 4.334s13-1.95 13-4.334c0-.433-.216-.65-.433-1.083C93.383 24.7 88.4 26 82.333 26Zm0 6.5c-6.066 0-11.05-1.3-12.566-3.25-.217.433-.434.65-.434 1.083 0 2.384 5.85 4.334 13 4.334s13-1.95 13-4.334c0-.433-.216-.65-.433-1.083-1.517 1.95-6.5 3.25-12.567 3.25Zm0 6.5c-6.066 0-11.05-1.3-12.566-3.25-.217.433-.434.65-.434 1.083 0 2.384 5.85 4.334 13 4.334s13-1.95 13-4.334c0-.433-.216-.65-.433-1.083C93.383 37.7 88.4 39 82.333 39Zm0 6.5c-6.066 0-11.05-1.3-12.566-3.25-.217.433-.434.65-.434 1.083 0 2.384 5.85 4.334 13 4.334s13-1.95 13-4.334c0-.433-.216-.65-.433-1.083-1.517 1.95-6.5 3.25-12.567 3.25Zm0 6.5c-6.066 0-11.05-1.3-12.566-3.25-.217.433-.434.65-.434 1.083 0 2.384 5.85 4.334 13 4.334s13-1.95 13-4.334c0-.433-.216-.65-.433-1.083C93.383 50.7 88.4 52 82.333 52Zm0 6.5c-6.066 0-11.05-1.3-12.566-3.25-.217.433-.434.65-.434 1.083 0 2.384 5.85 4.334 13 4.334s13-1.95 13-4.334c0-.433-.216-.65-.433-1.083-1.517 1.95-6.5 3.25-12.567 3.25Zm0 6.5c-6.066 0-11.05-1.3-12.566-3.25-.217.433-.434.65-.434 1.083 0 2.384 5.85 4.334 13 4.334s13-1.95 13-4.334c0-.433-.216-.65-.433-1.083C93.383 63.7 88.4 65 82.333 65Zm0 6.5c-6.066 0-11.05-1.3-12.566-3.25-.217.433-.434.65-.434 1.083 0 2.384 5.85 4.334 13 4.334s13-1.95 13-4.334c0-.433-.216-.65-.433-1.083-1.517 1.95-6.5 3.25-12.567 3.25Zm0 6.5c-6.066 0-11.05-1.3-12.566-3.25-.217.433-.434.65-.434 1.083 0 2.384 5.85 4.334 13 4.334s13-1.95 13-4.334c0-.433-.216-.65-.433-1.083C93.383 76.7 88.4 78 82.333 78Zm0 6.5c-6.066 0-11.05-1.3-12.566-3.25-.217.433-.434.65-.434 1.083 0 2.384 5.85 4.334 13 4.334s13-1.95 13-4.334c0-.433-.216-.65-.433-1.083-1.517 1.95-6.5 3.25-12.567 3.25Z" fill="#FFC107"/><path d="M21.667 41.167c-7.15 0-13-1.95-13-4.334v4.334c0 2.383 5.85 4.333 13 4.333s13-1.95 13-4.333v-4.334c0 2.384-5.85 4.334-13 4.334Z" fill="#FFA000"/><path d="M21.667 34.667c-7.15 0-13-1.95-13-4.334v4.334c0 2.383 5.85 4.333 13 4.333s13-1.95 13-4.333v-4.334c0 2.384-5.85 4.334-13 4.334Zm0 13c-7.15 0-13-1.95-13-4.334v4.334c0 2.383 5.85 4.333 13 4.333s13-1.95 13-4.333v-4.334c0 2.384-5.85 4.334-13 4.334Z" fill="#FFA000"/><path d="M21.667 54.167c-7.15 0-13-1.95-13-4.334v4.334c0 2.383 5.85 4.333 13 4.333s13-1.95 13-4.333v-4.334c0 2.384-5.85 4.334-13 4.334Z" fill="#FFA000"/><path d="M21.667 60.667c-7.15 0-13-1.95-13-4.334v4.334c0 2.383 5.85 4.333 13 4.333s13-1.95 13-4.333v-4.334c0 2.384-5.85 4.334-13 4.334Z" fill="#FFA000"/><path d="M21.667 67.167c-7.15 0-13-1.95-13-4.334v4.334c0 2.383 5.85 4.333 13 4.333s13-1.95 13-4.333v-4.334c0 2.384-5.85 4.334-13 4.334Z" fill="#FFA000"/><path d="M21.667 73.667c-7.15 0-13-1.95-13-4.334v4.334c0 2.383 5.85 4.333 13 4.333s13-1.95 13-4.333v-4.334c0 2.384-5.85 4.334-13 4.334Z" fill="#FFA000"/><path d="M21.667 80.167c-7.15 0-13-1.95-13-4.334v4.334c0 2.383 5.85 4.333 13 4.333s13-1.95 13-4.333v-4.334c0 2.384-5.85 4.334-13 4.334Z" fill="#FFA000"/><path d="M21.667 86.667c-7.15 0-13-1.95-13-4.334v4.334c0 2.383 5.85 4.333 13 4.333s13-1.95 13-4.333v-4.334c0 2.384-5.85 4.334-13 4.334Z" fill="#FFA000"/><path d="M21.667 34.667c7.18 0 13-1.94 13-4.334 0-2.393-5.82-4.333-13-4.333s-13 1.94-13 4.333c0 2.394 5.82 4.334 13 4.334ZM21.667 39C15.6 39 10.617 37.7 9.1 35.75c-.217.433-.433.65-.433 1.083 0 2.384 5.85 4.334 13 4.334s13-1.95 13-4.334c0-.433-.217-.65-.434-1.083-1.516 1.95-6.5 3.25-12.566 3.25Zm0 6.5c-6.067 0-11.05-1.3-12.567-3.25-.217.433-.433.65-.433 1.083 0 2.384 5.85 4.334 13 4.334s13-1.95 13-4.334c0-.433-.217-.65-.434-1.083-1.516 1.95-6.5 3.25-12.566 3.25Zm0 6.5C15.6 52 10.617 50.7 9.1 48.75c-.217.433-.433.65-.433 1.083 0 2.384 5.85 4.334 13 4.334s13-1.95 13-4.334c0-.433-.217-.65-.434-1.083-1.516 1.95-6.5 3.25-12.566 3.25Zm0 6.5c-6.067 0-11.05-1.3-12.567-3.25-.217.433-.433.65-.433 1.083 0 2.384 5.85 4.334 13 4.334s13-1.95 13-4.334c0-.433-.217-.65-.434-1.083-1.516 1.95-6.5 3.25-12.566 3.25Zm0 6.5C15.6 65 10.617 63.7 9.1 61.75c-.217.433-.433.65-.433 1.083 0 2.384 5.85 4.334 13 4.334s13-1.95 13-4.334c0-.433-.217-.65-.434-1.083-1.516 1.95-6.5 3.25-12.566 3.25Zm0 6.5c-6.067 0-11.05-1.3-12.567-3.25-.217.433-.433.65-.433 1.083 0 2.384 5.85 4.334 13 4.334s13-1.95 13-4.334c0-.433-.217-.65-.434-1.083-1.516 1.95-6.5 3.25-12.566 3.25Zm0 6.5C15.6 78 10.617 76.7 9.1 74.75c-.217.433-.433.65-.433 1.083 0 2.384 5.85 4.334 13 4.334s13-1.95 13-4.334c0-.433-.217-.65-.434-1.083-1.516 1.95-6.5 3.25-12.566 3.25Zm0 6.5c-6.067 0-11.05-1.3-12.567-3.25-.217.433-.433.65-.433 1.083 0 2.384 5.85 4.334 13 4.334s13-1.95 13-4.334c0-.433-.217-.65-.434-1.083-1.516 1.95-6.5 3.25-12.566 3.25Z" fill="#FFC107"/><path d="M52 60.667c-7.15 0-13-1.95-13-4.334v4.334C39 63.05 44.85 65 52 65s13-1.95 13-4.333v-4.334c0 2.384-5.85 4.334-13 4.334Z" fill="#FFA000"/><path d="M52 54.167c-7.15 0-13-1.95-13-4.334v4.334c0 2.383 5.85 4.333 13 4.333s13-1.95 13-4.333v-4.334c0 2.384-5.85 4.334-13 4.334Zm0 13c-7.15 0-13-1.95-13-4.334v4.334c0 2.383 5.85 4.333 13 4.333s13-1.95 13-4.333v-4.334c0 2.384-5.85 4.334-13 4.334Z" fill="#FFA000"/><path d="M52 73.667c-7.15 0-13-1.95-13-4.334v4.334C39 76.05 44.85 78 52 78s13-1.95 13-4.333v-4.334c0 2.384-5.85 4.334-13 4.334Z" fill="#FFA000"/><path d="M52 80.167c-7.15 0-13-1.95-13-4.334v4.334c0 2.383 5.85 4.333 13 4.333s13-1.95 13-4.333v-4.334c0 2.384-5.85 4.334-13 4.334Z" fill="#FFA000"/><path d="M52 86.667c-7.15 0-13-1.95-13-4.334v4.334C39 89.05 44.85 91 52 91s13-1.95 13-4.333v-4.334c0 2.384-5.85 4.334-13 4.334Z" fill="#FFA000"/><path d="M52 54.167c7.18 0 13-1.94 13-4.334 0-2.393-5.82-4.333-13-4.333s-13 1.94-13 4.333c0 2.394 5.82 4.334 13 4.334ZM52 58.5c-6.067 0-11.05-1.3-12.567-3.25-.216.433-.433.65-.433 1.083 0 2.384 5.85 4.334 13 4.334s13-1.95 13-4.334c0-.433-.217-.65-.433-1.083C63.05 57.2 58.067 58.5 52 58.5Zm0 6.5c-6.067 0-11.05-1.3-12.567-3.25-.216.433-.433.65-.433 1.083 0 2.384 5.85 4.334 13 4.334s13-1.95 13-4.334c0-.433-.217-.65-.433-1.083C63.05 63.7 58.067 65 52 65Zm0 6.5c-6.067 0-11.05-1.3-12.567-3.25-.216.433-.433.65-.433 1.083 0 2.384 5.85 4.334 13 4.334s13-1.95 13-4.334c0-.433-.217-.65-.433-1.083C63.05 70.2 58.067 71.5 52 71.5Zm0 6.5c-6.067 0-11.05-1.3-12.567-3.25-.216.433-.433.65-.433 1.083 0 2.384 5.85 4.334 13 4.334s13-1.95 13-4.334c0-.433-.217-.65-.433-1.083C63.05 76.7 58.067 78 52 78Zm0 6.5c-6.067 0-11.05-1.3-12.567-3.25-.216.433-.433.65-.433 1.083 0 2.384 5.85 4.334 13 4.334s13-1.95 13-4.334c0-.433-.217-.65-.433-1.083C63.05 83.2 58.067 84.5 52 84.5Z" fill="#FFC107"/></symbol><symbol viewBox="0 0 104 104" fill="none" id="star-rate-half" xmlns="http://www.w3.org/2000/svg"><path d="M52 38.566v25.567l10.4 8.017-3.9-13.217L68.25 52H56.117L52 38.566ZM25.242 95.334 35.317 62.4 8.667 43.333H41.6L52 8.667l10.4 34.666h32.933L68.683 62.4l10.075 32.933L52 74.966 25.242 95.334Z" fill="#FF9550"/></symbol><symbol viewBox="0 0 104 104" fill="none" id="static-up" xmlns="http://www.w3.org/2000/svg"><path d="M13 13v69.333A8.667 8.667 0 0 0 21.667 91H91" stroke="#5C751E" stroke-width="2" stroke-miterlimit="5.759" stroke-linecap="round" stroke-linejoin="round"/><path d="m30.333 60.666 17.334-17.333L65 60.667l26-26" stroke="#5C751E" stroke-width="2" stroke-miterlimit="5.759" stroke-linecap="round" stroke-linejoin="round"/><path d="M78 34.666h13v13" stroke="#5C751E" stroke-width="2" stroke-linecap="round" stroke-linejoin="round"/></symbol><symbol viewBox="0 0 104 104" fill="none" id="transaction-order" xmlns="http://www.w3.org/2000/svg"><path d="M80.167 17.333H23.833a4.333 4.333 0 0 0-4.333 4.333V91a4.333 4.333 0 0 0 4.333 4.333h56.334A4.333 4.333 0 0 0 84.5 91V21.666a4.333 4.333 0 0 0-4.333-4.333Z" stroke="#58C14F" stroke-width="4" stroke-linejoin="round"/><path d="M39 8.666v13m26-13v13m-30.333 19.5h34.666M34.667 58.5h26m-26 17.333H52" stroke="#58C14F" stroke-width="4" stroke-linecap="round" stroke-linejoin="round"/></symbol><symbol viewBox="0 0 104 104" fill="none" id="user-badge" xmlns="http://www.w3.org/2000/svg"><path d="M73.667 13h-13v8.667h13V91H30.333V21.667h13V13h-13a8.667 8.667 0 0 0-8.666 8.667V91a8.667 8.667 0 0 0 8.666 8.667h43.334A8.667 8.667 0 0 0 82.333 91V21.667A8.667 8.667 0 0 0 73.667 13ZM52 30.334a8.667 8.667 0 1 1 0 17.333 8.667 8.667 0 0 1 0-17.334ZM69.333 65H34.667v-4.333C34.667 54.903 46.237 52 52 52c5.763 0 17.333 2.904 17.333 8.667V65Zm0 13H34.667v-4.333h34.666V78ZM52 86.667H34.667v-4.334H52v4.334Zm4.333-65h-8.666V4.333h8.666v17.334Z" fill="#08B7B2"/></symbol><symbol viewBox="0 0 104 104" fill="none" id="warehouse" xmlns="http://www.w3.org/2000/svg"><path d="M93.6 34.667a3.465 3.465 0 0 1-1.525-.347L52 13.867 11.925 34.182a3.567 3.567 0 0 1-3.05-6.448L52 6.379l43.125 21.355a3.55 3.55 0 0 1-1.525 6.933ZM34.667 69.334h-20.8v20.8h20.8v-20.8Zm27.733 0H41.6v20.8h20.8v-20.8Zm27.733 0h-20.8v20.8h20.8v-20.8ZM76.267 41.6h-20.8v20.8h20.8V41.6Zm-27.734 0h-20.8v20.8h20.8V41.6Z" fill="#A77C34"/></symbol></svg>
