<?xml version="1.0" encoding="utf-8"?>
<svg xmlns="http://www.w3.org/2000/svg"><symbol viewBox="0 0 28 29" fill="none" id="add-circle-outline-rounded" xmlns="http://www.w3.org/2000/svg"><path d="M14 20.219c.33 0 .608-.112.832-.336.223-.223.335-.5.335-.83v-3.5h3.529c.33 0 .603-.113.817-.337.214-.223.32-.5.32-.83 0-.331-.111-.608-.335-.832a1.128 1.128 0 0 0-.831-.335h-3.5v-3.53c0-.33-.112-.602-.335-.816a1.158 1.158 0 0 0-.832-.32c-.33 0-.607.11-.83.334a1.13 1.13 0 0 0-.336.832v3.5h-3.53c-.33 0-.602.111-.816.335-.214.224-.321.5-.321.831 0 .331.111.608.335.831.224.224.5.336.832.336h3.5v3.53c0 .33.111.602.335.816.224.214.5.32.831.32Zm0 5.833c-1.614 0-3.13-.306-4.55-.92a11.775 11.775 0 0 1-3.704-2.492 11.773 11.773 0 0 1-2.493-3.705 11.354 11.354 0 0 1-.92-4.55c0-1.614.307-3.13.92-4.55a11.773 11.773 0 0 1 2.493-3.704A11.79 11.79 0 0 1 9.45 3.637 11.367 11.367 0 0 1 14 2.719c1.614 0 3.13.306 4.55.918a11.79 11.79 0 0 1 3.704 2.494 11.773 11.773 0 0 1 2.493 3.704c.613 1.42.92 2.936.92 4.55 0 1.614-.307 3.131-.92 4.55a11.773 11.773 0 0 1-2.493 3.705 11.775 11.775 0 0 1-3.704 2.493c-1.42.613-2.936.92-4.55.92Zm0-2.333c2.586 0 4.789-.91 6.607-2.727 1.818-1.818 2.727-4.02 2.727-6.607 0-2.586-.91-4.788-2.727-6.606C18.789 5.96 16.587 5.052 14 5.052c-2.586 0-4.788.909-6.606 2.727-1.818 1.818-2.727 4.02-2.727 6.606 0 2.586.91 4.789 2.728 6.607C9.211 22.81 11.415 23.72 14 23.72Z" fill="currentColor"/></symbol><symbol viewBox="0 0 29 28" fill="none" id="add-circle-rounded" xmlns="http://www.w3.org/2000/svg"><path d="M14.5 19.834c.33 0 .608-.112.832-.336.223-.223.335-.5.335-.83v-3.5h3.529c.33 0 .603-.113.816-.337.214-.223.321-.5.321-.83 0-.33-.112-.608-.336-.832a1.128 1.128 0 0 0-.83-.335h-3.5v-3.53c0-.33-.112-.602-.335-.816a1.158 1.158 0 0 0-.832-.32c-.33 0-.607.11-.83.334a1.13 1.13 0 0 0-.337.832v3.5H9.804c-.33 0-.603.112-.816.335-.214.224-.321.501-.321.832 0 .33.111.607.335.83.223.224.5.336.831.336h3.5v3.53c0 .33.112.602.336.816.224.214.5.321.831.321Zm0 5.833c-1.614 0-3.13-.306-4.55-.919a11.773 11.773 0 0 1-3.704-2.493 11.774 11.774 0 0 1-2.493-3.704 11.355 11.355 0 0 1-.92-4.55c0-1.614.307-3.13.92-4.55a11.774 11.774 0 0 1 2.493-3.705A11.79 11.79 0 0 1 9.95 3.252a11.367 11.367 0 0 1 4.55-.918c1.614 0 3.13.306 4.55.918a11.79 11.79 0 0 1 3.704 2.494 11.773 11.773 0 0 1 2.493 3.705c.613 1.42.92 2.936.92 4.55 0 1.614-.307 3.13-.92 4.55a11.773 11.773 0 0 1-2.493 3.704 11.774 11.774 0 0 1-3.704 2.493c-1.42.613-2.936.92-4.55.92Z" fill="currentColor"/></symbol><symbol viewBox="0 0 21 20" fill="none" id="camera" xmlns="http://www.w3.org/2000/svg"><path d="M16.75 16.25H4.25A1.25 1.25 0 0 1 3 15V6.25A1.25 1.25 0 0 1 4.25 5h2.5L8 3.125h5L14.25 5h2.5A1.25 1.25 0 0 1 18 6.25V15a1.25 1.25 0 0 1-1.25 1.25Z" stroke="currentColor" stroke-linecap="round" stroke-linejoin="round"/><path d="M10.5 13.125a2.813 2.813 0 1 0 0-5.625 2.813 2.813 0 0 0 0 5.625Z" stroke="currentColor" stroke-linecap="round" stroke-linejoin="round"/></symbol><symbol fill="none" viewBox="0 0 18 18" id="cancel-rounded" xmlns="http://www.w3.org/2000/svg"><path d="M5.775 12.225a.711.711 0 0 0 .525.206.711.711 0 0 0 .525-.206L9 10.05l2.194 2.194a.67.67 0 0 0 .516.197.728.728 0 0 0 .515-.216.711.711 0 0 0 .206-.525.711.711 0 0 0-.206-.525L10.05 9l2.194-2.194a.67.67 0 0 0 .197-.516.728.728 0 0 0-.216-.515.711.711 0 0 0-.525-.206.711.711 0 0 0-.525.206L9 7.95 6.806 5.756a.667.667 0 0 0-.515-.196.738.738 0 0 0-.516.215.711.711 0 0 0-.206.525c0 .213.069.388.206.525L7.95 9l-2.194 2.194a.668.668 0 0 0-.196.516.733.733 0 0 0 .215.515ZM9 16.5a7.3 7.3 0 0 1-2.925-.591 7.585 7.585 0 0 1-2.381-1.603 7.569 7.569 0 0 1-1.603-2.381A7.316 7.316 0 0 1 1.5 9a7.3 7.3 0 0 1 .591-2.925 7.586 7.586 0 0 1 1.603-2.381A7.569 7.569 0 0 1 6.075 2.09 7.316 7.316 0 0 1 9 1.5a7.3 7.3 0 0 1 2.925.591 7.586 7.586 0 0 1 2.381 1.603 7.579 7.579 0 0 1 1.604 2.381A7.29 7.29 0 0 1 16.5 9a7.3 7.3 0 0 1-.591 2.925 7.586 7.586 0 0 1-1.603 2.381 7.58 7.58 0 0 1-2.381 1.604A7.29 7.29 0 0 1 9 16.5Z" fill="currentColor"/></symbol><symbol viewBox="0 0 24 24" fill="none" id="caret-left" xmlns="http://www.w3.org/2000/svg"><path d="M15 19.5 7.5 12 15 4.5" stroke="#333" stroke-width="1.6" stroke-linecap="round" stroke-linejoin="round"/></symbol><symbol viewBox="0 0 20 20" fill="none" id="caret-right" xmlns="http://www.w3.org/2000/svg"><path d="M7.5 3.75 13.75 10 7.5 16.25" stroke="#5F5F5F" stroke-width="1.333" stroke-linecap="round" stroke-linejoin="round"/></symbol><symbol viewBox="0 0 24 24" id="check" xmlns="http://www.w3.org/2000/svg"><path fill="currentColor" d="m10 16.4-4-4L7.4 11l2.6 2.6L16.6 7 18 8.4l-8 8Z"/></symbol><symbol viewBox="0 0 15 14" fill="none" id="check-circle-rounded" xmlns="http://www.w3.org/2000/svg"><path d="M6.683 8.05 5.415 6.781a.535.535 0 0 0-.394-.16.56.56 0 0 0-.409.175.553.553 0 0 0-.16.408c0 .165.054.302.16.409l1.663 1.662c.107.107.243.16.408.16a.553.553 0 0 0 .409-.16l3.31-3.31a.535.535 0 0 0 .16-.394.56.56 0 0 0-.175-.408.553.553 0 0 0-.408-.16.553.553 0 0 0-.408.16L6.683 8.05Zm.817 4.783a5.678 5.678 0 0 1-2.275-.46 5.888 5.888 0 0 1-1.852-1.246 5.887 5.887 0 0 1-1.247-1.852A5.677 5.677 0 0 1 1.666 7c0-.807.154-1.565.46-2.275a5.887 5.887 0 0 1 1.247-1.852 5.895 5.895 0 0 1 1.852-1.247 5.683 5.683 0 0 1 2.275-.46c.807 0 1.565.154 2.275.46.71.306 1.327.722 1.852 1.247.525.525.94 1.142 1.247 1.852.306.71.46 1.468.46 2.275 0 .807-.154 1.565-.46 2.275a5.888 5.888 0 0 1-1.247 1.852 5.888 5.888 0 0 1-1.852 1.247c-.71.306-1.468.46-2.275.46Z" fill="currentColor"/></symbol><symbol viewBox="0 0 24 24" fill="none" id="clipboard" xmlns="http://www.w3.org/2000/svg"><path d="M18.75 3h-3.4a4.492 4.492 0 0 0-6.7 0h-3.4a1.5 1.5 0 0 0-1.5 1.5v15.75a1.5 1.5 0 0 0 1.5 1.5h13.5a1.5 1.5 0 0 0 1.5-1.5V4.5a1.5 1.5 0 0 0-1.5-1.5ZM12 3a3 3 0 0 1 3 3H9a3 3 0 0 1 3-3Zm6.75 17.25H5.25V4.5h2.508c-.17.482-.258.989-.258 1.5v.75a.75.75 0 0 0 .75.75h7.5a.75.75 0 0 0 .75-.75V6c0-.511-.087-1.018-.258-1.5h2.508v15.75Z" fill="currentColor"/></symbol><symbol viewBox="0 0 24 24" fill="none" id="coins" xmlns="http://www.w3.org/2000/svg"><path d="M17.25 8.397v-.522c0-2.351-3.547-4.125-8.25-4.125C4.297 3.75.75 5.524.75 7.875v3.75c0 1.958 2.46 3.515 6 3.98v.52c0 2.351 3.547 4.125 8.25 4.125 4.703 0 8.25-1.774 8.25-4.125v-3.75c0-1.94-2.383-3.499-6-3.978Zm4.5 3.978C21.75 13.615 18.863 15 15 15c-.35 0-.697-.012-1.039-.035 2.022-.737 3.289-1.934 3.289-3.34V9.913c2.8.417 4.5 1.55 4.5 2.462Zm-15 1.71v-2.23A17.22 17.22 0 0 0 9 12a17.22 17.22 0 0 0 2.25-.144v2.23c-.745.11-1.497.165-2.25.164-.753 0-1.505-.054-2.25-.164Zm9-3.78v1.32c0 .787-1.163 1.631-3 2.144v-2.19c1.21-.294 2.235-.731 3-1.273ZM9 5.25c3.863 0 6.75 1.386 6.75 2.625 0 1.24-2.887 2.625-6.75 2.625S2.25 9.114 2.25 7.875C2.25 6.635 5.137 5.25 9 5.25Zm-6.75 6.375v-1.32c.765.543 1.79.98 3 1.273v2.191c-1.837-.513-3-1.357-3-2.144Zm6 4.5v-.39a18.074 18.074 0 0 0 1.818-.017c.387.138.782.256 1.182.352v2.2c-1.837-.514-3-1.358-3-2.145Zm4.5 2.46V16.35a17.22 17.22 0 0 0 4.5.006v2.23a15.507 15.507 0 0 1-4.5 0Zm6-.316v-2.19c1.21-.294 2.235-.731 3-1.273v1.319c0 .787-1.163 1.631-3 2.144Z" fill="currentColor"/></symbol><symbol viewBox="0 0 25 25" fill="none" id="conner-close" xmlns="http://www.w3.org/2000/svg"><path d="M.333.385h24v24h-24z"/><path d="M12.334.385c-6.629 0-12 5.373-12 12s5.371 12 12 12c6.628 0 12-5.373 12-12s-5.372-12-12-12Zm5.56 15.44a1.5 1.5 0 1 1-2.121 2.12l-3.44-3.439-3.439 3.44a1.495 1.495 0 0 1-2.121 0 1.499 1.499 0 0 1 0-2.121l3.44-3.44-3.44-3.44a1.5 1.5 0 1 1 2.121-2.12l3.44 3.44 3.439-3.44a1.5 1.5 0 0 1 2.121 2.12l-3.44 3.44 3.44 3.44Z" fill="currentColor"/></symbol><symbol viewBox="0 0 18 18" fill="none" id="edit" xmlns="http://www.w3.org/2000/svg"><path d="m14.475 6.694-3.188-3.15 1.05-1.05a1.44 1.44 0 0 1 1.06-.432c.42 0 .772.144 1.06.432l1.05 1.05c.287.287.437.634.45 1.04.012.407-.126.754-.413 1.041l-1.069 1.069ZM13.387 7.8l-7.95 7.95H2.25v-3.188l7.95-7.95L13.388 7.8Z" fill="currentColor"/></symbol><symbol viewBox="0 0 24 24" fill="none" id="eye" xmlns="http://www.w3.org/2000/svg"><path d="M23.185 11.696c-.032-.074-.827-1.835-2.592-3.6C18.241 5.742 15.27 4.5 12 4.5c-3.27 0-6.24 1.243-8.593 3.595C1.642 9.861.844 11.625.815 11.696a.75.75 0 0 0 0 .61c.032.074.827 1.834 2.592 3.6C5.759 18.256 8.73 19.5 12 19.5c3.27 0 6.24-1.243 8.593-3.594 1.765-1.766 2.56-3.526 2.592-3.6a.75.75 0 0 0 0-.61ZM12 18c-2.886 0-5.407-1.05-7.493-3.117A12.511 12.511 0 0 1 2.344 12a12.499 12.499 0 0 1 2.163-2.883C6.593 7.05 9.114 6 12 6s5.407 1.05 7.493 3.117A12.507 12.507 0 0 1 21.661 12c-.676 1.262-3.62 6-9.661 6Zm0-10.5a4.5 4.5 0 1 0 0 9 4.5 4.5 0 0 0 0-9Zm0 7.5a3 3 0 1 1 0-5.999A3 3 0 0 1 12 15Z" fill="currentColor"/></symbol><symbol viewBox="0 0 24 24" fill="none" id="eye-solid" xmlns="http://www.w3.org/2000/svg"><path d="M23.185 11.696c-.032-.074-.827-1.835-2.592-3.6C18.241 5.742 15.27 4.5 12 4.5c-3.27 0-6.24 1.243-8.593 3.595C1.642 9.861.844 11.625.815 11.696a.75.75 0 0 0 0 .61c.032.074.827 1.834 2.592 3.6C5.759 18.256 8.73 19.5 12 19.5c3.27 0 6.24-1.243 8.593-3.594 1.765-1.766 2.56-3.526 2.592-3.6a.75.75 0 0 0 0-.61ZM12 15.75a3.75 3.75 0 1 1 0-7.5 3.75 3.75 0 0 1 0 7.5Z" fill="currentColor"/></symbol><symbol viewBox="0 0 24 24" fill="none" id="eye-solid-slash" xmlns="http://www.w3.org/2000/svg"><path d="M5.055 3.245a.75.75 0 1 0-1.11 1.01l1.804 1.984c-3.405 2.09-4.87 5.31-4.934 5.457a.75.75 0 0 0 0 .61c.032.074.827 1.834 2.592 3.6C5.759 18.255 8.73 19.5 12 19.5c1.68.01 3.344-.337 4.882-1.015l2.062 2.27a.75.75 0 1 0 1.11-1.01L5.055 3.245Zm8.344 11.409a3 3 0 0 1-3.907-4.299l3.907 4.299Zm9.786-2.349c-.04.089-.989 2.191-3.127 4.107a.75.75 0 0 1-1.056-.054L9.506 5.913a.75.75 0 0 1 .431-1.245A12.562 12.562 0 0 1 12 4.5c3.27 0 6.24 1.243 8.593 3.595 1.765 1.765 2.56 3.527 2.592 3.601a.75.75 0 0 1 0 .61Z" fill="currentColor"/></symbol><symbol viewBox="0 0 16 16" fill="none" id="grid-2-h" xmlns="http://www.w3.org/2000/svg"><path d="M16 1.005v4.99a.926.926 0 0 1-.356.71 1.359 1.359 0 0 1-.861.295H1.218c-.323 0-.633-.106-.861-.294A.926.926 0 0 1 0 5.995v-4.99C0 .74.128.483.357.295.585.104.895 0 1.217 0h13.566c.323 0 .632.106.86.294a.926.926 0 0 1 .357.711Zm-1.217 0H1.218v4.99h13.565v-4.99ZM16 10.005v4.99a.926.926 0 0 1-.356.71 1.359 1.359 0 0 1-.861.295H1.218c-.323 0-.633-.106-.861-.294A.926.926 0 0 1 0 14.995v-4.99c0-.266.128-.522.357-.71.228-.19.538-.295.86-.295h13.566c.323 0 .632.106.86.294a.926.926 0 0 1 .357.711Zm-1.217 0H1.218v4.99h13.565v-4.99Z" fill="currentColor"/></symbol><symbol viewBox="0 0 256 256" id="grid-four" xmlns="http://www.w3.org/2000/svg"><rect x="48" y="48" width="160" height="160" rx="8" fill="none" stroke="currentColor" stroke-linecap="round" stroke-linejoin="round" stroke-width="16"/><path fill="none" stroke="currentColor" stroke-linecap="round" stroke-linejoin="round" stroke-width="16" d="M128 48v160M48 128h160"/></symbol><symbol fill="none" viewBox="0 0 32 33" id="image" xmlns="http://www.w3.org/2000/svg"><path d="M27 5.029H5a2 2 0 0 0-2 2v18a2 2 0 0 0 2 2h22a2 2 0 0 0 2-2v-18a2 2 0 0 0-2-2Zm0 2v12.844l-3.259-3.258a1.998 1.998 0 0 0-2.828 0l-2.5 2.5-5.5-5.5a2 2 0 0 0-2.828 0L5 18.7V7.03h22Zm-22 14.5 6.5-6.5 10 10H5v-3.5Zm22 3.5h-2.671l-4.5-4.5 2.5-2.5L27 22.7v2.328Zm-9-12.5a1.5 1.5 0 1 1 3 0 1.5 1.5 0 0 1-3 0Z" fill="currentColor"/></symbol><symbol viewBox="0 0 22 22" fill="none" id="info" xmlns="http://www.w3.org/2000/svg"><path d="M11 1.375a9.625 9.625 0 1 1 0 19.25 9.625 9.625 0 0 1 0-19.25ZM11 5.5a1.255 1.255 0 0 0-1.251 1.37l.502 5.508a.754.754 0 0 0 1.498 0l.5-5.508A1.256 1.256 0 0 0 11 5.5Zm0 11a1.1 1.1 0 1 0 0-2.2 1.1 1.1 0 0 0 0 2.2Z" fill="currentColor"/></symbol><symbol viewBox="0 0 21 20" fill="none" id="link-alt" xmlns="http://www.w3.org/2000/svg"><path d="M4.018 16.482a4.153 4.153 0 0 0 2.946 1.219 4.154 4.154 0 0 0 2.947-1.219l2.357-2.357-1.179-1.178-2.356 2.357a2.506 2.506 0 0 1-3.536 0 2.504 2.504 0 0 1 0-3.536l2.357-2.356-1.178-1.179-2.358 2.357a4.172 4.172 0 0 0 0 5.892Zm12.964-7.07a4.174 4.174 0 0 0 0-5.893 4.172 4.172 0 0 0-5.893 0L8.733 5.877 9.91 7.055l2.357-2.358a2.506 2.506 0 0 1 3.535 0 2.504 2.504 0 0 1 0 3.536l-2.357 2.357 1.178 1.178 2.358-2.356Z" fill="currentColor"/><path d="m7.553 14.125-1.179-1.178 7.073-7.072 1.178 1.18-7.072 7.07Z" fill="currentColor"/></symbol><symbol viewBox="0 0 21 20" fill="none" id="location" xmlns="http://www.w3.org/2000/svg"><path d="M10.5 11.25a3.125 3.125 0 1 1 0-6.25 3.125 3.125 0 0 1 0 6.25Zm0-5a1.875 1.875 0 1 0 0 3.75 1.875 1.875 0 0 0 0-3.75Z" fill="currentColor"/><path d="m10.5 18.75-5.272-6.218a22.439 22.439 0 0 1-.218-.282 6.806 6.806 0 0 1-1.385-4.125 6.875 6.875 0 0 1 13.75 0 6.802 6.802 0 0 1-1.384 4.123l-.001.002s-.188.246-.216.28L10.5 18.75Zm-4.492-7.253.179.234 4.313 5.086 4.319-5.093.174-.229a5.562 5.562 0 0 0 1.132-3.37 5.625 5.625 0 1 0-11.25 0 5.566 5.566 0 0 0 1.133 3.372Z" fill="currentColor"/></symbol><symbol viewBox="0 0 30 30" fill="none" id="logo-smatez" xmlns="http://www.w3.org/2000/svg"><path d="M27.127 12.426H14.643a.425.425 0 0 0-.345.175 2.672 2.672 0 0 1-2.173 1.112c-.74 0-1.41-.299-1.894-.784a2.665 2.665 0 0 1-.785-1.89c0-.74.3-1.407.785-1.892a2.672 2.672 0 0 1 1.893-.783c.894 0 1.686.437 2.172 1.11.08.11.21.178.347.178H25.39c.4 0 .6-.482.317-.764l-7.622-7.612a4.366 4.366 0 0 0-6.17 0L1.258 11.92a4.327 4.327 0 0 0-1.221 2.376c-.281 1.724 1.088 3.28 2.836 3.28h12.484a.425.425 0 0 0 .345-.175 2.68 2.68 0 0 1 2.462-1.097 2.684 2.684 0 0 1 2.376 2.4 2.66 2.66 0 0 1-.772 2.147 2.672 2.672 0 0 1-1.894.784 2.666 2.666 0 0 1-2.173-1.112.425.425 0 0 0-.345-.175H4.61c-.399 0-.6.482-.317.764l7.622 7.612a4.366 4.366 0 0 0 6.17 0L28.742 18.08a4.327 4.327 0 0 0 1.221-2.376c.281-1.724-1.088-3.279-2.836-3.279Z" fill="currentColor"/></symbol><symbol viewBox="0 0 20 20" fill="none" id="logout-outline" xmlns="http://www.w3.org/2000/svg"><path d="M16.953 14.297H15.58a.308.308 0 0 0-.24.113 6.911 6.911 0 0 1-5.332 2.504 6.89 6.89 0 0 1-4.895-2.025A6.9 6.9 0 0 1 3.63 12.69 6.846 6.846 0 0 1 3.086 10a6.881 6.881 0 0 1 2.027-4.889 6.91 6.91 0 0 1 4.895-2.025A6.91 6.91 0 0 1 15.34 5.59a.31.31 0 0 0 .24.113h1.373c.123 0 .2-.137.13-.24a8.402 8.402 0 0 0-7.097-3.861 8.389 8.389 0 0 0-8.384 8.484c.046 4.6 3.792 8.312 8.406 8.312 2.97 0 5.58-1.539 7.076-3.86a.156.156 0 0 0-.13-.241Zm1.736-4.42-2.771-2.188a.156.156 0 0 0-.254.124v1.484H9.531a.157.157 0 0 0-.156.156v1.094c0 .086.07.156.156.156h6.133v1.485c0 .13.152.205.254.123l2.771-2.188a.156.156 0 0 0 0-.246Z" fill="currentColor"/></symbol><symbol viewBox="0 0 21 20" fill="none" id="outline-mail" xmlns="http://www.w3.org/2000/svg"><path d="M18.833 5c0-.916-.75-1.666-1.666-1.666H3.833c-.916 0-1.666.75-1.666 1.667v10c0 .916.75 1.666 1.666 1.666h13.334c.916 0 1.666-.75 1.666-1.666V5Zm-1.666 0L10.5 9.168 3.833 5.001h13.334Zm0 10H3.833V6.668l6.667 4.167 6.667-4.167v8.334Z" fill="currentColor"/></symbol><symbol viewBox="0 0 24 24" fill="none" id="package" xmlns="http://www.w3.org/2000/svg"><path d="m20.97 6.202-8.25-4.514a1.489 1.489 0 0 0-1.44 0L3.03 6.204a1.5 1.5 0 0 0-.78 1.312v8.966a1.5 1.5 0 0 0 .78 1.313l8.25 4.516a1.489 1.489 0 0 0 1.44 0l8.25-4.516a1.5 1.5 0 0 0 .78-1.313V7.517a1.5 1.5 0 0 0-.78-1.315ZM12 3l7.532 4.125-2.791 1.528-7.533-4.125L12 3Zm0 8.25L4.468 7.125l3.178-1.74 7.532 4.125L12 11.25ZM3.75 8.438l7.5 4.104v8.043l-7.5-4.102V8.438Zm16.5 8.042-7.5 4.105v-8.04l3-1.64v3.345a.75.75 0 1 0 1.5 0v-4.167l3-1.645v8.042Z" fill="currentColor"/></symbol><symbol viewBox="0 0 21 20" fill="none" id="pencil-simple-line" xmlns="http://www.w3.org/2000/svg"><path d="m18.26 5.732-3.492-3.49a1.25 1.25 0 0 0-1.768 0l-9.634 9.633a1.24 1.24 0 0 0-.366.883v3.492a1.25 1.25 0 0 0 1.25 1.25h13.125a.625.625 0 1 0 0-1.25H9.509l8.75-8.75a1.25 1.25 0 0 0 0-1.768ZM7.74 16.25H4.25v-3.492l6.875-6.875 3.491 3.492-6.875 6.875ZM15.5 8.49 12.01 5l1.874-1.875 3.491 3.491L15.5 8.491Z" fill="currentColor"/></symbol><symbol viewBox="0 0 25 24" fill="none" id="person-outline" xmlns="http://www.w3.org/2000/svg"><path d="M12.5 4a4 4 0 1 1 0 8 4 4 0 0 1 0-8Zm0 2a2 2 0 1 0 0 4 2 2 0 0 0 0-4Zm0 7c2.67 0 8 1.33 8 4v3h-16v-3c0-2.67 5.33-4 8-4Zm0 1.9c-2.97 0-6.1 1.46-6.1 2.1v1.1h12.2V17c0-.64-3.13-2.1-6.1-2.1Z" fill="currentColor"/></symbol><symbol viewBox="0 0 21 20" fill="none" id="phone-voice" xmlns="http://www.w3.org/2000/svg"><path d="M15.5 8.125h-1.25a1.877 1.877 0 0 0-1.875-1.875V5A3.129 3.129 0 0 1 15.5 8.125Z" fill="currentColor"/><path d="M18 8.125h-1.25a4.38 4.38 0 0 0-4.375-4.375V2.5A5.631 5.631 0 0 1 18 8.125Zm-1.25 10h-.106C4.362 17.419 2.619 7.056 2.375 3.894A1.875 1.875 0 0 1 4.25 1.875h3.294a1.25 1.25 0 0 1 1.162.788L9.656 5a1.25 1.25 0 0 1-.275 1.35L8.05 7.694a5.85 5.85 0 0 0 4.737 4.75l1.357-1.344a1.25 1.25 0 0 1 1.356-.256l2.356.944a1.25 1.25 0 0 1 .769 1.162v3.3a1.875 1.875 0 0 1-1.875 1.875Zm-12.5-15a.625.625 0 0 0-.625.675c.287 3.7 2.131 12.45 13.087 13.075a.625.625 0 0 0 .662-.586l.001-.039v-3.3l-2.356-.944-1.794 1.781-.3-.037C7.487 13.069 6.75 7.631 6.75 7.575l-.038-.3 1.775-1.794-.937-2.356h-3.3Z" fill="currentColor"/></symbol><symbol viewBox="0 0 23 22" fill="none" id="plus" xmlns="http://www.w3.org/2000/svg"><path d="M19.75 11a.687.687 0 0 1-.688.688h-6.875v6.874a.687.687 0 1 1-1.374 0v-6.875H3.936a.687.687 0 1 1 0-1.374h6.876V3.436a.687.687 0 1 1 1.374 0v6.876h6.876a.687.687 0 0 1 .687.687Z" fill="currentColor"/></symbol><symbol viewBox="0 0 24 24" fill="none" id="search" xmlns="http://www.w3.org/2000/svg"><path d="M10.875 18.75a7.875 7.875 0 1 0 0-15.75 7.875 7.875 0 0 0 0 15.75ZM16.443 16.443 21 21" stroke="currentColor" stroke-width="1.48" stroke-linecap="round" stroke-linejoin="round"/></symbol><symbol viewBox="0 0 28 28" fill="none" id="three-line-horizontal" xmlns="http://www.w3.org/2000/svg"><path d="M5.833 7h16.334M5.833 14h16.334M5.833 21h16.334" stroke="currentColor" stroke-width="2" stroke-linecap="round"/></symbol><symbol viewBox="0 0 21 20" fill="none" id="trash" xmlns="http://www.w3.org/2000/svg"><path d="M17.375 3.75H14.25v-.625a1.875 1.875 0 0 0-1.875-1.875h-3.75A1.875 1.875 0 0 0 6.75 3.125v.625H3.625a.625.625 0 0 0 0 1.25h.625v11.25A1.25 1.25 0 0 0 5.5 17.5h10a1.25 1.25 0 0 0 1.25-1.25V5h.625a.625.625 0 1 0 0-1.25ZM8 3.125a.625.625 0 0 1 .625-.625h3.75a.625.625 0 0 1 .625.625v.625H8v-.625Zm7.5 13.125h-10V5h10v11.25ZM9.25 8.125v5a.625.625 0 1 1-1.25 0v-5a.625.625 0 0 1 1.25 0Zm3.75 0v5a.624.624 0 1 1-1.25 0v-5a.625.625 0 1 1 1.25 0Z" fill="currentColor"/></symbol><symbol viewBox="0 0 41 40" fill="none" id="upload" xmlns="http://www.w3.org/2000/svg"><path d="M38 21.25v10a2.5 2.5 0 0 1-2.5 2.5h-30a2.5 2.5 0 0 1-2.5-2.5v-10a2.5 2.5 0 0 1 2.5-2.5H13a1.25 1.25 0 0 1 0 2.5H5.5v10h30v-10H28a1.25 1.25 0 0 1 0-2.5h7.5a2.5 2.5 0 0 1 2.5 2.5Zm-24.116-9.116 5.366-5.367V20a1.25 1.25 0 0 0 2.5 0V6.767l5.366 5.367a1.251 1.251 0 0 0 1.768-1.768l-7.5-7.5a1.25 1.25 0 0 0-1.768 0l-7.5 7.5a1.251 1.251 0 0 0 1.768 1.768ZM31.75 26.25a1.875 1.875 0 1 0-3.751 0 1.875 1.875 0 0 0 3.751 0Z" fill="currentColor"/></symbol><symbol viewBox="0 0 24 24" fill="none" id="view-card" xmlns="http://www.w3.org/2000/svg"><path d="M18.437 11H5.565a2.5 2.5 0 0 1-2.5-2.5V5.564a2.5 2.5 0 0 1 2.5-2.5h12.872a2.5 2.5 0 0 1 2.5 2.5V8.5a2.5 2.5 0 0 1-2.5 2.5ZM5.565 4.064a1.5 1.5 0 0 0-1.5 1.5V8.5a1.5 1.5 0 0 0 1.5 1.5h12.872a1.5 1.5 0 0 0 1.5-1.5V5.564a1.5 1.5 0 0 0-1.5-1.5H5.565Zm12.872 16.872H5.565a2.5 2.5 0 0 1-2.5-2.5V15.5a2.5 2.5 0 0 1 2.5-2.5h12.872a2.5 2.5 0 0 1 2.5 2.5v2.934a2.5 2.5 0 0 1-2.5 2.502ZM5.565 14a1.5 1.5 0 0 0-1.5 1.5v2.934a1.5 1.5 0 0 0 1.5 1.5h12.872a1.5 1.5 0 0 0 1.5-1.5V15.5a1.5 1.5 0 0 0-1.5-1.5H5.565Z" fill="currentColor"/></symbol><symbol viewBox="0 0 24 24" id="view-table" xmlns="http://www.w3.org/2000/svg"><path fill="currentColor" d="M18.44 3.06H5.56a2.507 2.507 0 0 0-2.5 2.5v12.88a2.507 2.507 0 0 0 2.5 2.5h12.88a2.514 2.514 0 0 0 2.5-2.5V5.56a2.514 2.514 0 0 0-2.5-2.5ZM8.71 19.94H5.56a1.5 1.5 0 0 1-1.5-1.5v-3.11h4.65Zm0-5.61H4.06V9.67h4.65Zm0-5.66H4.06V5.56a1.5 1.5 0 0 1 1.5-1.5h3.15Zm11.23 9.77a1.511 1.511 0 0 1-1.5 1.5H9.71v-4.61h10.23Zm0-4.11H9.71V9.67h10.23Zm0-5.66H9.71V4.06h8.73a1.511 1.511 0 0 1 1.5 1.5Z"/></symbol><symbol viewBox="0 0 24 24" fill="none" id="x-close" xmlns="http://www.w3.org/2000/svg"><path d="M19.28 18.22a.75.75 0 0 1-1.06 1.06L12 13.06l-6.22 6.22a.75.75 0 0 1-1.06-1.06L10.94 12 4.72 5.78a.75.75 0 1 1 1.06-1.06L12 10.94l6.22-6.22a.75.75 0 0 1 1.06 1.06L13.06 12l6.22 6.22Z" fill="currentColor"/></symbol></svg>
