<svg id="contract-line" viewBox="0 0 104 104" fill="none" xmlns="http://www.w3.org/2000/svg">
  <path d="M23.1111 23.689H69.3334V28.3112H23.1111V23.689ZM23.1111 46.8001H46.4707V51.4223H23.1111V46.8001ZM67.5365 35.2445H23.1111V39.8667H62.9171L67.5365 35.2445ZM36.9576 83.9859C37.7346 84.8769 38.7209 85.5609 39.8277 85.9764C40.9345 86.3919 42.1273 86.5259 43.2987 86.3663H65.8407C66.377 86.3663 66.8914 86.1532 67.2706 85.774C67.6499 85.3948 67.8629 84.8804 67.8629 84.3441C67.8629 83.8077 67.6499 83.2934 67.2706 82.9142C66.8914 82.5349 66.377 82.3219 65.8407 82.3219H43.2987C40.6669 82.2756 41.1349 79.9905 41.5047 79.2827C41.9868 78.452 42.3624 77.5639 42.6227 76.6394C42.7954 75.8955 42.714 75.1152 42.3915 74.423C42.0689 73.7308 41.5238 73.1665 40.8431 72.8203C39.7496 72.3276 38.5246 72.2069 37.3559 72.4766C36.1872 72.7464 35.1391 73.3917 34.372 74.3139C33.3783 75.3394 31.9974 76.9081 30.6743 78.4334C31.4918 75.2296 32.552 71.1187 33.592 67.109C33.8901 66.1953 33.8307 65.2027 33.426 64.331C33.0213 63.4594 32.3012 62.7735 31.4109 62.4116C30.425 62.0733 29.3474 62.1217 28.3957 62.5469C27.444 62.972 26.689 63.7424 26.2831 64.7025C25.0351 67.1032 15.1551 83.6594 15.0569 83.827C14.9207 84.055 14.8308 84.3076 14.7922 84.5703C14.7536 84.8331 14.7672 85.1009 14.8321 85.3584C14.897 85.616 15.012 85.8582 15.1706 86.0713C15.3291 86.2843 15.528 86.4641 15.756 86.6003C16.2165 86.8754 16.7674 86.9562 17.2875 86.8251C17.8076 86.694 18.2543 86.3617 18.5294 85.9012C18.8991 85.2801 26.7858 72.0692 29.2731 67.6579C27.4011 74.8801 25.3385 82.917 25.2171 83.6392C25.0806 84.1702 25.1216 84.7313 25.3339 85.2368C25.5462 85.7422 25.9181 86.1643 26.3929 86.4385C26.9217 86.7008 27.5228 86.7795 28.1013 86.6624C28.6799 86.5452 29.2029 86.2388 29.588 85.7914C29.952 85.4621 30.6338 84.6792 32.3527 82.683C33.9542 80.7994 35.5945 78.9492 37.2725 77.1334C37.9023 76.469 38.2836 76.7636 37.9138 77.4165C37.1905 78.3306 36.7214 79.4195 36.554 80.573C36.3866 81.7266 36.5239 82.9039 36.9576 83.9859Z" fill="#79028C"/>
  <path d="M80.8889 62.6745V92.4445H11.5556V11.5556H80.8889V25.9798L84.7312 22.1376C85.3226 21.5543 85.971 21.0316 86.6667 20.5776V8.66672C86.6667 7.90054 86.3624 7.16574 85.8206 6.62397C85.2788 6.0822 84.544 5.77783 83.7778 5.77783H8.66672C7.90054 5.77783 7.16574 6.0822 6.62397 6.62397C6.0822 7.16574 5.77783 7.90054 5.77783 8.66672V95.3334C5.77783 96.0996 6.0822 96.8344 6.62397 97.3761C7.16574 97.9179 7.90054 98.2223 8.66672 98.2223H83.7778C84.544 98.2223 85.2788 97.9179 85.8206 97.3761C86.3624 96.8344 86.6667 96.0996 86.6667 95.3334V61.9003C84.8948 62.8392 82.8456 63.1138 80.8889 62.6745Z" fill="#79028C"/>
  <path d="M98.592 34.265L97.0811 32.7541C97.8533 31.7336 98.2442 30.4752 98.1862 29.1968C98.1281 27.9184 97.6248 26.7006 96.7633 25.7543C95.6451 24.7687 94.1827 24.2649 92.6947 24.3526C91.2067 24.4402 89.8136 25.1123 88.8189 26.2223L52.6355 62.3999L50.2175 71.4768C50.1792 71.5955 50.1746 71.7226 50.2041 71.8438C50.2336 71.9651 50.296 72.0758 50.3846 72.1637C50.4731 72.2517 50.5842 72.3134 50.7057 72.342C50.8271 72.3707 50.9541 72.3652 51.0726 72.3261L60.1177 69.8792L93.8946 36.1023L95.3217 37.5323C95.4214 37.6319 95.5005 37.7501 95.5544 37.8802C95.6084 38.0103 95.6361 38.1498 95.6361 38.2907C95.6361 38.4315 95.6084 38.571 95.5544 38.7011C95.5005 38.8312 95.4214 38.9494 95.3217 39.049L81.1171 53.2537C80.6838 53.6873 80.4405 54.2753 80.4408 54.8883C80.4411 55.5014 80.6849 56.0892 81.1185 56.5224C81.5522 56.9557 82.1402 57.199 82.7532 57.1987C83.3662 57.1984 83.954 56.9546 84.3873 56.521L98.592 42.3163C99.6596 41.248 100.259 39.7995 100.259 38.2892C100.259 36.7789 99.6596 35.3304 98.592 34.2621V34.265Z" fill="#79028C"/>
</svg>
