<svg id="eos-icons-product" viewBox="0 0 104 104" fill="none" xmlns="http://www.w3.org/2000/svg">
  <path d="M30.3334 8.6665H13C11.8507 8.6665 10.7485 9.12305 9.93589 9.93571C9.12323 10.7484 8.66669 11.8506 8.66669 12.9998V90.9998C8.66669 92.1491 9.12323 93.2513 9.93589 94.064C10.7485 94.8766 11.8507 95.3332 13 95.3332H30.3334C31.4826 95.3332 32.5848 94.8766 33.3975 94.064C34.2101 93.2513 34.6667 92.1491 34.6667 90.9998V12.9998C34.6667 11.8506 34.2101 10.7484 33.3975 9.93571C32.5848 9.12305 31.4826 8.6665 30.3334 8.6665ZM21.6667 90.9998C19.9526 90.9998 18.277 90.4916 16.8517 89.5393C15.4265 88.5869 14.3157 87.2334 13.6597 85.6498C13.0038 84.0661 12.8321 82.3236 13.1665 80.6424C13.501 78.9612 14.3264 77.417 15.5384 76.2049C16.7505 74.9929 18.2947 74.1674 19.9759 73.833C21.6571 73.4986 23.3997 73.6703 24.9833 74.3262C26.5669 74.9822 27.9205 76.093 28.8728 77.5182C29.8251 78.9435 30.3334 80.6191 30.3334 82.3332C30.3334 84.6317 29.4203 86.8361 27.7949 88.4614C26.1696 90.0868 23.9652 90.9998 21.6667 90.9998ZM30.3334 51.9998H13V12.9998H30.3334V51.9998ZM26 82.3332C26 83.1902 25.7459 84.028 25.2697 84.7407C24.7936 85.4533 24.1168 86.0087 23.325 86.3367C22.5332 86.6646 21.6619 86.7505 20.8213 86.5833C19.9807 86.416 19.2086 86.0033 18.6026 85.3973C17.9965 84.7913 17.5838 84.0192 17.4166 83.1786C17.2494 82.338 17.3352 81.4667 17.6632 80.6749C17.9912 79.8831 18.5466 79.2063 19.2592 78.7301C19.9718 78.254 20.8096 77.9998 21.6667 77.9998C22.816 77.9998 23.9182 78.4564 24.7308 79.2691C25.5435 80.0817 26 81.1839 26 82.3332ZM60.6667 8.6665H43.3334C42.1841 8.6665 41.0819 9.12305 40.2692 9.93571C39.4566 10.7484 39 11.8506 39 12.9998V90.9998C39 92.1491 39.4566 93.2513 40.2692 94.064C41.0819 94.8766 42.1841 95.3332 43.3334 95.3332H60.6667C61.816 95.3332 62.9182 94.8766 63.7308 94.064C64.5435 93.2513 65 92.1491 65 90.9998V12.9998C65 11.8506 64.5435 10.7484 63.7308 9.93571C62.9182 9.12305 61.816 8.6665 60.6667 8.6665ZM52 90.9998C50.2859 90.9998 48.6103 90.4916 47.1851 89.5393C45.7599 88.5869 44.649 87.2334 43.9931 85.6498C43.3371 84.0661 43.1655 82.3236 43.4999 80.6424C43.8343 78.9612 44.6597 77.417 45.8718 76.2049C47.0838 74.9929 48.6281 74.1674 50.3092 73.833C51.9904 73.4986 53.733 73.6703 55.3166 74.3262C56.9002 74.9822 58.2538 76.093 59.2061 77.5182C60.1584 78.9435 60.6667 80.6191 60.6667 82.3332C60.6667 84.6317 59.7536 86.8361 58.1283 88.4614C56.503 90.0868 54.2986 90.9998 52 90.9998ZM60.6667 51.9998H43.3334V12.9998H60.6667V51.9998ZM56.3334 82.3332C56.3334 83.1902 56.0792 84.028 55.6031 84.7407C55.1269 85.4533 54.4501 86.0087 53.6583 86.3367C52.8665 86.6646 51.9952 86.7505 51.1546 86.5833C50.3141 86.416 49.5419 86.0033 48.9359 85.3973C48.3299 84.7913 47.9172 84.0192 47.75 83.1786C47.5828 82.338 47.6686 81.4667 47.9965 80.6749C48.3245 79.8831 48.8799 79.2063 49.5926 78.7301C50.3052 78.254 51.143 77.9998 52 77.9998C53.1493 77.9998 54.2515 78.4564 55.0642 79.2691C55.8768 80.0817 56.3334 81.1839 56.3334 82.3332ZM91 8.6665H73.6667C72.5174 8.6665 71.4152 9.12305 70.6026 9.93571C69.7899 10.7484 69.3334 11.8506 69.3334 12.9998V90.9998C69.3334 92.1491 69.7899 93.2513 70.6026 94.064C71.4152 94.8766 72.5174 95.3332 73.6667 95.3332H91C92.1493 95.3332 93.2515 94.8766 94.0642 94.064C94.8768 93.2513 95.3334 92.1491 95.3334 90.9998V12.9998C95.3334 11.8506 94.8768 10.7484 94.0642 9.93571C93.2515 9.12305 92.1493 8.6665 91 8.6665ZM82.3334 90.9998C80.6193 90.9998 78.9436 90.4916 77.5184 89.5393C76.0932 88.5869 74.9824 87.2334 74.3264 85.6498C73.6704 84.0661 73.4988 82.3236 73.8332 80.6424C74.1676 78.9612 74.993 77.417 76.2051 76.2049C77.4172 74.9929 78.9614 74.1674 80.6426 73.833C82.3238 73.4986 84.0663 73.6703 85.65 74.3262C87.2336 74.9822 88.5871 76.093 89.5394 77.5182C90.4917 78.9435 91 80.6191 91 82.3332C91 84.6317 90.0869 86.8361 88.4616 88.4614C86.8363 90.0868 84.6319 90.9998 82.3334 90.9998ZM91 51.9998H73.6667V12.9998H91V51.9998ZM86.6667 82.3332C86.6667 83.1902 86.4126 84.028 85.9364 84.7407C85.4603 85.4533 84.7835 86.0087 83.9917 86.3367C83.1998 86.6646 82.3286 86.7505 81.488 86.5833C80.6474 86.416 79.8753 86.0033 79.2692 85.3973C78.6632 84.7913 78.2505 84.0192 78.0833 83.1786C77.9161 82.338 78.0019 81.4667 78.3299 80.6749C78.6579 79.8831 79.2133 79.2063 79.9259 78.7301C80.6385 78.254 81.4763 77.9998 82.3334 77.9998C83.4826 77.9998 84.5848 78.4564 85.3975 79.2691C86.2102 80.0817 86.6667 81.1839 86.6667 82.3332Z" fill="#11A1E1"/>
</svg>
