<svg width="32" height="32" viewBox="0 0 32 32" fill="none" xmlns="http://www.w3.org/2000/svg">
  <path d="M4.60398 30.146L1.59998 27.1904H4.60398V30.146Z" fill="#A43037"/>
  <path d="M27.3956 30.146L30.3999 27.1904H27.3956V30.146Z" fill="#A43037"/>
  <path d="M27.3956 4.72851H22.6027V0.00488281L27.3956 4.72851Z" fill="#B1B1B1"/>
  <path d="M22.6245 0H5.55759C5.0311 0 4.60437 0.421455 4.60437 0.94122V31.0588C4.60437 31.5785 5.0311 32 5.55759 32H26.4428C26.9693 32 27.396 31.5785 27.396 31.0588V4.7058H22.5977L22.6245 0Z" fill="#F0F0F0"/>
  <path d="M2.19969 16.5508H29.7948C30.1257 16.5508 30.3945 16.8157 30.3945 17.1418V27.1905H1.59998V17.1418C1.59998 16.8157 1.86879 16.5508 2.19969 16.5508Z" fill="#C94C4F"/>
  <path d="M11.0033 22.5406V24.2356H9.81714V19.4033H11.7383C12.3209 19.4033 12.7648 19.5459 13.0701 19.8304C13.3754 20.1153 13.5278 20.4993 13.5278 20.9822C13.5278 21.2831 13.4597 21.5504 13.3232 21.785C13.1867 22.0197 12.9848 22.2044 12.7163 22.3387C12.4481 22.4732 12.122 22.5403 11.7383 22.5403H11.0033V22.5406ZM12.3209 20.9822C12.3209 20.5581 12.0828 20.3463 11.6066 20.3463H11.0033V21.6042H11.6066C12.0828 21.6042 12.3209 21.3965 12.3209 20.9822Z" fill="white"/>
  <path d="M18.2126 23.0712C18.0068 23.438 17.7108 23.724 17.3251 23.9289C16.9387 24.1342 16.4846 24.2366 15.962 24.2366H14.1101V19.4043H15.962C16.4891 19.4043 16.9444 19.5047 17.3281 19.7052C17.712 19.9056 18.0068 20.1884 18.2126 20.5528C18.4181 20.9173 18.5212 21.3363 18.5212 21.8104C18.5212 22.2844 18.4181 22.705 18.2126 23.0715V23.0712ZM16.9363 22.8288C17.1931 22.5873 17.3215 22.2479 17.3215 21.8104C17.3215 21.3729 17.1931 21.0334 16.9363 20.7919C16.6798 20.5507 16.3203 20.4296 15.858 20.4296H15.2963V23.1912H15.858C16.3203 23.1912 16.6798 23.0706 16.9363 22.8288Z" fill="white"/>
  <path d="M22.3909 19.4033V20.333H20.3799V21.3921H21.9331V22.2807H20.3799V24.2356H19.1937V19.4033H22.3909Z" fill="white"/>
  <path d="M11.3797 14.6828C10.9557 14.6828 10.6321 14.5171 10.4244 14.2834C9.9784 13.7811 10.0637 12.9831 10.6269 12.3861C11.0968 11.8886 12.4794 11.3439 14.07 10.8784C14.4956 9.77447 14.9093 8.50505 15.2562 7.37612C14.8448 6.39332 14.5661 5.2641 14.5034 3.98547C14.4443 2.78378 15.0534 2.10066 15.6857 2.0472C16.1754 2.00591 16.729 2.35549 16.8396 3.23345C16.8917 3.64718 16.8471 4.09626 16.7079 4.5682L16.5126 5.24212C16.3119 5.93712 16.1064 6.63835 15.8966 7.32593C16.386 8.41862 17.0496 9.31381 17.7461 10.0103C18.7074 9.83595 19.5449 9.73289 20.0383 9.73615C21.3974 9.74358 21.9085 10.315 22.0918 10.6551C22.3048 11.0498 22.2843 11.5218 22.0378 11.8865C21.7759 12.2747 21.3103 12.4784 20.7857 12.4297C20.034 12.3605 18.7502 11.7727 17.5369 10.6456C16.578 10.8306 15.5118 11.0819 14.5215 11.3614C13.9754 12.7267 13.432 13.7434 12.9218 14.0995C12.3191 14.5201 11.8002 14.6828 11.38 14.6828H11.3797ZM13.7895 11.5773C12.4861 11.9803 11.4162 12.4184 11.0663 12.7891C10.6697 13.2091 10.6703 13.6632 10.8756 13.8946C11.1061 14.1539 11.6886 14.2361 12.5747 13.6172C12.9438 13.3594 13.3666 12.5815 13.7892 11.5773H13.7895ZM18.2897 10.5105C19.2764 11.3436 20.2562 11.787 20.8411 11.8408C21.1482 11.8722 21.3986 11.7662 21.5388 11.5589C21.6644 11.3727 21.6735 11.1386 21.5623 10.9328C21.357 10.552 20.8001 10.3317 20.0346 10.3272C19.6263 10.323 19.0052 10.3928 18.2897 10.5105ZM15.6341 8.1727C15.3541 9.06016 15.0694 9.9102 14.784 10.6789C15.5362 10.4769 16.3113 10.2954 17.0391 10.1469C16.5253 9.59181 16.0404 8.93482 15.6341 8.1727ZM15.7658 2.63498C15.7562 2.63498 15.7468 2.63557 15.7369 2.63646C15.4479 2.66111 15.0594 3.08702 15.1025 3.95696C15.1468 4.85274 15.3056 5.67219 15.5461 6.4156C15.6998 5.89732 15.8318 5.43874 15.9352 5.08084L16.1317 4.40336C16.2483 4.00894 16.286 3.64005 16.2441 3.30651C16.1922 2.89426 16.006 2.63527 15.7655 2.63527L15.7658 2.63498Z" fill="#C94C4F"/>
</svg>
