<svg id="outline-discount" viewBox="0 0 104 104" fill="none" xmlns="http://www.w3.org/2000/svg">
  <path d="M55.4233 91L13 48.5767V57.2433C13 59.54 13.91 61.75 15.5567 63.3533L49.3133 97.11C52.6933 100.49 58.1967 100.49 61.5767 97.11L88.4867 70.2C91.8667 66.82 91.8667 61.3167 88.4867 57.9367L55.4233 91Z" fill="#4A8CEF"/>
  <path d="M49.3133 75.4433C51.0033 77.1333 53.2133 78 55.4233 78C57.6333 78 59.8433 77.1333 61.5333 75.4433L88.4433 48.5333C91.8233 45.1533 91.8233 39.65 88.4433 36.27L54.6867 2.51333C53.0833 0.91 50.8733 0 48.5767 0H21.6667C16.9 0 13 3.9 13 8.66667V35.5767C13 37.8733 13.91 40.0833 15.5567 41.6867L49.3133 75.4433ZM21.6667 8.66667H48.5767L82.3333 42.4233L55.4233 69.3333L21.6667 35.5767V8.66667Z" fill="#4A8CEF"/>
  <path d="M31.4167 23.8333C34.4082 23.8333 36.8333 21.4082 36.8333 18.4167C36.8333 15.4251 34.4082 13 31.4167 13C28.4251 13 26 15.4251 26 18.4167C26 21.4082 28.4251 23.8333 31.4167 23.8333Z" fill="#4A8CEF"/>
</svg>
