<svg id="people-audience" viewBox="0 0 104 104" fill="none" xmlns="http://www.w3.org/2000/svg">
  <path d="M63.934 43.3333C68.12 43.3333 71.5173 46.7307 71.5173 50.9167V65H71.5V66.0833C71.5 66.9453 71.1576 67.7719 70.5481 68.3814C69.9386 68.9909 69.112 69.3333 68.25 69.3333C67.3881 69.3333 66.5614 68.9909 65.9519 68.3814C65.3424 67.7719 65 66.9453 65 66.0833V56.3333H65.0173V50.9167C65.0173 50.6293 64.9032 50.3538 64.7 50.1506C64.4969 49.9475 64.2213 49.8333 63.934 49.8333H40.092C39.8047 49.8333 39.5291 49.9475 39.326 50.1506C39.1228 50.3538 39.0087 50.6293 39.0087 50.9167V65H39V66.0833C39 66.9453 38.6576 67.7719 38.0481 68.3814C37.4386 68.9909 36.612 69.3333 35.75 69.3333C34.8881 69.3333 34.0614 68.9909 33.4519 68.3814C32.8424 67.7719 32.5 66.9453 32.5 66.0833V56.3333H32.5087V50.9167C32.5087 46.7307 35.9017 43.3333 40.092 43.3333H63.934ZM88.8334 50.9167V66.0833C88.8334 66.9453 89.1758 67.7719 89.7852 68.3814C90.3947 68.9909 91.2214 69.3333 92.0834 69.3333C92.9453 69.3333 93.772 68.9909 94.3814 68.3814C94.9909 67.7719 95.3333 66.9453 95.3333 66.0833V50.9167C95.3334 48.9054 94.5344 46.9766 93.1122 45.5544C91.6901 44.1323 89.7612 43.3333 87.75 43.3333H73.125C74.6114 45.1317 75.582 47.372 75.803 49.8333H87.75C88.0373 49.8333 88.3129 49.9475 88.516 50.1506C88.7192 50.3538 88.8334 50.6293 88.8334 50.9167ZM8.66669 66.0833C8.66669 66.9453 9.0091 67.7719 9.61859 68.3814C10.2281 68.9909 11.0547 69.3333 11.9167 69.3333C12.7786 69.3333 13.6053 68.9909 14.2148 68.3814C14.8243 67.7719 15.1667 66.9453 15.1667 66.0833V50.9167C15.1667 50.6293 15.2808 50.3538 15.484 50.1506C15.6872 49.9475 15.9627 49.8333 16.25 49.8333H28.223C28.4386 47.4459 29.3722 45.1797 30.901 43.3333H16.25C14.2388 43.3333 12.3099 44.1323 10.8878 45.5544C9.46564 46.9766 8.66669 48.9054 8.66669 50.9167V66.0833ZM52 13C55.4478 13 58.7544 14.3696 61.1924 16.8076C63.6304 19.2456 65 22.5522 65 26C65 29.4478 63.6304 32.7544 61.1924 35.1924C58.7544 37.6304 55.4478 39 52 39C48.5522 39 45.2456 37.6304 42.8076 35.1924C40.3697 32.7544 39 29.4478 39 26C39 22.5522 40.3697 19.2456 42.8076 16.8076C45.2456 14.3696 48.5522 13 52 13ZM52 19.5C50.2761 19.5 48.6228 20.1848 47.4038 21.4038C46.1848 22.6228 45.5 24.2761 45.5 26C45.5 27.7239 46.1848 29.3772 47.4038 30.5962C48.6228 31.8152 50.2761 32.5 52 32.5C53.7239 32.5 55.3772 31.8152 56.5962 30.5962C57.8152 29.3772 58.5 27.7239 58.5 26C58.5 24.2761 57.8152 22.6228 56.5962 21.4038C55.3772 20.1848 53.7239 19.5 52 19.5ZM80.1667 17.3333C83.0399 17.3333 85.7954 18.4747 87.827 20.5063C89.8587 22.538 91 25.2935 91 28.1667C91 31.0398 89.8587 33.7953 87.827 35.827C85.7954 37.8586 83.0399 39 80.1667 39C77.2935 39 74.538 37.8586 72.5064 35.827C70.4747 33.7953 69.3333 31.0398 69.3334 28.1667C69.3333 25.2935 70.4747 22.538 72.5064 20.5063C74.538 18.4747 77.2935 17.3333 80.1667 17.3333ZM80.1667 23.8333C79.0174 23.8333 77.9152 24.2899 77.1025 25.1025C76.2899 25.9152 75.8334 27.0174 75.8334 28.1667C75.8334 29.3159 76.2899 30.4181 77.1025 31.2308C77.9152 32.0435 79.0174 32.5 80.1667 32.5C81.316 32.5 82.4182 32.0435 83.2308 31.2308C84.0435 30.4181 84.5 29.3159 84.5 28.1667C84.5 27.0174 84.0435 25.9152 83.2308 25.1025C82.4182 24.2899 81.316 23.8333 80.1667 23.8333ZM23.8334 17.3333C26.7065 17.3333 29.462 18.4747 31.4937 20.5063C33.5253 22.538 34.6667 25.2935 34.6667 28.1667C34.6667 31.0398 33.5253 33.7953 31.4937 35.827C29.462 37.8586 26.7065 39 23.8334 39C20.9602 39 18.2047 37.8586 16.173 35.827C14.1414 33.7953 13 31.0398 13 28.1667C13 25.2935 14.1414 22.538 16.173 20.5063C18.2047 18.4747 20.9602 17.3333 23.8334 17.3333ZM23.8334 23.8333C22.6841 23.8333 21.5819 24.2899 20.7692 25.1025C19.9566 25.9152 19.5 27.0174 19.5 28.1667C19.5 29.3159 19.9566 30.4181 20.7692 31.2308C21.5819 32.0435 22.6841 32.5 23.8334 32.5C24.9826 32.5 26.0848 32.0435 26.8975 31.2308C27.7101 30.4181 28.1667 29.3159 28.1667 28.1667C28.1667 27.0174 27.7101 25.9152 26.8975 25.1025C26.0848 24.2899 24.9826 23.8333 23.8334 23.8333ZM11.9167 73.6667C11.0547 73.6667 10.2281 74.0091 9.61859 74.6186C9.0091 75.2281 8.66669 76.0547 8.66669 76.9167V79.0833C8.66669 83.3931 10.3787 87.5264 13.4262 90.5738C16.4737 93.6213 20.6069 95.3333 24.9167 95.3333H79.0834C83.3931 95.3333 87.5264 93.6213 90.5738 90.5738C93.6213 87.5264 95.3333 83.3931 95.3333 79.0833V76.9167C95.3333 76.0547 94.9909 75.2281 94.3814 74.6186C93.772 74.0091 92.9453 73.6667 92.0834 73.6667H11.9167ZM24.9167 88.8333C22.5185 88.8333 20.2044 87.9493 18.4169 86.3505C16.6294 84.7516 15.4938 82.55 15.2274 80.1667H88.7727C88.5062 82.55 87.3707 84.7516 85.5832 86.3505C83.7957 87.9493 81.4816 88.8333 79.0834 88.8333H24.9167Z" fill="#BF1006"/>
</svg>
