<svg id="sales-performance" viewBox="0 0 104 104" fill="none" xmlns="http://www.w3.org/2000/svg">
  <path d="M82.3334 28.1668C75.1834 28.1668 69.3334 26.2168 69.3334 23.8335V28.1668C69.3334 30.5502 75.1834 32.5002 82.3334 32.5002C89.4834 32.5002 95.3334 30.5502 95.3334 28.1668V23.8335C95.3334 26.2168 89.4834 28.1668 82.3334 28.1668Z" fill="#FFA000"/>
  <path d="M82.3334 21.6668C75.1834 21.6668 69.3334 19.7168 69.3334 17.3335V21.6668C69.3334 24.0502 75.1834 26.0002 82.3334 26.0002C89.4834 26.0002 95.3334 24.0502 95.3334 21.6668V17.3335C95.3334 19.7168 89.4834 21.6668 82.3334 21.6668ZM82.3334 34.6668C75.1834 34.6668 69.3334 32.7168 69.3334 30.3335V34.6668C69.3334 37.0502 75.1834 39.0002 82.3334 39.0002C89.4834 39.0002 95.3334 37.0502 95.3334 34.6668V30.3335C95.3334 32.7168 89.4834 34.6668 82.3334 34.6668Z" fill="#FFA000"/>
  <path d="M82.3334 41.1668C75.1834 41.1668 69.3334 39.2168 69.3334 36.8335V41.1668C69.3334 43.5502 75.1834 45.5002 82.3334 45.5002C89.4834 45.5002 95.3334 43.5502 95.3334 41.1668V36.8335C95.3334 39.2168 89.4834 41.1668 82.3334 41.1668Z" fill="#FFA000"/>
  <path d="M82.3334 47.6668C75.1834 47.6668 69.3334 45.7168 69.3334 43.3335V47.6668C69.3334 50.0502 75.1834 52.0002 82.3334 52.0002C89.4834 52.0002 95.3334 50.0502 95.3334 47.6668V43.3335C95.3334 45.7168 89.4834 47.6668 82.3334 47.6668Z" fill="#FFA000"/>
  <path d="M82.3334 54.1668C75.1834 54.1668 69.3334 52.2168 69.3334 49.8335V54.1668C69.3334 56.5502 75.1834 58.5002 82.3334 58.5002C89.4834 58.5002 95.3334 56.5502 95.3334 54.1668V49.8335C95.3334 52.2168 89.4834 54.1668 82.3334 54.1668Z" fill="#FFA000"/>
  <path d="M82.3334 60.6668C75.1834 60.6668 69.3334 58.7168 69.3334 56.3335V60.6668C69.3334 63.0502 75.1834 65.0002 82.3334 65.0002C89.4834 65.0002 95.3334 63.0502 95.3334 60.6668V56.3335C95.3334 58.7168 89.4834 60.6668 82.3334 60.6668Z" fill="#FFA000"/>
  <path d="M82.3334 67.1668C75.1834 67.1668 69.3334 65.2168 69.3334 62.8335V67.1668C69.3334 69.5502 75.1834 71.5002 82.3334 71.5002C89.4834 71.5002 95.3334 69.5502 95.3334 67.1668V62.8335C95.3334 65.2168 89.4834 67.1668 82.3334 67.1668Z" fill="#FFA000"/>
  <path d="M82.3334 73.6668C75.1834 73.6668 69.3334 71.7168 69.3334 69.3335V73.6668C69.3334 76.0502 75.1834 78.0002 82.3334 78.0002C89.4834 78.0002 95.3334 76.0502 95.3334 73.6668V69.3335C95.3334 71.7168 89.4834 73.6668 82.3334 73.6668Z" fill="#FFA000"/>
  <path d="M82.3334 80.1668C75.1834 80.1668 69.3334 78.2168 69.3334 75.8335V80.1668C69.3334 82.5502 75.1834 84.5002 82.3334 84.5002C89.4834 84.5002 95.3334 82.5502 95.3334 80.1668V75.8335C95.3334 78.2168 89.4834 80.1668 82.3334 80.1668Z" fill="#FFA000"/>
  <path d="M82.3334 86.6668C75.1834 86.6668 69.3334 84.7168 69.3334 82.3335V86.6668C69.3334 89.0502 75.1834 91.0002 82.3334 91.0002C89.4834 91.0002 95.3334 89.0502 95.3334 86.6668V82.3335C95.3334 84.7168 89.4834 86.6668 82.3334 86.6668Z" fill="#FFA000"/>
  <path d="M82.3334 21.6667C89.5131 21.6667 95.3334 19.7266 95.3334 17.3333C95.3334 14.9401 89.5131 13 82.3334 13C75.1537 13 69.3334 14.9401 69.3334 17.3333C69.3334 19.7266 75.1537 21.6667 82.3334 21.6667Z" fill="#FFC107"/>
  <path d="M82.3334 26C76.2667 26 71.2834 24.7 69.7667 22.75C69.55 23.1833 69.3334 23.4 69.3334 23.8333C69.3334 26.2167 75.1834 28.1667 82.3334 28.1667C89.4834 28.1667 95.3334 26.2167 95.3334 23.8333C95.3334 23.4 95.1167 23.1833 94.9 22.75C93.3834 24.7 88.4 26 82.3334 26ZM82.3334 32.5C76.2667 32.5 71.2834 31.2 69.7667 29.25C69.55 29.6833 69.3334 29.9 69.3334 30.3333C69.3334 32.7167 75.1834 34.6667 82.3334 34.6667C89.4834 34.6667 95.3334 32.7167 95.3334 30.3333C95.3334 29.9 95.1167 29.6833 94.9 29.25C93.3834 31.2 88.4 32.5 82.3334 32.5ZM82.3334 39C76.2667 39 71.2834 37.7 69.7667 35.75C69.55 36.1833 69.3334 36.4 69.3334 36.8333C69.3334 39.2167 75.1834 41.1667 82.3334 41.1667C89.4834 41.1667 95.3334 39.2167 95.3334 36.8333C95.3334 36.4 95.1167 36.1833 94.9 35.75C93.3834 37.7 88.4 39 82.3334 39ZM82.3334 45.5C76.2667 45.5 71.2834 44.2 69.7667 42.25C69.55 42.6833 69.3334 42.9 69.3334 43.3333C69.3334 45.7167 75.1834 47.6667 82.3334 47.6667C89.4834 47.6667 95.3334 45.7167 95.3334 43.3333C95.3334 42.9 95.1167 42.6833 94.9 42.25C93.3834 44.2 88.4 45.5 82.3334 45.5ZM82.3334 52C76.2667 52 71.2834 50.7 69.7667 48.75C69.55 49.1833 69.3334 49.4 69.3334 49.8333C69.3334 52.2167 75.1834 54.1667 82.3334 54.1667C89.4834 54.1667 95.3334 52.2167 95.3334 49.8333C95.3334 49.4 95.1167 49.1833 94.9 48.75C93.3834 50.7 88.4 52 82.3334 52ZM82.3334 58.5C76.2667 58.5 71.2834 57.2 69.7667 55.25C69.55 55.6833 69.3334 55.9 69.3334 56.3333C69.3334 58.7167 75.1834 60.6667 82.3334 60.6667C89.4834 60.6667 95.3334 58.7167 95.3334 56.3333C95.3334 55.9 95.1167 55.6833 94.9 55.25C93.3834 57.2 88.4 58.5 82.3334 58.5ZM82.3334 65C76.2667 65 71.2834 63.7 69.7667 61.75C69.55 62.1833 69.3334 62.4 69.3334 62.8333C69.3334 65.2167 75.1834 67.1667 82.3334 67.1667C89.4834 67.1667 95.3334 65.2167 95.3334 62.8333C95.3334 62.4 95.1167 62.1833 94.9 61.75C93.3834 63.7 88.4 65 82.3334 65ZM82.3334 71.5C76.2667 71.5 71.2834 70.2 69.7667 68.25C69.55 68.6833 69.3334 68.9 69.3334 69.3333C69.3334 71.7167 75.1834 73.6667 82.3334 73.6667C89.4834 73.6667 95.3334 71.7167 95.3334 69.3333C95.3334 68.9 95.1167 68.6833 94.9 68.25C93.3834 70.2 88.4 71.5 82.3334 71.5ZM82.3334 78C76.2667 78 71.2834 76.7 69.7667 74.75C69.55 75.1833 69.3334 75.4 69.3334 75.8333C69.3334 78.2167 75.1834 80.1667 82.3334 80.1667C89.4834 80.1667 95.3334 78.2167 95.3334 75.8333C95.3334 75.4 95.1167 75.1833 94.9 74.75C93.3834 76.7 88.4 78 82.3334 78ZM82.3334 84.5C76.2667 84.5 71.2834 83.2 69.7667 81.25C69.55 81.6833 69.3334 81.9 69.3334 82.3333C69.3334 84.7167 75.1834 86.6667 82.3334 86.6667C89.4834 86.6667 95.3334 84.7167 95.3334 82.3333C95.3334 81.9 95.1167 81.6833 94.9 81.25C93.3834 83.2 88.4 84.5 82.3334 84.5Z" fill="#FFC107"/>
  <path d="M21.6666 41.1668C14.5166 41.1668 8.66663 39.2168 8.66663 36.8335V41.1668C8.66663 43.5502 14.5166 45.5002 21.6666 45.5002C28.8166 45.5002 34.6666 43.5502 34.6666 41.1668V36.8335C34.6666 39.2168 28.8166 41.1668 21.6666 41.1668Z" fill="#FFA000"/>
  <path d="M21.6666 34.6668C14.5166 34.6668 8.66663 32.7168 8.66663 30.3335V34.6668C8.66663 37.0502 14.5166 39.0002 21.6666 39.0002C28.8166 39.0002 34.6666 37.0502 34.6666 34.6668V30.3335C34.6666 32.7168 28.8166 34.6668 21.6666 34.6668ZM21.6666 47.6668C14.5166 47.6668 8.66663 45.7168 8.66663 43.3335V47.6668C8.66663 50.0502 14.5166 52.0002 21.6666 52.0002C28.8166 52.0002 34.6666 50.0502 34.6666 47.6668V43.3335C34.6666 45.7168 28.8166 47.6668 21.6666 47.6668Z" fill="#FFA000"/>
  <path d="M21.6666 54.1668C14.5166 54.1668 8.66663 52.2168 8.66663 49.8335V54.1668C8.66663 56.5502 14.5166 58.5002 21.6666 58.5002C28.8166 58.5002 34.6666 56.5502 34.6666 54.1668V49.8335C34.6666 52.2168 28.8166 54.1668 21.6666 54.1668Z" fill="#FFA000"/>
  <path d="M21.6666 60.6668C14.5166 60.6668 8.66663 58.7168 8.66663 56.3335V60.6668C8.66663 63.0502 14.5166 65.0002 21.6666 65.0002C28.8166 65.0002 34.6666 63.0502 34.6666 60.6668V56.3335C34.6666 58.7168 28.8166 60.6668 21.6666 60.6668Z" fill="#FFA000"/>
  <path d="M21.6666 67.1668C14.5166 67.1668 8.66663 65.2168 8.66663 62.8335V67.1668C8.66663 69.5502 14.5166 71.5002 21.6666 71.5002C28.8166 71.5002 34.6666 69.5502 34.6666 67.1668V62.8335C34.6666 65.2168 28.8166 67.1668 21.6666 67.1668Z" fill="#FFA000"/>
  <path d="M21.6666 73.6668C14.5166 73.6668 8.66663 71.7168 8.66663 69.3335V73.6668C8.66663 76.0502 14.5166 78.0002 21.6666 78.0002C28.8166 78.0002 34.6666 76.0502 34.6666 73.6668V69.3335C34.6666 71.7168 28.8166 73.6668 21.6666 73.6668Z" fill="#FFA000"/>
  <path d="M21.6666 80.1668C14.5166 80.1668 8.66663 78.2168 8.66663 75.8335V80.1668C8.66663 82.5502 14.5166 84.5002 21.6666 84.5002C28.8166 84.5002 34.6666 82.5502 34.6666 80.1668V75.8335C34.6666 78.2168 28.8166 80.1668 21.6666 80.1668Z" fill="#FFA000"/>
  <path d="M21.6666 86.6668C14.5166 86.6668 8.66663 84.7168 8.66663 82.3335V86.6668C8.66663 89.0502 14.5166 91.0002 21.6666 91.0002C28.8166 91.0002 34.6666 89.0502 34.6666 86.6668V82.3335C34.6666 84.7168 28.8166 86.6668 21.6666 86.6668Z" fill="#FFA000"/>
  <path d="M21.6666 34.6667C28.8463 34.6667 34.6666 32.7266 34.6666 30.3333C34.6666 27.9401 28.8463 26 21.6666 26C14.4869 26 8.66663 27.9401 8.66663 30.3333C8.66663 32.7266 14.4869 34.6667 21.6666 34.6667Z" fill="#FFC107"/>
  <path d="M21.6666 39C15.6 39 10.6166 37.7 9.09996 35.75C8.88329 36.1833 8.66663 36.4 8.66663 36.8333C8.66663 39.2167 14.5166 41.1667 21.6666 41.1667C28.8166 41.1667 34.6666 39.2167 34.6666 36.8333C34.6666 36.4 34.45 36.1833 34.2333 35.75C32.7166 37.7 27.7333 39 21.6666 39ZM21.6666 45.5C15.6 45.5 10.6166 44.2 9.09996 42.25C8.88329 42.6833 8.66663 42.9 8.66663 43.3333C8.66663 45.7167 14.5166 47.6667 21.6666 47.6667C28.8166 47.6667 34.6666 45.7167 34.6666 43.3333C34.6666 42.9 34.45 42.6833 34.2333 42.25C32.7166 44.2 27.7333 45.5 21.6666 45.5ZM21.6666 52C15.6 52 10.6166 50.7 9.09996 48.75C8.88329 49.1833 8.66663 49.4 8.66663 49.8333C8.66663 52.2167 14.5166 54.1667 21.6666 54.1667C28.8166 54.1667 34.6666 52.2167 34.6666 49.8333C34.6666 49.4 34.45 49.1833 34.2333 48.75C32.7166 50.7 27.7333 52 21.6666 52ZM21.6666 58.5C15.6 58.5 10.6166 57.2 9.09996 55.25C8.88329 55.6833 8.66663 55.9 8.66663 56.3333C8.66663 58.7167 14.5166 60.6667 21.6666 60.6667C28.8166 60.6667 34.6666 58.7167 34.6666 56.3333C34.6666 55.9 34.45 55.6833 34.2333 55.25C32.7166 57.2 27.7333 58.5 21.6666 58.5ZM21.6666 65C15.6 65 10.6166 63.7 9.09996 61.75C8.88329 62.1833 8.66663 62.4 8.66663 62.8333C8.66663 65.2167 14.5166 67.1667 21.6666 67.1667C28.8166 67.1667 34.6666 65.2167 34.6666 62.8333C34.6666 62.4 34.45 62.1833 34.2333 61.75C32.7166 63.7 27.7333 65 21.6666 65ZM21.6666 71.5C15.6 71.5 10.6166 70.2 9.09996 68.25C8.88329 68.6833 8.66663 68.9 8.66663 69.3333C8.66663 71.7167 14.5166 73.6667 21.6666 73.6667C28.8166 73.6667 34.6666 71.7167 34.6666 69.3333C34.6666 68.9 34.45 68.6833 34.2333 68.25C32.7166 70.2 27.7333 71.5 21.6666 71.5ZM21.6666 78C15.6 78 10.6166 76.7 9.09996 74.75C8.88329 75.1833 8.66663 75.4 8.66663 75.8333C8.66663 78.2167 14.5166 80.1667 21.6666 80.1667C28.8166 80.1667 34.6666 78.2167 34.6666 75.8333C34.6666 75.4 34.45 75.1833 34.2333 74.75C32.7166 76.7 27.7333 78 21.6666 78ZM21.6666 84.5C15.6 84.5 10.6166 83.2 9.09996 81.25C8.88329 81.6833 8.66663 81.9 8.66663 82.3333C8.66663 84.7167 14.5166 86.6667 21.6666 86.6667C28.8166 86.6667 34.6666 84.7167 34.6666 82.3333C34.6666 81.9 34.45 81.6833 34.2333 81.25C32.7166 83.2 27.7333 84.5 21.6666 84.5Z" fill="#FFC107"/>
  <path d="M52 60.6668C44.85 60.6668 39 58.7168 39 56.3335V60.6668C39 63.0502 44.85 65.0002 52 65.0002C59.15 65.0002 65 63.0502 65 60.6668V56.3335C65 58.7168 59.15 60.6668 52 60.6668Z" fill="#FFA000"/>
  <path d="M52 54.1668C44.85 54.1668 39 52.2168 39 49.8335V54.1668C39 56.5502 44.85 58.5002 52 58.5002C59.15 58.5002 65 56.5502 65 54.1668V49.8335C65 52.2168 59.15 54.1668 52 54.1668ZM52 67.1668C44.85 67.1668 39 65.2168 39 62.8335V67.1668C39 69.5502 44.85 71.5002 52 71.5002C59.15 71.5002 65 69.5502 65 67.1668V62.8335C65 65.2168 59.15 67.1668 52 67.1668Z" fill="#FFA000"/>
  <path d="M52 73.6668C44.85 73.6668 39 71.7168 39 69.3335V73.6668C39 76.0502 44.85 78.0002 52 78.0002C59.15 78.0002 65 76.0502 65 73.6668V69.3335C65 71.7168 59.15 73.6668 52 73.6668Z" fill="#FFA000"/>
  <path d="M52 80.1668C44.85 80.1668 39 78.2168 39 75.8335V80.1668C39 82.5502 44.85 84.5002 52 84.5002C59.15 84.5002 65 82.5502 65 80.1668V75.8335C65 78.2168 59.15 80.1668 52 80.1668Z" fill="#FFA000"/>
  <path d="M52 86.6668C44.85 86.6668 39 84.7168 39 82.3335V86.6668C39 89.0502 44.85 91.0002 52 91.0002C59.15 91.0002 65 89.0502 65 86.6668V82.3335C65 84.7168 59.15 86.6668 52 86.6668Z" fill="#FFA000"/>
  <path d="M52 54.1667C59.1797 54.1667 65 52.2266 65 49.8333C65 47.4401 59.1797 45.5 52 45.5C44.8203 45.5 39 47.4401 39 49.8333C39 52.2266 44.8203 54.1667 52 54.1667Z" fill="#FFC107"/>
  <path d="M52 58.5C45.9333 58.5 40.95 57.2 39.4333 55.25C39.2167 55.6833 39 55.9 39 56.3333C39 58.7167 44.85 60.6667 52 60.6667C59.15 60.6667 65 58.7167 65 56.3333C65 55.9 64.7833 55.6833 64.5667 55.25C63.05 57.2 58.0667 58.5 52 58.5ZM52 65C45.9333 65 40.95 63.7 39.4333 61.75C39.2167 62.1833 39 62.4 39 62.8333C39 65.2167 44.85 67.1667 52 67.1667C59.15 67.1667 65 65.2167 65 62.8333C65 62.4 64.7833 62.1833 64.5667 61.75C63.05 63.7 58.0667 65 52 65ZM52 71.5C45.9333 71.5 40.95 70.2 39.4333 68.25C39.2167 68.6833 39 68.9 39 69.3333C39 71.7167 44.85 73.6667 52 73.6667C59.15 73.6667 65 71.7167 65 69.3333C65 68.9 64.7833 68.6833 64.5667 68.25C63.05 70.2 58.0667 71.5 52 71.5ZM52 78C45.9333 78 40.95 76.7 39.4333 74.75C39.2167 75.1833 39 75.4 39 75.8333C39 78.2167 44.85 80.1667 52 80.1667C59.15 80.1667 65 78.2167 65 75.8333C65 75.4 64.7833 75.1833 64.5667 74.75C63.05 76.7 58.0667 78 52 78ZM52 84.5C45.9333 84.5 40.95 83.2 39.4333 81.25C39.2167 81.6833 39 81.9 39 82.3333C39 84.7167 44.85 86.6667 52 86.6667C59.15 86.6667 65 84.7167 65 82.3333C65 81.9 64.7833 81.6833 64.5667 81.25C63.05 83.2 58.0667 84.5 52 84.5Z" fill="#FFC107"/>
</svg>
