<svg id="warehouse" viewBox="0 0 104 104" fill="none" xmlns="http://www.w3.org/2000/svg">
  <path d="M93.6 34.6669C93.0718 34.6691 92.5501 34.5505 92.0747 34.3202L52 13.8669L11.9253 34.1816C11.0703 34.5861 10.0895 34.6344 9.19886 34.3159C8.30819 33.9973 7.58054 33.338 7.176 32.4829C6.77146 31.6278 6.72315 30.6471 7.04172 29.7564C7.36028 28.8658 8.01961 28.1381 8.87467 27.7336L52 6.37891L95.1253 27.7336C96.0344 27.9459 96.8232 28.5078 97.3209 29.2976C97.8187 30.0873 97.9853 31.0414 97.7847 31.9531C97.5841 32.8648 97.0325 33.6608 96.2493 34.1688C95.466 34.6767 94.5142 34.8557 93.6 34.6669ZM34.6667 69.3336H13.8667V90.1336H34.6667V69.3336ZM62.4 69.3336H41.6V90.1336H62.4V69.3336ZM90.1333 69.3336H69.3333V90.1336H90.1333V69.3336ZM76.2667 41.6002H55.4667V62.4002H76.2667V41.6002ZM48.5333 41.6002H27.7333V62.4002H48.5333V41.6002Z" fill="#A77C34"/>
</svg>
