<svg id="add-circle-outline-rounded" viewBox="0 0 28 29" fill="none" xmlns="http://www.w3.org/2000/svg">
  <path
    d="M14.0002 20.2188C14.3307 20.2188 14.608 20.1068 14.832 19.8828C15.0552 19.6595 15.1668 19.3826 15.1668 19.0521V15.5521H18.696C19.0266 15.5521 19.2988 15.4401 19.5127 15.2161C19.7266 14.9929 19.8335 14.716 19.8335 14.3854C19.8335 14.0549 19.7215 13.7776 19.4975 13.5536C19.2743 13.3304 18.9974 13.2188 18.6668 13.2188H15.1668V9.68958C15.1668 9.35903 15.0552 9.08681 14.832 8.87292C14.608 8.65903 14.3307 8.55208 14.0002 8.55208C13.6696 8.55208 13.3927 8.66369 13.1695 8.88692C12.9455 9.11092 12.8335 9.3882 12.8335 9.71875V13.2188H9.30433C8.97377 13.2188 8.70155 13.3304 8.48766 13.5536C8.27377 13.7776 8.16683 14.0549 8.16683 14.3854C8.16683 14.716 8.27844 14.9929 8.50166 15.2161C8.72566 15.4401 9.00294 15.5521 9.3335 15.5521H12.8335V19.0813C12.8335 19.4118 12.9455 19.684 13.1695 19.8979C13.3927 20.1118 13.6696 20.2188 14.0002 20.2188ZM14.0002 26.0521C12.3863 26.0521 10.8696 25.7456 9.45016 25.1328C8.03072 24.5206 6.796 23.6896 5.746 22.6396C4.696 21.5896 3.86494 20.3549 3.25283 18.9354C2.63994 17.516 2.3335 15.9993 2.3335 14.3854C2.3335 12.7715 2.63994 11.2549 3.25283 9.83542C3.86494 8.41597 4.696 7.18125 5.746 6.13125C6.796 5.08125 8.03072 4.24981 9.45016 3.63692C10.8696 3.02481 12.3863 2.71875 14.0002 2.71875C15.6141 2.71875 17.1307 3.02481 18.5502 3.63692C19.9696 4.24981 21.2043 5.08125 22.2543 6.13125C23.3043 7.18125 24.1354 8.41597 24.7475 9.83542C25.3604 11.2549 25.6668 12.7715 25.6668 14.3854C25.6668 15.9993 25.3604 17.516 24.7475 18.9354C24.1354 20.3549 23.3043 21.5896 22.2543 22.6396C21.2043 23.6896 19.9696 24.5206 18.5502 25.1328C17.1307 25.7456 15.6141 26.0521 14.0002 26.0521ZM14.0002 23.7188C16.5863 23.7188 18.7886 22.8099 20.607 20.9923C22.4247 19.1738 23.3335 16.9715 23.3335 14.3854C23.3335 11.7993 22.4247 9.59703 20.607 7.77858C18.7886 5.96092 16.5863 5.05208 14.0002 5.05208C11.4141 5.05208 9.21216 5.96092 7.3945 7.77858C5.57605 9.59703 4.66683 11.7993 4.66683 14.3854C4.66683 16.9715 5.57605 19.1738 7.3945 20.9923C9.21216 22.8099 11.4141 23.7188 14.0002 23.7188Z"
    fill="currentColor" />
</svg>
