<svg viewBox="0 0 29 28" fill="none" xmlns="http://www.w3.org/2000/svg">
  <path d="M14.5 19.834C14.8306 19.834 15.1078 19.722 15.3318 19.498C15.5551 19.2748 15.6667 18.9979 15.6667 18.6673V15.1673H19.1958C19.5264 15.1673 19.7986 15.0553 20.0125 14.8313C20.2264 14.6081 20.3333 14.3312 20.3333 14.0007C20.3333 13.6701 20.2213 13.3928 19.9973 13.1688C19.7741 12.9456 19.4972 12.834 19.1667 12.834H15.6667V9.30482C15.6667 8.97426 15.5551 8.70204 15.3318 8.48815C15.1078 8.27426 14.8306 8.16732 14.5 8.16732C14.1694 8.16732 13.8926 8.27893 13.6693 8.50215C13.4453 8.72615 13.3333 9.00343 13.3333 9.33398V12.834H9.80416C9.47361 12.834 9.20138 12.9456 8.9875 13.1688C8.77361 13.3928 8.66666 13.6701 8.66666 14.0007C8.66666 14.3312 8.77827 14.6081 9.0015 14.8313C9.2255 15.0553 9.50277 15.1673 9.83333 15.1673H13.3333V18.6965C13.3333 19.027 13.4453 19.2993 13.6693 19.5132C13.8926 19.727 14.1694 19.834 14.5 19.834ZM14.5 25.6673C12.8861 25.6673 11.3694 25.3609 9.95 24.748C8.53055 24.1359 7.29583 23.3048 6.24583 22.2548C5.19583 21.2048 4.36477 19.9701 3.75266 18.5507C3.13977 17.1312 2.83333 15.6145 2.83333 14.0007C2.83333 12.3868 3.13977 10.8701 3.75266 9.45065C4.36477 8.03121 5.19583 6.79648 6.24583 5.74648C7.29583 4.69648 8.53055 3.86504 9.95 3.25215C11.3694 2.64004 12.8861 2.33398 14.5 2.33398C16.1139 2.33398 17.6306 2.64004 19.05 3.25215C20.4694 3.86504 21.7042 4.69648 22.7542 5.74648C23.8042 6.79648 24.6352 8.03121 25.2473 9.45065C25.8602 10.8701 26.1667 12.3868 26.1667 14.0007C26.1667 15.6145 25.8602 17.1312 25.2473 18.5507C24.6352 19.9701 23.8042 21.2048 22.7542 22.2548C21.7042 23.3048 20.4694 24.1359 19.05 24.748C17.6306 25.3609 16.1139 25.6673 14.5 25.6673Z" fill="currentColor"/>
</svg>
