<svg width="80" height="80" viewBox="0 0 80 80" fill="none" xmlns="http://www.w3.org/2000/svg">
<path d="M70.0036 22.22C69.4151 22.5248 68.7297 22.5834 68.098 22.383C67.4663 22.1826 66.9401 21.7396 66.6349 21.1513C64.2486 16.4372 60.6367 12.4529 56.1786 9.61692C55.9008 9.44169 55.6602 9.21345 55.4706 8.94523C55.281 8.67702 55.146 8.37408 55.0735 8.05372C55.001 7.73336 54.9922 7.40184 55.0478 7.07811C55.1034 6.75437 55.2222 6.44475 55.3974 6.16692C55.5726 5.88909 55.8009 5.6485 56.0691 5.45888C56.3373 5.26926 56.6402 5.13432 56.9606 5.06178C57.281 4.98923 57.6125 4.98049 57.9362 5.03607C58.2599 5.09164 58.5696 5.21044 58.8474 5.38567C64.043 8.71234 68.2618 13.3593 71.0724 18.8513C71.3771 19.4398 71.4357 20.1252 71.2353 20.7569C71.0349 21.3886 70.5919 21.9149 70.0036 22.22ZM11.163 22.5013C11.621 22.5011 12.0702 22.3751 12.4615 22.137C12.8527 21.899 13.1711 21.558 13.3818 21.1513C15.768 16.4372 19.3799 12.4529 23.838 9.61692C24.3991 9.26302 24.7966 8.70072 24.9432 8.05372C25.0897 7.40672 24.9732 6.72802 24.6193 6.16692C24.2654 5.60582 23.7031 5.20829 23.0561 5.06178C22.4091 4.91526 21.7304 5.03177 21.1693 5.38567C15.9736 8.71234 11.7548 13.3593 8.94427 18.8513C8.74688 19.2323 8.65089 19.6577 8.66552 20.0865C8.68014 20.5154 8.8049 20.9332 9.02779 21.2999C9.25068 21.6665 9.56418 21.9697 9.93814 22.1801C10.3121 22.3905 10.7339 22.5011 11.163 22.5013ZM69.3193 54.9825C69.7622 55.7421 69.997 56.6049 70 57.4841C70.003 58.3633 69.7741 59.2278 69.3365 59.9903C68.8988 60.7529 68.2678 61.3865 67.5071 61.8273C66.7464 62.2682 65.8829 62.5007 65.0036 62.5013H52.2536C51.6799 65.327 50.1468 67.8675 47.9143 69.6922C45.6818 71.517 42.887 72.5138 40.0036 72.5138C37.1203 72.5138 34.3255 71.517 32.093 69.6922C29.8605 67.8675 28.3274 65.327 27.7536 62.5013H15.0036C14.125 62.4996 13.2622 62.2663 12.5024 61.825C11.7426 61.3837 11.1125 60.75 10.6755 59.9876C10.2386 59.2253 10.0103 58.3612 10.0135 57.4826C10.0168 56.6039 10.2516 55.7416 10.6943 54.9825C13.5099 50.1232 15.0036 43.2138 15.0036 35.0013C15.0036 28.3709 17.6376 22.012 22.326 17.3236C27.0144 12.6352 33.3732 10.0013 40.0036 10.0013C46.6341 10.0013 52.9929 12.6352 57.6813 17.3236C62.3697 22.012 65.0036 28.3709 65.0036 35.0013C65.0036 43.2107 66.4974 50.12 69.3193 54.9825ZM47.0724 62.5013H32.9349C33.4528 63.962 34.4105 65.2263 35.6763 66.1205C36.9421 67.0147 38.4539 67.4947 40.0036 67.4947C41.5534 67.4947 43.0651 67.0147 44.3309 66.1205C45.5967 65.2263 46.5544 63.962 47.0724 62.5013ZM65.0036 57.5013C61.6786 51.7919 60.0036 44.2232 60.0036 35.0013C60.0036 29.697 57.8965 24.6099 54.1458 20.8592C50.3951 17.1084 45.308 15.0013 40.0036 15.0013C34.6993 15.0013 29.6122 17.1084 25.8615 20.8592C22.1108 24.6099 20.0036 29.697 20.0036 35.0013C20.0036 44.2263 18.3224 51.795 15.0036 57.5013H65.0036Z" fill="currentColor"/>
</svg>
