<svg width="24" height="24" viewBox="0 0 24 24" fill="none" xmlns="http://www.w3.org/2000/svg">
<path d="M5.26611 9.7501C5.26486 8.86096 5.43953 7.98035 5.78007 7.15901C6.12061 6.33766 6.62028 5.5918 7.2503 4.96438C7.88033 4.33697 8.62826 3.84041 9.45102 3.50329C10.2738 3.16617 11.1551 2.99516 12.0442 3.0001C15.7567 3.02823 18.7286 6.1126 18.7286 9.83448V10.5001C18.7286 13.8564 19.4317 15.8064 20.0505 16.8751C20.1162 16.9889 20.1508 17.118 20.151 17.2494C20.1511 17.3809 20.1167 17.51 20.0511 17.624C19.9856 17.7379 19.8913 17.8326 19.7777 17.8986C19.664 17.9647 19.535 17.9996 19.4036 18.0001H4.59111C4.45968 17.9996 4.33068 17.9647 4.21703 17.8986C4.10339 17.8326 4.00908 17.7379 3.94357 17.624C3.87806 17.51 3.84363 17.3809 3.84375 17.2494C3.84387 17.118 3.87852 16.9889 3.94423 16.8751C4.56298 15.8064 5.26611 13.8564 5.26611 10.5001V9.7501Z" stroke="currentColor" stroke-width="1.6" stroke-linecap="round" stroke-linejoin="round"/>
<path d="M9 18V18.75C9 19.5456 9.31607 20.3087 9.87868 20.8713C10.4413 21.4339 11.2044 21.75 12 21.75C12.7956 21.75 13.5587 21.4339 14.1213 20.8713C14.6839 20.3087 15 19.5456 15 18.75V18" stroke="currentColor" stroke-width="1.6" stroke-linecap="round" stroke-linejoin="round"/>
</svg>
