<svg viewBox="0 0 21 20" fill="none" xmlns="http://www.w3.org/2000/svg">
  <path d="M16.75 16.25H4.25C3.91848 16.25 3.60054 16.1183 3.36612 15.8839C3.1317 15.6495 3 15.3315 3 15V6.25C3 5.91848 3.1317 5.60054 3.36612 5.36612C3.60054 5.1317 3.91848 5 4.25 5H6.74954L7.99954 3.125H12.9995L14.2495 5H16.75C17.0815 5 17.3995 5.1317 17.6339 5.36612C17.8683 5.60054 18 5.91848 18 6.25V15C18 15.3315 17.8683 15.6495 17.6339 15.8839C17.3995 16.1183 17.0815 16.25 16.75 16.25Z" stroke="currentColor" stroke-linecap="round" stroke-linejoin="round"/>
  <path d="M10.5 13.125C12.0533 13.125 13.3125 11.8658 13.3125 10.3125C13.3125 8.7592 12.0533 7.5 10.5 7.5C8.9467 7.5 7.6875 8.7592 7.6875 10.3125C7.6875 11.8658 8.9467 13.125 10.5 13.125Z" stroke="currentColor" stroke-linecap="round" stroke-linejoin="round"/>
</svg>
