<svg width="18" height="18" viewBox="0 0 18 18" fill="none" xmlns="http://www.w3.org/2000/svg">
  <path d="M5.775 12.225C5.9125 12.3625 6.0875 12.4313 6.3 12.4313C6.5125 12.4313 6.6875 12.3625 6.825 12.225L9 10.05L11.1938 12.2438C11.3313 12.3813 11.5033 12.447 11.7098 12.441C11.9163 12.435 12.088 12.363 12.225 12.225C12.3625 12.0875 12.4313 11.9125 12.4313 11.7C12.4313 11.4875 12.3625 11.3125 12.225 11.175L10.05 9L12.2438 6.80625C12.3813 6.66875 12.447 6.49675 12.441 6.29025C12.435 6.08375 12.363 5.912 12.225 5.775C12.0875 5.6375 11.9125 5.56875 11.7 5.56875C11.4875 5.56875 11.3125 5.6375 11.175 5.775L9 7.95L6.80625 5.75625C6.66875 5.61875 6.497 5.55325 6.291 5.55975C6.085 5.56625 5.913 5.638 5.775 5.775C5.6375 5.9125 5.56875 6.0875 5.56875 6.3C5.56875 6.5125 5.6375 6.6875 5.775 6.825L7.95 9L5.75625 11.1938C5.61875 11.3313 5.55325 11.5033 5.55975 11.7098C5.56625 11.9163 5.638 12.088 5.775 12.225ZM9 16.5C7.9625 16.5 6.9875 16.303 6.075 15.909C5.1625 15.515 4.36875 14.9808 3.69375 14.3063C3.01875 13.6313 2.4845 12.8375 2.091 11.925C1.6975 11.0125 1.5005 10.0375 1.5 9C1.5 7.9625 1.697 6.9875 2.091 6.075C2.485 5.1625 3.01925 4.36875 3.69375 3.69375C4.36875 3.01875 5.1625 2.4845 6.075 2.091C6.9875 1.6975 7.9625 1.5005 9 1.5C10.0375 1.5 11.0125 1.697 11.925 2.091C12.8375 2.485 13.6313 3.01925 14.3063 3.69375C14.9813 4.36875 15.5157 5.1625 15.9097 6.075C16.3037 6.9875 16.5005 7.9625 16.5 9C16.5 10.0375 16.303 11.0125 15.909 11.925C15.515 12.8375 14.9808 13.6313 14.3063 14.3063C13.6313 14.9813 12.8375 15.5157 11.925 15.9097C11.0125 16.3037 10.0375 16.5005 9 16.5Z" fill="currentColor"/>
</svg>
