<svg width="80" height="80" viewBox="0 0 80 80" fill="none" xmlns="http://www.w3.org/2000/svg">
<path d="M77.5 40.0006C77.5027 37.1296 76.7989 34.302 75.4508 31.7671C74.1027 29.2323 72.1516 27.0681 69.7697 25.4653C67.3877 23.8625 64.6479 22.8704 61.792 22.5764C58.9361 22.2824 56.0517 22.6956 53.3931 23.7795C50.7346 24.8634 48.3835 26.5847 46.5473 28.7918C44.7111 30.9988 43.446 33.6237 42.8637 36.4351C42.2814 39.2464 42.3998 42.1579 43.2083 44.9127C44.0168 47.6675 45.4907 50.1811 47.5 52.2318V70.0006C47.4997 70.4269 47.6084 70.8463 47.8159 71.2188C48.0233 71.5913 48.3226 71.9045 48.6852 72.1287C49.0479 72.353 49.4618 72.4807 49.8878 72.4998C50.3137 72.519 50.7375 72.4289 51.1188 72.2381L60 67.7943L68.8812 72.2381C69.2625 72.4289 69.6863 72.519 70.1122 72.4998C70.5382 72.4807 70.9521 72.353 71.3148 72.1287C71.6774 71.9045 71.9767 71.5913 72.1841 71.2188C72.3916 70.8463 72.5003 70.4269 72.5 70.0006V52.2318C75.7064 48.9684 77.5021 44.5757 77.5 40.0006ZM60 27.5006C62.4723 27.5006 64.889 28.2337 66.9446 29.6072C69.0002 30.9807 70.6024 32.933 71.5485 35.217C72.4946 37.5011 72.7421 40.0144 72.2598 42.4392C71.7775 44.864 70.587 47.0913 68.8388 48.8394C67.0907 50.5876 64.8634 51.7781 62.4386 52.2604C60.0139 52.7427 57.5005 52.4952 55.2165 51.5491C52.9324 50.603 50.9801 49.0008 49.6066 46.9452C48.2331 44.8896 47.5 42.4728 47.5 40.0006C47.5 36.6854 48.817 33.5059 51.1612 31.1617C53.5054 28.8175 56.6848 27.5006 60 27.5006ZM61.1188 62.7631C60.7714 62.5893 60.3884 62.4988 60 62.4988C59.6116 62.4988 59.2286 62.5893 58.8812 62.7631L52.5 65.9568V55.8099C54.8436 56.9231 57.4055 57.5006 60 57.5006C62.5945 57.5006 65.1564 56.9231 67.5 55.8099V65.9568L61.1188 62.7631ZM37.5 42.5006C37.5 43.1636 37.2366 43.7995 36.7678 44.2683C36.2989 44.7372 35.663 45.0006 35 45.0006H22.5C21.837 45.0006 21.2011 44.7372 20.7322 44.2683C20.2634 43.7995 20 43.1636 20 42.5006C20 41.8375 20.2634 41.2016 20.7322 40.7328C21.2011 40.264 21.837 40.0006 22.5 40.0006H35C35.663 40.0006 36.2989 40.264 36.7678 40.7328C37.2366 41.2016 37.5 41.8375 37.5 42.5006ZM37.5 32.5006C37.5 33.1636 37.2366 33.7995 36.7678 34.2683C36.2989 34.7372 35.663 35.0006 35 35.0006H22.5C21.837 35.0006 21.2011 34.7372 20.7322 34.2683C20.2634 33.7995 20 33.1636 20 32.5006C20 31.8375 20.2634 31.2016 20.7322 30.7328C21.2011 30.264 21.837 30.0006 22.5 30.0006H35C35.663 30.0006 36.2989 30.264 36.7678 30.7328C37.2366 31.2016 37.5 31.8375 37.5 32.5006Z" fill="currentColor"/>
<path d="M57.2678 18.2678C56.7989 18.7366 56.163 19 55.5 19C54.837 19 54.2011 18.7366 53.7322 18.2678C53.2634 17.7989 53 17.163 53 16.5V10L13 10L13 65C13.0021 65 13.0041 65 13.0062 65H39.5C40.163 65 40.7989 65.2634 41.2678 65.7322C41.7366 66.2011 42 66.837 42 67.5C42 68.163 41.7366 68.7989 41.2678 69.2678C40.7989 69.7366 40.163 70 39.5 70L13 70C12.9171 70 12.8345 69.9979 12.7521 69.9939C11.5163 69.9325 10.3435 69.4146 9.46447 68.5355C8.90538 67.9764 8.49237 67.2986 8.25 66.5613C8.08588 66.062 8 65.5354 8 65L8 10C8 8.67392 8.52678 7.40215 9.46447 6.46447C10.4021 5.52679 11.6739 5 13 5H53C54.3261 5 55.5979 5.52678 56.5355 6.46447C57.4732 7.40215 58 8.67392 58 10V16.5C58 17.163 57.7366 17.7989 57.2678 18.2678Z" fill="currentColor"/>
</svg>
