<svg width="24" height="24" viewBox="0 0 24 24" fill="none" xmlns="http://www.w3.org/2000/svg">
<path d="M12.0001 2.25C10.3167 2.24963 8.66201 2.68508 7.19691 3.51396C5.73182 4.34285 4.50628 5.53692 3.63959 6.97997C2.77289 8.42301 2.29457 10.0659 2.25117 11.7486C2.20777 13.4314 2.60077 15.0967 3.39193 16.5825L2.32787 19.7747C2.23973 20.039 2.22693 20.3226 2.29093 20.5938C2.35492 20.8649 2.49316 21.1129 2.69016 21.3099C2.88717 21.5069 3.13514 21.6451 3.4063 21.7091C3.67745 21.7731 3.96107 21.7603 4.22537 21.6722L7.41755 20.6081C8.72515 21.3036 10.174 21.6921 11.6541 21.744C13.1343 21.7959 14.6068 21.51 15.9599 20.9079C17.3131 20.3057 18.5112 19.4033 19.4635 18.269C20.4158 17.1346 21.0971 15.7983 21.4558 14.3613C21.8145 12.9244 21.8411 11.4246 21.5336 9.97578C21.2261 8.52701 20.5926 7.16732 19.6812 5.99992C18.7698 4.83253 17.6044 3.88811 16.2735 3.23836C14.9426 2.58861 13.4811 2.25061 12.0001 2.25ZM15.0001 14.25H9.00005C8.80114 14.25 8.61037 14.171 8.46972 14.0303C8.32907 13.8897 8.25005 13.6989 8.25005 13.5C8.25005 13.3011 8.32907 13.1103 8.46972 12.9697C8.61037 12.829 8.80114 12.75 9.00005 12.75H15.0001C15.199 12.75 15.3897 12.829 15.5304 12.9697C15.671 13.1103 15.7501 13.3011 15.7501 13.5C15.7501 13.6989 15.671 13.8897 15.5304 14.0303C15.3897 14.171 15.199 14.25 15.0001 14.25ZM15.0001 11.25H9.00005C8.80114 11.25 8.61037 11.171 8.46972 11.0303C8.32907 10.8897 8.25005 10.6989 8.25005 10.5C8.25005 10.3011 8.32907 10.1103 8.46972 9.96967C8.61037 9.82902 8.80114 9.75 9.00005 9.75H15.0001C15.199 9.75 15.3897 9.82902 15.5304 9.96967C15.671 10.1103 15.7501 10.3011 15.7501 10.5C15.7501 10.6989 15.671 10.8897 15.5304 11.0303C15.3897 11.171 15.199 11.25 15.0001 11.25Z" fill="currentColor"/>
</svg>
