<svg xmlns="http://www.w3.org/2000/svg" viewBox="0 0 52 52" fill="none">
  <path d="M26 49.2917C19.8226 49.2917 13.8983 46.8377 9.53028 42.4697C5.16225 38.1017 2.70831 32.1773 2.70831 26C2.70831 19.8227 5.16225 13.8983 9.53028 9.5303C13.8983 5.16227 19.8226 2.70833 26 2.70833C29.6297 2.69632 33.21 3.55052 36.4433 5.2C36.6339 5.29674 36.8037 5.43008 36.9428 5.59241C37.0819 5.75474 37.1876 5.94288 37.254 6.14608C37.3204 6.34929 37.3461 6.56358 37.3297 6.77673C37.3133 6.98987 37.2551 7.1977 37.1583 7.38833C37.0616 7.57897 36.9282 7.74868 36.7659 7.88779C36.6036 8.02689 36.4154 8.13266 36.2122 8.19905C36.009 8.26544 35.7947 8.29116 35.5816 8.27474C35.3684 8.25832 35.1606 8.20007 34.97 8.10333C32.1964 6.67384 29.1203 5.93082 26 5.93667C22.037 5.93667 18.163 7.11155 14.8677 9.3128C11.5723 11.514 9.00352 14.6428 7.48598 18.3037C5.96844 21.9646 5.57028 25.9932 6.34184 29.8803C7.1134 33.7674 9.02003 37.3385 11.8207 40.1423C14.6215 42.946 18.1905 44.8565 22.0768 45.6323C25.9631 46.408 29.9921 46.0142 33.6546 44.5006C37.3171 42.987 40.4487 40.4216 42.6535 37.1286C44.8583 33.8357 46.0374 29.9629 46.0416 26C46.0529 25.8196 46.0529 25.6387 46.0416 25.4583C46.0014 25.0274 46.134 24.5981 46.4104 24.2649C46.6867 23.9317 47.084 23.7219 47.515 23.6817C47.946 23.6414 48.3753 23.7741 48.7085 24.0504C49.0416 24.3267 49.2514 24.724 49.2916 25.155V26C49.2859 32.1756 46.8301 38.0966 42.4633 42.4634C38.0965 46.8302 32.1756 49.2859 26 49.2917Z" fill="currentColor"/>
  <path d="M25.61 33.3883C25.3994 33.3915 25.1904 33.3507 24.9965 33.2686C24.8025 33.1866 24.6277 33.065 24.4833 32.9117L14.0183 22.6417C13.714 22.337 13.5431 21.924 13.5431 21.4933C13.5431 21.0627 13.714 20.6497 14.0183 20.345C14.3294 20.0445 14.745 19.8765 15.1775 19.8765C15.61 19.8765 16.0256 20.0445 16.3367 20.345L25.6317 29.51L46.54 8.94833C46.8511 8.64782 47.2667 8.47986 47.6992 8.47986C48.1317 8.47986 48.5473 8.64782 48.8583 8.94833C49.1626 9.25302 49.3336 9.66604 49.3336 10.0967C49.3336 10.5273 49.1626 10.9403 48.8583 11.245L26.8017 32.9117C26.6466 33.0689 26.4607 33.1924 26.2556 33.2744C26.0505 33.3565 25.8307 33.3952 25.61 33.3883Z" fill="currentColor"/>
</svg>
