<svg id="check-circle-rounded" viewBox="0 0 15 14" fill="none" xmlns="http://www.w3.org/2000/svg">
  <path
    d="M6.68332 8.05002L5.41457 6.78127C5.30763 6.67433 5.17638 6.62085 5.02082 6.62085C4.86527 6.62085 4.72916 6.67919 4.61249 6.79585C4.50555 6.9028 4.45207 7.03891 4.45207 7.20419C4.45207 7.36946 4.50555 7.50558 4.61249 7.61252L6.27499 9.27502C6.38193 9.38196 6.51805 9.43544 6.68332 9.43544C6.8486 9.43544 6.98471 9.38196 7.09166 9.27502L10.4021 5.9646C10.509 5.85766 10.5625 5.72641 10.5625 5.57085C10.5625 5.4153 10.5042 5.27919 10.3875 5.16252C10.2805 5.05558 10.1444 5.0021 9.97916 5.0021C9.81388 5.0021 9.67777 5.05558 9.57082 5.16252L6.68332 8.05002ZM7.49999 12.8334C6.69305 12.8334 5.93471 12.6801 5.22499 12.3737C4.51527 12.0676 3.89791 11.6521 3.37291 11.1271C2.84791 10.6021 2.43238 9.98474 2.12632 9.27502C1.81988 8.5653 1.66666 7.80696 1.66666 7.00002C1.66666 6.19308 1.81988 5.43474 2.12632 4.72502C2.43238 4.0153 2.84791 3.39794 3.37291 2.87294C3.89791 2.34794 4.51527 1.93221 5.22499 1.62577C5.93471 1.31971 6.69305 1.16669 7.49999 1.16669C8.30693 1.16669 9.06527 1.31971 9.77499 1.62577C10.4847 1.93221 11.1021 2.34794 11.6271 2.87294C12.1521 3.39794 12.5676 4.0153 12.8737 4.72502C13.1801 5.43474 13.3333 6.19308 13.3333 7.00002C13.3333 7.80696 13.1801 8.5653 12.8737 9.27502C12.5676 9.98474 12.1521 10.6021 11.6271 11.1271C11.1021 11.6521 10.4847 12.0676 9.77499 12.3737C9.06527 12.6801 8.30693 12.8334 7.49999 12.8334Z"
    fill="currentColor" />
</svg>
