<svg width="80" height="80" viewBox="0 0 80 80" fill="none" xmlns="http://www.w3.org/2000/svg">
<path d="M53.75 23.75C53.75 21.0305 52.9436 18.3721 51.4327 16.1109C49.9218 13.8497 47.7744 12.0874 45.2619 11.0467C42.7494 10.006 39.9848 9.73366 37.3175 10.2642C34.6503 10.7948 32.2003 12.1043 30.2773 14.0273C28.3543 15.9503 27.0448 18.4003 26.5142 21.0675C25.9837 23.7348 26.256 26.4994 27.2967 29.0119C28.3374 31.5244 30.0997 33.6718 32.3609 35.1827C34.6221 36.6936 37.2805 37.5 40 37.5C43.6455 37.4959 47.1404 36.0459 49.7182 33.4682C52.2959 30.8904 53.7459 27.3955 53.75 23.75ZM40 32.5C38.2694 32.5 36.5777 31.9868 35.1388 31.0254C33.6998 30.0639 32.5783 28.6973 31.9161 27.0985C31.2538 25.4996 31.0805 23.7403 31.4181 22.043C31.7558 20.3456 32.5891 18.7865 33.8128 17.5628C35.0365 16.3391 36.5956 15.5058 38.293 15.1681C39.9903 14.8305 41.7496 15.0038 43.3485 15.6661C44.9473 16.3283 46.3139 17.4498 47.2754 18.8888C48.2368 20.3277 48.75 22.0194 48.75 23.75C48.75 26.0707 47.8281 28.2962 46.1872 29.9372C44.5462 31.5781 42.3207 32.5 40 32.5ZM58.75 40C56.0305 40 53.3721 40.8064 51.1109 42.3173C48.8497 43.8282 47.0874 45.9756 46.0467 48.4881C45.006 51.0006 44.7337 53.7653 45.2642 56.4325C45.7948 59.0997 47.1043 61.5498 49.0273 63.4727C50.9503 65.3957 53.4003 66.7053 56.0675 67.2358C58.7348 67.7663 61.4994 67.4941 64.0119 66.4533C66.5244 65.4126 68.6718 63.6503 70.1827 61.3891C71.6936 59.1279 72.5 56.4695 72.5 53.75C72.4959 50.1045 71.0459 46.6096 68.4682 44.0319C65.8904 41.4541 62.3955 40.0041 58.75 40ZM58.75 62.5C57.0194 62.5 55.3277 61.9868 53.8888 61.0254C52.4498 60.0639 51.3283 58.6973 50.6661 57.0985C50.0038 55.4996 49.8305 53.7403 50.1681 52.043C50.5058 50.3456 51.3391 48.7865 52.5628 47.5628C53.7865 46.3391 55.3456 45.5058 57.043 45.1681C58.7403 44.8305 60.4996 45.0038 62.0985 45.6661C63.6973 46.3283 65.0639 47.4498 66.0254 48.8888C66.9868 50.3277 67.5 52.0194 67.5 53.75C67.5 56.0706 66.5781 58.2962 64.9372 59.9372C63.2962 61.5781 61.0706 62.5 58.75 62.5ZM21.25 40C18.5305 40 15.8721 40.8064 13.6109 42.3173C11.3497 43.8282 9.58737 45.9756 8.54666 48.4881C7.50596 51.0006 7.23366 53.7653 7.76421 56.4325C8.29476 59.0997 9.60432 61.5498 11.5273 63.4727C13.4503 65.3957 15.9003 66.7053 18.5675 67.2358C21.2348 67.7663 23.9994 67.4941 26.5119 66.4533C29.0244 65.4126 31.1718 63.6503 32.6827 61.3891C34.1936 59.1279 35 56.4695 35 53.75C34.9959 50.1045 33.5459 46.6096 30.9682 44.0319C28.3904 41.4541 24.8955 40.0041 21.25 40ZM21.25 62.5C19.5194 62.5 17.8277 61.9868 16.3888 61.0254C14.9498 60.0639 13.8283 58.6973 13.1661 57.0985C12.5038 55.4996 12.3305 53.7403 12.6681 52.043C13.0058 50.3456 13.8391 48.7865 15.0628 47.5628C16.2865 46.3391 17.8456 45.5058 19.543 45.1681C21.2403 44.8305 22.9996 45.0038 24.5985 45.6661C26.1973 46.3283 27.5639 47.4498 28.5254 48.8888C29.4868 50.3277 30 52.0194 30 53.75C30 56.0706 29.0781 58.2962 27.4372 59.9372C25.7962 61.5781 23.5707 62.5 21.25 62.5Z" fill="currentColor"/>
</svg>
