<svg viewBox="0 0 24 24" fill="none" xmlns="http://www.w3.org/2000/svg">
  <path d="M18.75 2.99986H15.3506C14.9292 2.52804 14.4129 2.15054 13.8355 1.89207C13.2581 1.63361 12.6326 1.5 12 1.5C11.3674 1.5 10.7419 1.63361 10.1645 1.89207C9.58709 2.15054 9.07079 2.52804 8.64937 2.99986H5.25C4.85218 2.99986 4.47064 3.1579 4.18934 3.4392C3.90804 3.72051 3.75 4.10204 3.75 4.49986V20.2499C3.75 20.6477 3.90804 21.0292 4.18934 21.3105C4.47064 21.5918 4.85218 21.7499 5.25 21.7499H18.75C19.1478 21.7499 19.5294 21.5918 19.8107 21.3105C20.092 21.0292 20.25 20.6477 20.25 20.2499V4.49986C20.25 4.10204 20.092 3.72051 19.8107 3.4392C19.5294 3.1579 19.1478 2.99986 18.75 2.99986ZM12 2.99986C12.7956 2.99986 13.5587 3.31593 14.1213 3.87854C14.6839 4.44115 15 5.20421 15 5.99986H9C9 5.20421 9.31607 4.44115 9.87868 3.87854C10.4413 3.31593 11.2044 2.99986 12 2.99986ZM18.75 20.2499H5.25V4.49986H7.75781C7.58721 4.98157 7.50002 5.48884 7.5 5.99986V6.74986C7.5 6.94878 7.57902 7.13954 7.71967 7.28019C7.86032 7.42085 8.05109 7.49986 8.25 7.49986H15.75C15.9489 7.49986 16.1397 7.42085 16.2803 7.28019C16.421 7.13954 16.5 6.94878 16.5 6.74986V5.99986C16.5 5.48884 16.4128 4.98157 16.2422 4.49986H18.75V20.2499Z" fill="currentColor"/>
</svg>
