<svg width="24" height="24" viewBox="0 0 24 24" fill="none" xmlns="http://www.w3.org/2000/svg">
<path d="M22.1053 8.34732L12.3553 3.09732C12.2461 3.03857 12.124 3.00781 12 3.00781C11.876 3.00781 11.7539 3.03857 11.6447 3.09732L1.89469 8.34732C1.77601 8.41116 1.67673 8.50579 1.60727 8.62127C1.53782 8.73675 1.50076 8.86881 1.5 9.00357V15.0036C1.49992 15.1391 1.53658 15.2722 1.60608 15.3885C1.67557 15.5049 1.77531 15.6003 1.89469 15.6645L11.6447 20.9145C11.7539 20.9733 11.876 21.004 12 21.004C12.124 21.004 12.2461 20.9733 12.3553 20.9145L22.1053 15.6645C22.2247 15.6003 22.3244 15.5049 22.3939 15.3885C22.4634 15.2722 22.5001 15.1391 22.5 15.0036V9.00357C22.4992 8.86881 22.4622 8.73675 22.3927 8.62127C22.3233 8.50579 22.224 8.41116 22.1053 8.34732ZM21 13.7483L17.7609 12.0036L21 10.2589V13.7483ZM16.1784 11.1514L12.75 9.30544V5.00888L20.1684 9.00357L16.1784 11.1514ZM12 13.4014L9.40313 12.0036L12 10.6058L14.5969 12.0036L12 13.4014ZM11.25 5.00888V9.30544L7.82156 11.1514L3.83156 9.00357L11.25 5.00888ZM3 10.2589L6.23906 12.0036L3 13.7483V10.2589ZM7.82156 12.8558L11.25 14.7017V18.9983L3.83156 15.0036L7.82156 12.8558ZM12.75 18.9983V14.7017L16.1784 12.8558L20.1684 15.0036L12.75 18.9983Z" fill="currentColor"/>
</svg>
