<svg xmlns="http://www.w3.org/2000/svg" viewBox="0 0 24 24" fill="none">
  <path
    d="M21.6821 18.7135C22.5461 17.5372 22.9999 16.1703 22.9999 14.7296C22.9999 12.4233 21.8039 10.2822 19.7862 8.94607C19.6001 6.89135 18.6407 4.98582 17.0366 3.51762C15.2628 1.89413 12.9095 1 10.4101 1C7.91079 1 5.55749 1.89413 3.78366 3.51766C1.98861 5.16057 1.00003 7.35103 1.00003 9.68551C1.00003 11.4811 1.57886 13.1834 2.6792 14.64L1.06268 18.6388C0.93158 18.9631 1.01008 19.3345 1.26123 19.5779C1.42494 19.7366 1.64056 19.8203 1.85961 19.8203C1.97662 19.8203 2.09461 19.7964 2.20607 19.7473L6.81664 17.7149C7.39547 17.9361 7.99179 18.1016 8.60185 18.2112C9.22675 19.2389 10.1181 20.1092 11.2017 20.7428C12.4114 21.45 13.8082 21.8279 15.2449 21.8388C15.266 21.8403 15.2871 21.842 15.3086 21.842C16.3019 21.842 17.2643 21.6704 18.1747 21.3315L21.7939 22.927C21.9054 22.9761 22.0234 23 22.1404 23C22.3594 23 22.5751 22.9163 22.7388 22.7576C22.9899 22.5141 23.0684 22.1427 22.9373 21.8185L21.6821 18.7135ZM19.9014 18.8946L20.5506 20.5006L18.5381 19.6134C18.3206 19.5175 18.073 19.516 17.8542 19.6093C17.0655 19.9459 16.2208 20.1183 15.3434 20.1228C15.3318 20.1223 15.3203 20.1211 15.3086 20.1211C13.615 20.1211 12.015 19.4593 10.8972 18.3584C12.3145 18.2905 13.7036 17.9285 14.9422 17.2996C15.3654 17.0846 15.5341 16.5674 15.3192 16.1442C15.1043 15.721 14.587 15.5523 14.1638 15.7671C13.0237 16.3462 11.7257 16.6523 10.4101 16.6523C9.26701 16.6523 8.16645 16.43 7.1392 15.9917C6.92054 15.8984 6.67287 15.8998 6.45532 15.9958L3.44932 17.3209L4.4614 14.8173C4.58141 14.5204 4.52646 14.1814 4.31871 13.9377C3.27203 12.7098 2.71877 11.2394 2.71877 9.68551C2.71877 5.84399 6.1691 2.71875 10.4101 2.71875C14.6512 2.71875 18.1015 5.84399 18.1015 9.68551C18.1015 10.9263 17.7368 12.1444 17.0466 13.208C16.7882 13.6062 16.9016 14.1384 17.2998 14.3967C17.6978 14.6551 18.23 14.5417 18.4884 14.1435C19.1009 13.1995 19.5101 12.1573 19.6993 11.0748C20.7061 12.0607 21.2812 13.3592 21.2812 14.7296C21.2812 15.9295 20.8534 17.0656 20.0441 18.015C19.8364 18.2587 19.7814 18.5977 19.9014 18.8946ZM11.2265 14.1054C11.2265 14.5801 10.8418 14.9648 10.3672 14.9648C9.89254 14.9648 9.5078 14.5801 9.5078 14.1054C9.5078 13.6308 9.89254 13.2461 10.3672 13.2461C10.8418 13.2461 11.2265 13.6308 11.2265 14.1054ZM13.6321 7.66667C13.6326 7.67862 13.6328 7.69057 13.6328 7.70264C13.6331 8.9963 12.8645 10.1605 11.6746 10.6684C11.4284 10.7736 11.2693 11.0215 11.2693 11.3001V11.3554C11.2693 11.8301 10.8845 12.2148 10.4099 12.2148C9.93525 12.2148 9.55051 11.8301 9.55051 11.3554V11.3001C9.55051 10.332 10.1194 9.46362 10.9998 9.08778C11.5478 8.85381 11.9044 8.32182 11.9139 7.72769C11.9137 7.71944 11.9135 7.71115 11.9135 7.70285C11.9135 6.87377 11.239 6.19925 10.4099 6.19925C9.58081 6.19921 8.90624 6.87373 8.90624 7.70281C8.90624 8.17744 8.5215 8.56218 8.04687 8.56218C7.57224 8.56218 7.1875 8.17744 7.1875 7.70281C7.1875 5.92601 8.63305 4.48046 10.4099 4.48046C12.1746 4.48046 13.6127 5.90646 13.6321 7.66667Z"
    fill="currentColor" />
</svg>
