<svg id="conner-close" viewBox="0 0 25 25" fill="none" xmlns="http://www.w3.org/2000/svg">
  <rect width="24" height="24" transform="translate(0.333496 0.385254)" fill="none" />
  <path
    d="M12.3335 0.385254C5.705 0.385254 0.333496 5.75825 0.333496 12.3853C0.333496 19.0123 5.705 24.3853 12.3335 24.3853C18.962 24.3853 24.3335 19.0123 24.3335 12.3853C24.3335 5.75825 18.962 0.385254 12.3335 0.385254ZM17.894 15.8248C18.1753 16.106 18.3333 16.4875 18.3333 16.8853C18.3333 17.283 18.1753 17.6645 17.894 17.9458C17.6127 18.227 17.2313 18.385 16.8335 18.385C16.4357 18.385 16.0543 18.227 15.773 17.9458L12.3335 14.5063L8.894 17.9458C8.75502 18.0855 8.58978 18.1965 8.40777 18.2721C8.22578 18.3478 8.03061 18.3868 7.8335 18.3868C7.63638 18.3868 7.44122 18.3478 7.25922 18.2721C7.07722 18.1965 6.91198 18.0855 6.773 17.9458C6.63358 17.8066 6.52297 17.6413 6.4475 17.4593C6.37204 17.2773 6.33319 17.0823 6.33319 16.8853C6.33319 16.6883 6.37204 16.4932 6.4475 16.3112C6.52297 16.1292 6.63358 15.9639 6.773 15.8248L10.2125 12.3853L6.773 8.94575C6.49173 8.66449 6.33372 8.28302 6.33372 7.88525C6.33372 7.48749 6.49173 7.10602 6.773 6.82475C7.05426 6.54349 7.43573 6.38548 7.8335 6.38548C8.23126 6.38548 8.61273 6.54349 8.894 6.82475L12.3335 10.2643L15.773 6.82475C16.0543 6.54349 16.4357 6.38548 16.8335 6.38548C17.2313 6.38548 17.6127 6.54349 17.894 6.82475C18.1753 7.10602 18.3333 7.48749 18.3333 7.88525C18.3333 8.28302 18.1753 8.66449 17.894 8.94575L14.4545 12.3853L17.894 15.8248Z"
    fill="currentColor" />
</svg>
