<svg width="80" height="80" viewBox="0 0 80 80" fill="none" xmlns="http://www.w3.org/2000/svg">
<path d="M40 7.5C33.5721 7.5 27.2886 9.40609 21.944 12.9772C16.5994 16.5484 12.4338 21.6242 9.97393 27.5628C7.51408 33.5014 6.87047 40.0361 8.12449 46.3404C9.37851 52.6448 12.4738 58.4358 17.019 62.981C21.5643 67.5262 27.3552 70.6215 33.6596 71.8755C39.964 73.1295 46.4986 72.4859 52.4372 70.0261C58.3758 67.5662 63.4516 63.4006 67.0228 58.056C70.5939 52.7114 72.5 46.4279 72.5 40C72.4909 31.3833 69.0639 23.122 62.9709 17.0291C56.878 10.9361 48.6168 7.5091 40 7.5ZM40 67.5C34.561 67.5 29.2442 65.8872 24.7218 62.8654C20.1995 59.8437 16.6747 55.5488 14.5933 50.5238C12.5119 45.4988 11.9673 39.9695 13.0284 34.635C14.0895 29.3005 16.7086 24.4005 20.5546 20.5546C24.4005 16.7086 29.3006 14.0895 34.635 13.0284C39.9695 11.9673 45.4988 12.5119 50.5238 14.5933C55.5488 16.6747 59.8437 20.1995 62.8654 24.7218C65.8872 29.2442 67.5 34.561 67.5 40C67.4917 47.2909 64.5918 54.2808 59.4363 59.4363C54.2809 64.5918 47.2909 67.4917 40 67.5ZM52.5 46.25C52.5 48.5706 51.5781 50.7962 49.9372 52.4372C48.2963 54.0781 46.0707 55 43.75 55H42.5V57.5C42.5 58.163 42.2366 58.7989 41.7678 59.2678C41.2989 59.7366 40.6631 60 40 60C39.337 60 38.7011 59.7366 38.2322 59.2678C37.7634 58.7989 37.5 58.163 37.5 57.5V55H32.5C31.837 55 31.2011 54.7366 30.7322 54.2678C30.2634 53.7989 30 53.163 30 52.5C30 51.837 30.2634 51.2011 30.7322 50.7322C31.2011 50.2634 31.837 50 32.5 50H43.75C44.7446 50 45.6984 49.6049 46.4017 48.9016C47.1049 48.1984 47.5 47.2446 47.5 46.25C47.5 45.2554 47.1049 44.3016 46.4017 43.5984C45.6984 42.8951 44.7446 42.5 43.75 42.5H36.25C33.9294 42.5 31.7038 41.5781 30.0628 39.9372C28.4219 38.2962 27.5 36.0706 27.5 33.75C27.5 31.4294 28.4219 29.2038 30.0628 27.5628C31.7038 25.9219 33.9294 25 36.25 25H37.5V22.5C37.5 21.837 37.7634 21.2011 38.2322 20.7322C38.7011 20.2634 39.337 20 40 20C40.6631 20 41.2989 20.2634 41.7678 20.7322C42.2366 21.2011 42.5 21.837 42.5 22.5V25H47.5C48.1631 25 48.7989 25.2634 49.2678 25.7322C49.7366 26.2011 50 26.837 50 27.5C50 28.163 49.7366 28.7989 49.2678 29.2678C48.7989 29.7366 48.1631 30 47.5 30H36.25C35.2555 30 34.3016 30.3951 33.5984 31.0983C32.8951 31.8016 32.5 32.7554 32.5 33.75C32.5 34.7446 32.8951 35.6984 33.5984 36.4017C34.3016 37.1049 35.2555 37.5 36.25 37.5H43.75C46.0707 37.5 48.2963 38.4219 49.9372 40.0628C51.5781 41.7038 52.5 43.9294 52.5 46.25Z" fill="currentColor"/>
</svg>
