<svg width="80" height="80" viewBox="0 0 80 80" fill="none" xmlns="http://www.w3.org/2000/svg">
<path d="M74.3875 53.3625C74.153 53.092 73.8631 52.875 73.5375 52.7261C73.2118 52.5773 72.858 52.5002 72.5 52.5H67.5V47.5C67.5 44.745 65.2575 42.5 62.5 42.5H52.5C49.7425 42.5 47.5 44.745 47.5 47.5V52.5H42.5C42.1418 52.5004 41.7878 52.5776 41.4621 52.7266C41.1363 52.8755 40.8463 53.0926 40.6117 53.3633C40.377 53.6339 40.2032 53.9518 40.102 54.2954C40.0008 54.639 39.9745 55.0004 40.025 55.355L42.525 72.855C42.6104 73.4505 42.9077 73.9952 43.3623 74.3892C43.817 74.7832 44.3984 75.0001 45 75H70C70.6016 75.0001 71.183 74.7832 71.6377 74.3892C72.0923 73.9952 72.3896 73.4505 72.475 72.855L74.975 55.355C75.0255 55.0002 74.9991 54.6387 74.8978 54.2949C74.7964 53.9512 74.6224 53.6332 74.3875 53.3625ZM52.5 47.5H62.5V52.5H52.5V47.5ZM67.8325 70H47.1675L45.3825 57.5H69.6175L67.8325 70ZM25 50H30V75H25V50Z" fill="currentColor"/>
<path d="M41.95 44.6875L37.185 38.7275L33.58 29.715C33.0273 28.3202 32.0672 27.1243 30.8247 26.2832C29.5823 25.4422 28.1153 24.995 26.615 25H12.5C8.365 25 5 28.365 5 32.5V50C5 52.7575 7.2425 55 10 55H12.5V75H17.5V50H10V32.5C10 31.837 10.2634 31.2011 10.7322 30.7322C11.2011 30.2634 11.837 30 12.5 30H26.615C27.6425 30 28.555 30.6175 28.935 31.5725L33.0475 41.5625L38.0475 47.8125L41.95 44.6875ZM10 12.5C10 6.985 14.485 2.5 20 2.5C25.515 2.5 30 6.985 30 12.5C30 18.015 25.515 22.5 20 22.5C14.485 22.5 10 18.015 10 12.5ZM15 12.5C15 15.2575 17.2425 17.5 20 17.5C22.7575 17.5 25 15.2575 25 12.5C25 9.7425 22.7575 7.5 20 7.5C17.2425 7.5 15 9.7425 15 12.5Z" fill="currentColor"/>
</svg>
