<svg id="eye-solid-slash" viewBox="0 0 24 24" fill="none" xmlns="http://www.w3.org/2000/svg">
  <path
    d="M5.05499 3.24544C4.98913 3.1712 4.90918 3.11077 4.81979 3.06765C4.7304 3.02453 4.63334 2.99958 4.53423 2.99425C4.43513 2.98892 4.33595 3.00331 4.24245 3.03659C4.14895 3.06987 4.06298 3.12137 3.98953 3.18812C3.91608 3.25487 3.85661 3.33554 3.81457 3.42544C3.77252 3.51534 3.74874 3.61269 3.7446 3.71186C3.74045 3.81102 3.75603 3.91002 3.79043 4.00311C3.82483 4.09621 3.87737 4.18155 3.94499 4.25419L5.74874 6.23888C2.34374 8.32857 0.879366 11.5498 0.814679 11.6961C0.772035 11.792 0.75 11.8958 0.75 12.0008C0.75 12.1057 0.772035 12.2095 0.814679 12.3054C0.847491 12.3795 1.64155 14.1401 3.40687 15.9054C5.75905 18.2567 8.72999 19.4998 12 19.4998C13.6806 19.5094 15.3442 19.1634 16.8816 18.4845L18.9441 20.7542C19.0099 20.8284 19.0899 20.8889 19.1793 20.932C19.2686 20.9751 19.3657 21.0001 19.4648 21.0054C19.5639 21.0107 19.6631 20.9963 19.7566 20.9631C19.8501 20.9298 19.9361 20.8783 20.0095 20.8115C20.083 20.7448 20.1424 20.6641 20.1845 20.5742C20.2265 20.4843 20.2503 20.3869 20.2544 20.2878C20.2586 20.1886 20.243 20.0896 20.2086 19.9965C20.1742 19.9034 20.1217 19.8181 20.0541 19.7454L5.05499 3.24544ZM13.3987 14.6539C12.8105 14.9634 12.136 15.0687 11.4814 14.9534C10.8268 14.838 10.229 14.5085 9.78189 14.0166C9.33481 13.5247 9.06377 12.8982 9.01134 12.2355C8.9589 11.5729 9.12803 10.9116 9.49218 10.3554L13.3987 14.6539ZM23.1853 12.3054C23.1459 12.3936 22.1962 14.4964 20.0578 16.4117C19.9104 16.5439 19.7167 16.6125 19.519 16.6025C19.3212 16.5925 19.1354 16.5047 19.0022 16.3583L9.50624 5.91263C9.4154 5.81295 9.35312 5.69061 9.32596 5.55851C9.29879 5.4264 9.30776 5.28942 9.3519 5.16198C9.39604 5.03454 9.47373 4.92136 9.57679 4.83437C9.67984 4.74737 9.80445 4.68977 9.93749 4.66763C10.6192 4.55507 11.309 4.49894 12 4.49982C15.27 4.49982 18.2409 5.74294 20.5931 8.09513C22.3584 9.86044 23.1525 11.622 23.1853 11.6961C23.2279 11.792 23.25 11.8958 23.25 12.0008C23.25 12.1057 23.2279 12.2095 23.1853 12.3054Z"
    fill="currentColor" />
</svg>
