
<svg width="80" height="80" viewBox="0 0 80 80" fill="none" xmlns="http://www.w3.org/2000/svg">
<g clip-path="url(#clip0_8454_101198)">
<path d="M22.5 5L20 7.5V15.135C21.6616 14.9513 23.3384 14.9513 25 15.135V10H70V35H61.465L55 41.465V35H44.865C45.0487 36.6616 45.0487 38.3384 44.865 40H50V47.5L54.27 49.27L63.535 40H72.5L75 37.5V7.5L72.5 5H22.5Z" fill="currentColor"/>
<path fill-rule="evenodd" clip-rule="evenodd" d="M32.085 52.1451C35.2379 50.081 37.6404 47.0543 38.935 43.5152C40.2295 39.9761 40.3471 36.1137 39.2702 32.5024C38.1933 28.8911 35.9794 25.7239 32.9578 23.4719C29.9362 21.2199 26.2685 20.0034 22.5 20.0034C18.7315 20.0034 15.0638 21.2199 12.0422 23.4719C9.02063 25.7239 6.80674 28.8911 5.72981 32.5024C4.65288 36.1137 4.77045 39.9761 6.06504 43.5152C7.35962 47.0543 9.76206 50.081 12.915 52.1451C9.05358 53.9639 5.78903 56.8434 3.50227 60.4475C1.21551 64.0516 0.000842736 68.2317 0 72.5001L0 75.0001H5V72.5001C5.15346 67.9612 7.06443 63.6595 10.3296 60.5029C13.5947 57.3463 17.9585 55.5818 22.5 55.5818C27.0415 55.5818 31.4053 57.3463 34.6704 60.5029C37.9356 63.6595 39.8465 67.9612 40 72.5001V75.0001H45V72.5001C44.9992 68.2317 43.7845 64.0516 41.4977 60.4475C39.211 56.8434 35.9464 53.9639 32.085 52.1451ZM22.5 50.0001C19.1848 50.0001 16.0054 48.6831 13.6612 46.3389C11.317 43.9947 10 40.8153 10 37.5001C10 34.1849 11.317 31.0054 13.6612 28.6612C16.0054 26.317 19.1848 25.0001 22.5 25.0001C25.8152 25.0001 28.9946 26.317 31.3388 28.6612C33.683 31.0054 35 34.1849 35 37.5001C35 40.8153 33.683 43.9947 31.3388 46.3389C28.9946 48.6831 25.8152 50.0001 22.5 50.0001Z" fill="currentColor"/>
</g>
<defs>
<clipPath id="clip0_8454_101198">
<rect width="80" height="80" fill="currentColor"/>
</clipPath>
</defs>
</svg>
