<svg width="24" height="24" viewBox="0 0 24 24" fill="none" xmlns="http://www.w3.org/2000/svg">
<path d="M4.00875 4.68751C3.92806 4.75744 3.86324 4.8438 3.81862 4.94081C3.774 5.03781 3.7506 5.14323 3.75 5.25001V21C3.75 21.1989 3.82902 21.3897 3.96967 21.5303C4.11032 21.671 4.30109 21.75 4.5 21.75C4.69891 21.75 4.88968 21.671 5.03033 21.5303C5.17098 21.3897 5.25 21.1989 5.25 21V16.8534C7.76156 14.8697 9.92531 15.9394 12.4172 17.1731C13.9547 17.9334 15.6103 18.7528 17.3859 18.7528C18.6919 18.7528 20.0616 18.3075 21.4941 17.0653C21.5747 16.9954 21.6396 16.909 21.6842 16.812C21.7288 16.715 21.7522 16.6096 21.7528 16.5028V5.25001C21.7525 5.10605 21.7107 4.96523 21.6325 4.84437C21.5543 4.7235 21.443 4.62769 21.3118 4.56838C21.1806 4.50908 21.0352 4.48877 20.8928 4.50989C20.7504 4.53102 20.6171 4.59267 20.5087 4.68751C17.8837 6.95907 15.66 5.85844 13.0828 4.58251C10.4128 3.25876 7.38562 1.76157 4.00875 4.68751ZM20.25 16.1484C17.7384 18.1322 15.5747 17.0616 13.0828 15.8288C10.7391 14.6709 8.13187 13.3791 5.25 15.0413V5.60532C7.76156 3.62157 9.92531 4.69126 12.4172 5.92407C14.7609 7.08188 17.3691 8.37375 20.25 6.71157V16.1484Z" fill="currentColor"/>
</svg>
