<svg width="18" height="18" viewBox="0 0 18 18" fill="none" xmlns="http://www.w3.org/2000/svg">
<path d="M7.23829 7.93945H7.04797C5.94003 7.93945 5.03306 8.81613 4.98438 9.91228H9.30189C9.25308 8.81625 8.34614 7.93945 7.23829 7.93945Z" fill="currentColor"/>
<path d="M14.3852 2.10938H3.61456C2.24155 2.10938 1.12451 3.31743 1.12451 4.80237V11.6033C1.12451 13.0882 2.24155 14.2962 3.61456 14.2962H6.8483L8.5888 15.6439C8.66898 15.7967 8.82728 15.8924 8.99984 15.8924C9.1724 15.8924 9.3307 15.7967 9.41088 15.6439L11.1514 14.2962H14.3851C15.7581 14.2962 16.8752 13.0882 16.8752 11.6033V4.80237C16.8752 3.31743 15.7582 2.10938 14.3852 2.10938ZM9.39668 10.8405H4.88937C4.42862 10.8405 4.05379 10.4656 4.05379 10.0049C4.05379 8.76285 4.81401 7.69514 5.89354 7.24235C5.57445 6.92263 5.37688 6.48163 5.37688 5.99533C5.37688 5.02148 6.16916 4.22917 7.14301 4.22917C8.11686 4.22917 8.90914 5.02148 8.90914 5.99533C8.90914 6.48163 8.71154 6.92263 8.39247 7.24235C9.472 7.6951 10.2322 8.76282 10.2322 10.0049C10.2323 10.4656 9.85742 10.8405 9.39668 10.8405ZM13.4135 10.0738C13.4135 10.2704 13.1739 10.3687 12.9343 10.3687C12.6947 10.3687 12.4551 10.2703 12.4551 10.0738V6.94646L12.2769 7.05707C12.2216 7.09392 12.1663 7.10621 12.1233 7.10621C11.9451 7.10621 11.8222 6.91573 11.8222 6.72528C11.8222 6.59626 11.8775 6.47337 12.0004 6.39965L12.8114 5.90815C12.8606 5.87742 12.922 5.86513 12.9896 5.86513C13.1862 5.86513 13.4135 5.98187 13.4135 6.16619V10.0738Z" fill="currentColor"/>
<path d="M7.14337 6.83173C7.60529 6.83173 7.98109 6.45594 7.98109 5.99399C7.98109 5.53207 7.60526 5.15625 7.14337 5.15625C6.68149 5.15625 6.30566 5.53207 6.30566 5.99399C6.30563 6.45594 6.68146 6.83173 7.14337 6.83173Z" fill="currentColor"/>
</svg>
