<svg width="80" height="80" viewBox="0 0 80 80" fill="none" xmlns="http://www.w3.org/2000/svg">
<path d="M39.9972 24.9972C37.0305 24.9972 34.1304 25.8769 31.6637 27.5252C29.1969 29.1734 27.2743 31.5161 26.139 34.257C25.0037 36.9979 24.7067 40.0139 25.2854 42.9236C25.8642 45.8333 27.2928 48.506 29.3906 50.6038C31.4884 52.7016 34.1611 54.1302 37.0709 54.709C39.9806 55.2878 42.9966 54.9907 45.7375 53.8554C48.4784 52.7201 50.821 50.7975 52.4693 48.3308C54.1175 45.864 54.9972 42.9639 54.9972 39.9972C54.9931 36.0202 53.4114 32.2073 50.5993 29.3952C47.7871 26.583 43.9742 25.0014 39.9972 24.9972ZM39.9972 49.9972C38.0194 49.9972 36.086 49.4107 34.4415 48.3119C32.797 47.2131 31.5153 45.6513 30.7584 43.824C30.0015 41.9968 29.8035 39.9861 30.1894 38.0463C30.5752 36.1065 31.5276 34.3247 32.9261 32.9261C34.3247 31.5276 36.1065 30.5752 38.0463 30.1894C39.9861 29.8035 41.9968 30.0015 43.824 30.7584C45.6513 31.5153 47.2131 32.797 48.3119 34.4415C49.4107 36.086 49.9972 38.0194 49.9972 39.9972C49.9972 42.6494 48.9436 45.1929 47.0683 47.0683C45.1929 48.9436 42.6494 49.9972 39.9972 49.9972ZM67.4972 40.6722C67.5097 40.2222 67.5097 39.7722 67.4972 39.3222L72.1597 33.4972C72.4042 33.1914 72.5734 32.8324 72.6537 32.4492C72.7341 32.066 72.7233 31.6692 72.6222 31.291C71.8579 28.4178 70.7145 25.6592 69.2222 23.0878C69.0268 22.7513 68.7556 22.4651 68.4301 22.2519C68.1045 22.0387 67.7338 21.9044 67.3472 21.8597L59.9347 21.0347C59.6264 20.7097 59.3139 20.3972 58.9972 20.0972L58.1222 12.666C58.0772 12.2791 57.9425 11.9082 57.7287 11.5826C57.5149 11.2571 57.2281 10.986 56.891 10.791C54.3186 9.30142 51.5602 8.1592 48.6878 7.39409C48.3093 7.29345 47.9125 7.28316 47.5292 7.36404C47.146 7.44492 46.7872 7.6147 46.4816 7.85971L40.6722 12.4972C40.2222 12.4972 39.7722 12.4972 39.3222 12.4972L33.4972 7.84409C33.1914 7.59961 32.8324 7.43039 32.4492 7.35006C32.066 7.26973 31.6692 7.28053 31.291 7.38159C28.4183 8.1473 25.6599 9.2906 23.0878 10.7816C22.7513 10.977 22.4651 11.2482 22.2519 11.5737C22.0387 11.8993 21.9044 12.27 21.8597 12.6566L21.0347 20.0816C20.7097 20.392 20.3972 20.7045 20.0972 21.0191L12.666 21.8722C12.2791 21.9172 11.9082 22.052 11.5826 22.2657C11.2571 22.4795 10.986 22.7664 10.791 23.1035C9.30142 25.6759 8.1592 28.4342 7.39409 31.3066C7.29345 31.6851 7.28316 32.082 7.36404 32.4652C7.44492 32.8484 7.6147 33.2073 7.85971 33.5128L12.4972 39.3222C12.4972 39.7722 12.4972 40.2222 12.4972 40.6722L7.84409 46.4972C7.59961 46.8031 7.43039 47.162 7.35006 47.5452C7.26973 47.9285 7.28053 48.3252 7.38159 48.7035C8.14593 51.5766 9.2893 54.3352 10.7816 56.9066C10.977 57.2431 11.2482 57.5293 11.5737 57.7426C11.8993 57.9558 12.27 58.09 12.6566 58.1347L20.0691 58.9597C20.3795 59.2847 20.692 59.5972 21.0066 59.8972L21.8722 67.3285C21.9172 67.7153 22.052 68.0863 22.2657 68.4118C22.4795 68.7373 22.7664 69.0084 23.1035 69.2035C25.6759 70.693 28.4342 71.8352 31.3066 72.6003C31.6851 72.701 32.082 72.7113 32.4652 72.6304C32.8484 72.5495 33.2073 72.3797 33.5128 72.1347L39.3222 67.4972C39.7722 67.5097 40.2222 67.5097 40.6722 67.4972L46.4972 72.1597C46.8031 72.4042 47.162 72.5734 47.5452 72.6537C47.9285 72.7341 48.3252 72.7233 48.7035 72.6222C51.5766 71.8579 54.3352 70.7145 56.9066 69.2222C57.2431 69.0268 57.5293 68.7556 57.7426 68.4301C57.9558 68.1045 58.09 67.7338 58.1347 67.3472L58.9597 59.9347C59.2847 59.6264 59.5972 59.3139 59.8972 58.9972L67.3285 58.1222C67.7153 58.0772 68.0863 57.9425 68.4118 57.7287C68.7373 57.5149 69.0084 57.2281 69.2035 56.891C70.693 54.3186 71.8352 51.5602 72.6003 48.6878C72.701 48.3093 72.7113 47.9125 72.6304 47.5292C72.5495 47.146 72.3797 46.7872 72.1347 46.4816L67.4972 40.6722ZM62.466 38.641C62.5191 39.5443 62.5191 40.4501 62.466 41.3535C62.4287 41.972 62.6225 42.5822 63.0097 43.066L67.4441 48.6066C66.9353 50.2237 66.2837 51.7923 65.4972 53.2941L58.4347 54.0941C57.8197 54.1624 57.2518 54.4563 56.841 54.9191C56.2394 55.5956 55.5987 56.2363 54.9222 56.8378C54.4594 57.2487 54.1655 57.8165 54.0972 58.4316L53.3128 65.4878C51.8113 66.2747 50.2426 66.9263 48.6253 67.4347L43.0816 63.0003C42.638 62.6459 42.0869 62.453 41.5191 62.4535H41.3691C40.4657 62.5066 39.56 62.5066 38.6566 62.4535C38.0381 62.4162 37.4278 62.61 36.9441 62.9972L31.3878 67.4347C29.7708 66.9259 28.2021 66.2744 26.7003 65.4878L25.9003 58.4347C25.8321 57.8197 25.5381 57.2518 25.0753 56.841C24.3988 56.2394 23.7581 55.5987 23.1566 54.9222C22.7458 54.4594 22.1779 54.1655 21.5628 54.0972L14.5066 53.3097C13.7197 51.8081 13.0682 50.2394 12.5597 48.6222L16.9941 43.0785C17.3813 42.5947 17.5751 41.9845 17.5378 41.366C17.4847 40.4626 17.4847 39.5569 17.5378 38.6535C17.5751 38.035 17.3813 37.4247 16.9941 36.941L12.5597 31.3878C13.0685 29.7708 13.7201 28.2021 14.5066 26.7003L21.5597 25.9003C22.1748 25.8321 22.7426 25.5381 23.1535 25.0753C23.755 24.3988 24.3957 23.7581 25.0722 23.1566C25.5368 22.7455 25.832 22.1763 25.9003 21.5597L26.6847 14.5066C28.1863 13.7197 29.755 13.0682 31.3722 12.5597L36.916 16.9941C37.3997 17.3813 38.01 17.5751 38.6285 17.5378C39.5318 17.4847 40.4376 17.4847 41.341 17.5378C41.9595 17.5751 42.5697 17.3813 43.0535 16.9941L48.6066 12.5597C50.2237 13.0685 51.7923 13.7201 53.2941 14.5066L54.0941 21.5597C54.1624 22.1748 54.4563 22.7426 54.9191 23.1535C55.5956 23.755 56.2363 24.3957 56.8378 25.0722C57.2487 25.535 57.8165 25.8289 58.4316 25.8972L65.4878 26.6816C66.2747 28.1832 66.9263 29.7519 67.4347 31.3691L63.0003 36.9128C62.6094 37.4006 62.4154 38.0172 62.4566 38.641H62.466Z" fill="currentColor"/>
</svg>
