<svg width="80" height="80" viewBox="0 0 80 80" fill="none" xmlns="http://www.w3.org/2000/svg">
<path d="M67.5 22.4966H56.5375C56.6594 22.3934 56.7844 22.2934 56.9031 22.1841C57.8522 21.3409 58.6171 20.3109 59.15 19.1586C59.6829 18.0063 59.9722 16.7564 60 15.4872C60.041 14.0987 59.7979 12.7164 59.2854 11.4253C58.7729 10.1341 58.002 8.96135 57.0198 7.97894C56.0377 6.99654 54.8652 6.22523 53.5742 5.71236C52.2832 5.1995 50.901 4.95591 49.5125 4.99655C48.2427 5.0239 46.9923 5.31307 45.8394 5.84595C44.6865 6.37883 43.6561 7.14395 42.8125 8.09343C41.6453 9.44622 40.6963 10.9729 40 12.6184C39.3037 10.9729 38.3547 9.44622 37.1875 8.09343C36.3439 7.14395 35.3135 6.37883 34.1606 5.84595C33.0077 5.31307 31.7573 5.0239 30.4875 4.99655C29.099 4.95591 27.7168 5.1995 26.4258 5.71236C25.1348 6.22523 23.9623 6.99654 22.9802 7.97894C21.998 8.96135 21.2271 10.1341 20.7146 11.4253C20.2021 12.7164 19.959 14.0987 20 15.4872C20.0278 16.7564 20.3171 18.0063 20.85 19.1586C21.3829 20.3109 22.1478 21.3409 23.0969 22.1841C23.2156 22.2872 23.3406 22.3872 23.4625 22.4966H12.5C11.1739 22.4966 9.90215 23.0233 8.96447 23.961C8.02678 24.8987 7.5 26.1705 7.5 27.4966V37.4966C7.5 38.8226 8.02678 40.0944 8.96447 41.0321C9.90215 41.9698 11.1739 42.4966 12.5 42.4966V62.4966C12.5 63.8226 13.0268 65.0944 13.9645 66.0321C14.9021 66.9698 16.1739 67.4966 17.5 67.4966H62.5C63.8261 67.4966 65.0979 66.9698 66.0355 66.0321C66.9732 65.0944 67.5 63.8226 67.5 62.4966V42.4966C68.8261 42.4966 70.0979 41.9698 71.0355 41.0321C71.9732 40.0944 72.5 38.8226 72.5 37.4966V27.4966C72.5 26.1705 71.9732 24.8987 71.0355 23.961C70.0979 23.0233 68.8261 22.4966 67.5 22.4966ZM46.5625 11.4059C46.9583 10.9688 47.4403 10.6182 47.9781 10.3762C48.5158 10.1342 49.0978 10.006 49.6875 9.99967H49.8406C50.5318 10.004 51.2151 10.1462 51.8506 10.418C52.4861 10.6898 53.0609 11.0857 53.5414 11.5825C54.0219 12.0793 54.3984 12.6671 54.6489 13.3113C54.8994 13.9554 55.0187 14.6431 55 15.3341C54.9936 15.9237 54.8654 16.5057 54.6234 17.0435C54.3814 17.5813 54.0309 18.0632 53.5938 18.4591C50.6281 21.0841 45.7062 22.0091 42.6562 22.3341C43.0312 19.0247 44.0625 14.2153 46.5625 11.4059ZM26.5344 11.5184C27.5029 10.55 28.8147 10.003 30.1844 9.99655H30.3375C30.9272 10.0029 31.5092 10.1311 32.047 10.3731C32.5847 10.6151 33.0667 10.9657 33.4625 11.4028C36.0844 14.3653 37.0094 19.2778 37.3344 22.3153C34.2969 22.0028 29.3844 21.0653 26.4219 18.4434C25.9848 18.0476 25.6342 17.5657 25.3922 17.0279C25.1502 16.4901 25.022 15.9081 25.0156 15.3184C24.9962 14.616 25.1198 13.917 25.3787 13.2638C25.6376 12.6106 26.0265 12.0168 26.5219 11.5184H26.5344ZM12.5 27.4966H37.5V37.4966H12.5V27.4966ZM17.5 42.4966H37.5V62.4966H17.5V42.4966ZM62.5 62.4966H42.5V42.4966H62.5V62.4966ZM67.5 37.4966H42.5V27.4966H67.5V37.4966Z" fill="currentColor"/>
</svg>
