<svg viewBox="0 0 16 16" fill="none" xmlns="http://www.w3.org/2000/svg">
  <path
    d="M16.0001 1.00513V5.99487C16.0001 6.26145 15.8719 6.51711 15.6436 6.7056C15.4153 6.8941 15.1056 7 14.7827 7H1.21751C0.894641 7 0.584993 6.8941 0.356688 6.7056C0.128383 6.51711 0.00012207 6.26145 0.00012207 5.99487V1.00513C0.00012207 0.738552 0.128383 0.482894 0.356688 0.294395C0.584993 0.105897 0.894641 0 1.21751 0H14.7827C15.1056 0 15.4153 0.105897 15.6436 0.294395C15.8719 0.482894 16.0001 0.738552 16.0001 1.00513ZM14.7827 1.00513H1.21751V5.99487H14.7827V1.00513Z"
    fill="currentColor"
  />
  <path
    d="M16.0001 10.0051V14.9949C16.0001 15.2614 15.8719 15.5171 15.6436 15.7056C15.4153 15.8941 15.1056 16 14.7827 16H1.21751C0.894641 16 0.584993 15.8941 0.356688 15.7056C0.128383 15.5171 0.00012207 15.2614 0.00012207 14.9949V10.0051C0.00012207 9.73855 0.128383 9.48289 0.356688 9.2944C0.584993 9.1059 0.894641 9 1.21751 9H14.7827C15.1056 9 15.4153 9.1059 15.6436 9.2944C15.8719 9.48289 16.0001 9.73855 16.0001 10.0051ZM14.7827 10.0051H1.21751V14.9949H14.7827V10.0051Z"
    fill="currentColor"
  />
</svg>
