<svg width="24" height="24" viewBox="0 0 24 24" fill="none" xmlns="http://www.w3.org/2000/svg">
<path d="M12.0013 12.6876C11.8915 12.6876 11.7955 12.6602 11.6995 12.619L2.78526 8.16187C2.66932 8.10572 2.57155 8.01805 2.50313 7.9089C2.43472 7.79975 2.39844 7.67354 2.39844 7.54472C2.39844 7.41591 2.43472 7.2897 2.50313 7.18055C2.57155 7.0714 2.66932 6.98373 2.78526 6.92758L11.6995 2.47044C11.8915 2.37444 12.1247 2.37444 12.3167 2.47044L21.231 6.92758C21.3469 6.98373 21.4447 7.0714 21.5131 7.18055C21.5815 7.2897 21.6178 7.41591 21.6178 7.54472C21.6178 7.67354 21.5815 7.79975 21.5131 7.9089C21.4447 8.01805 21.3469 8.10572 21.231 8.16187L12.3167 12.619C12.2207 12.6739 12.111 12.6876 12.015 12.6876H12.0013ZM4.62297 7.54472L12.0013 11.2339L19.3795 7.54472L12.0013 3.85558L4.62297 7.54472Z" fill="currentColor"/>
<path d="M12.0013 17.1459C11.8915 17.1459 11.7955 17.1185 11.6995 17.0773L2.78526 12.6202C2.66932 12.564 2.57155 12.4764 2.50313 12.3672C2.43472 12.2581 2.39844 12.1319 2.39844 12.0031C2.39844 11.8742 2.43472 11.748 2.50313 11.6389C2.57155 11.5297 2.66932 11.4421 2.78526 11.3859L7.2424 9.16419C7.58526 8.99962 7.99669 9.13677 8.16126 9.46591C8.32583 9.80877 8.18869 10.2202 7.85954 10.3848L4.62297 12.0031L12.0013 15.6922L19.3795 12.0031L16.143 10.3848C16.0614 10.3458 15.9887 10.2907 15.929 10.2228C15.8693 10.1549 15.824 10.0756 15.7958 9.98978C15.7677 9.90392 15.7571 9.81324 15.7649 9.7232C15.7728 9.63316 15.7987 9.54564 15.8413 9.46591C16.0058 9.12305 16.4173 8.98591 16.7601 9.16419L21.2173 11.3859C21.3332 11.4421 21.431 11.5297 21.4994 11.6389C21.5678 11.748 21.6041 11.8742 21.6041 12.0031C21.6041 12.1319 21.5678 12.2581 21.4994 12.3672C21.431 12.4764 21.3332 12.564 21.2173 12.6202L12.303 17.0773C12.207 17.1322 12.0973 17.1459 12.0013 17.1459Z" fill="currentColor"/>
<path d="M12.0013 21.599C11.8915 21.599 11.7955 21.5716 11.6995 21.5305L2.78526 17.0733C2.66932 17.0172 2.57155 16.9295 2.50313 16.8204C2.43472 16.7112 2.39844 16.585 2.39844 16.4562C2.39844 16.3274 2.43472 16.2011 2.50313 16.092C2.57155 15.9829 2.66932 15.8952 2.78526 15.839L7.2424 13.6173C7.58526 13.4527 7.99669 13.5899 8.16126 13.919C8.32583 14.2619 8.18869 14.6733 7.85954 14.8379L4.62297 16.4562L12.0013 20.1453L19.3795 16.4562L16.143 14.8379C16.0614 14.7989 15.9887 14.7438 15.929 14.6759C15.8693 14.608 15.824 14.5288 15.7958 14.4429C15.7677 14.357 15.7571 14.2664 15.7649 14.1763C15.7728 14.0863 15.7987 13.9988 15.8413 13.919C16.0058 13.5762 16.4173 13.439 16.7601 13.6173L21.2173 15.839C21.3332 15.8952 21.431 15.9829 21.4994 16.092C21.5678 16.2011 21.6041 16.3274 21.6041 16.4562C21.6041 16.585 21.5678 16.7112 21.4994 16.8204C21.431 16.9295 21.3332 17.0172 21.2173 17.0733L12.303 21.5305C12.207 21.5853 12.0973 21.599 12.0013 21.599Z" fill="currentColor"/>
</svg>
