<svg width="24" height="24" viewBox="0 0 24 24" fill="none" xmlns="http://www.w3.org/2000/svg">
<path d="M9.67969 13.323L11.0587 14.898C11.0883 14.9316 11.1251 14.9581 11.1664 14.9755C11.2076 14.993 11.2522 15.0009 11.297 14.9988C11.3417 14.9967 11.3854 14.9846 11.4248 14.9633C11.4642 14.9421 11.4983 14.9122 11.5247 14.876L14.3247 11" stroke="currentColor" stroke-width="1.5" stroke-linecap="round" stroke-linejoin="round"/>
<path d="M6.133 21.0003C4.955 21.0003 4 20.0203 4 18.8103V10.0083C4 9.34328 4.295 8.71328 4.8 8.29828L10.667 3.48028C11.0419 3.16986 11.5133 3 12 3C12.4867 3 12.9581 3.16986 13.333 3.48028L19.199 8.29828C19.705 8.71328 20 9.34328 20 10.0083V18.8103C20 20.0203 19.045 21.0003 17.867 21.0003H6.133Z" stroke="currentColor" stroke-width="1.5" stroke-linecap="round" stroke-linejoin="round"/>
</svg>
