<svg width="32" height="33" viewBox="0 0 32 33" fill="none" xmlns="http://www.w3.org/2000/svg">
  <path d="M27 5.02881H5C4.46957 5.02881 3.96086 5.23952 3.58579 5.61459C3.21071 5.98967 3 6.49838 3 7.02881V25.0288C3 25.5592 3.21071 26.0679 3.58579 26.443C3.96086 26.8181 4.46957 27.0288 5 27.0288H27C27.5304 27.0288 28.0391 26.8181 28.4142 26.443C28.7893 26.0679 29 25.5592 29 25.0288V7.02881C29 6.49838 28.7893 5.98967 28.4142 5.61459C28.0391 5.23952 27.5304 5.02881 27 5.02881ZM27 7.02881V19.8726L23.7412 16.6151C23.5555 16.4293 23.335 16.2819 23.0923 16.1814C22.8497 16.0809 22.5896 16.0291 22.3269 16.0291C22.0642 16.0291 21.8041 16.0809 21.5614 16.1814C21.3187 16.2819 21.0982 16.4293 20.9125 16.6151L18.4125 19.1151L12.9125 13.6151C12.5375 13.2403 12.029 13.0297 11.4987 13.0297C10.9685 13.0297 10.46 13.2403 10.085 13.6151L5 18.7001V7.02881H27ZM5 21.5288L11.5 15.0288L21.5 25.0288H5V21.5288ZM27 25.0288H24.3288L19.8288 20.5288L22.3288 18.0288L27 22.7013V25.0288ZM18 12.5288C18 12.2321 18.088 11.9421 18.2528 11.6955C18.4176 11.4488 18.6519 11.2565 18.926 11.143C19.2001 11.0295 19.5017 10.9998 19.7926 11.0576C20.0836 11.1155 20.3509 11.2584 20.5607 11.4681C20.7704 11.6779 20.9133 11.9452 20.9712 12.2362C21.0291 12.5271 20.9993 12.8287 20.8858 13.1028C20.7723 13.3769 20.58 13.6112 20.3334 13.776C20.0867 13.9408 19.7967 14.0288 19.5 14.0288C19.1022 14.0288 18.7206 13.8708 18.4393 13.5895C18.158 13.3082 18 12.9266 18 12.5288Z" fill="currentColor"/>
</svg>
