<svg viewBox="0 0 21 20" fill="none" xmlns="http://www.w3.org/2000/svg">
  <path d="M4.01834 16.4824C4.4049 16.8695 4.86415 17.1764 5.36969 17.3855C5.87523 17.5946 6.4171 17.7017 6.96418 17.7007C7.51137 17.7017 8.05336 17.5946 8.55903 17.3855C9.0647 17.1764 9.5241 16.8695 9.91084 16.4824L12.2675 14.1249L11.0892 12.9466L8.73251 15.3041C8.2629 15.7716 7.62724 16.034 6.96459 16.034C6.30195 16.034 5.66628 15.7716 5.19668 15.3041C4.72876 14.8347 4.46601 14.1989 4.46601 13.5362C4.46601 12.8734 4.72876 12.2376 5.19668 11.7682L7.55418 9.41157L6.37584 8.23324L4.01834 10.5899C3.23818 11.372 2.80005 12.4315 2.80005 13.5362C2.80005 14.6408 3.23818 15.7004 4.01834 16.4824ZM16.9817 9.41157C17.7614 8.62931 18.1993 7.56984 18.1993 6.46532C18.1993 5.36081 17.7614 4.30134 16.9817 3.51907C16.1996 2.73891 15.1401 2.30078 14.0354 2.30078C12.9308 2.30078 11.8712 2.73891 11.0892 3.51907L8.73251 5.87657L9.91084 7.05491L12.2675 4.69741C12.7371 4.2299 13.3728 3.96743 14.0354 3.96743C14.6981 3.96743 15.3337 4.2299 15.8033 4.69741C16.2713 5.1668 16.534 5.80255 16.534 6.46532C16.534 7.1281 16.2713 7.76385 15.8033 8.23324L13.4458 10.5899L14.6242 11.7682L16.9817 9.41157Z" fill="currentColor"/>
  <path d="M7.55334 14.125L6.37418 12.9467L13.4467 5.875L14.625 7.05417L7.55334 14.125Z" fill="currentColor"/>
</svg>
