<svg viewBox="0 0 21 20" fill="none" xmlns="http://www.w3.org/2000/svg">
  <path d="M10.5 11.25C9.88194 11.25 9.27775 11.0667 8.76384 10.7233C8.24994 10.38 7.8494 9.89191 7.61288 9.32089C7.37635 8.74987 7.31447 8.12154 7.43505 7.51534C7.55563 6.90915 7.85325 6.35233 8.29029 5.91529C8.72733 5.47825 9.28415 5.18063 9.89034 5.06005C10.4965 4.93947 11.1249 5.00135 11.6959 5.23788C12.2669 5.4744 12.755 5.87494 13.0983 6.38884C13.4417 6.90275 13.625 7.50694 13.625 8.125C13.624 8.9535 13.2945 9.74778 12.7086 10.3336C12.1228 10.9195 11.3285 11.249 10.5 11.25ZM10.5 6.25C10.1292 6.25 9.76665 6.35997 9.45831 6.566C9.14997 6.77202 8.90964 7.06486 8.76773 7.40747C8.62581 7.75008 8.58868 8.12708 8.66103 8.4908C8.73338 8.85451 8.91195 9.1886 9.17418 9.45083C9.4364 9.71305 9.77049 9.89163 10.1342 9.96397C10.4979 10.0363 10.8749 9.99919 11.2175 9.85728C11.5601 9.71536 11.853 9.47504 12.059 9.1667C12.265 8.85835 12.375 8.49584 12.375 8.125C12.3745 7.62787 12.1768 7.15125 11.8253 6.79972C11.4738 6.4482 10.9971 6.2505 10.5 6.25Z" fill="currentColor"/>
  <path d="M10.5 18.75L5.22751 12.5319C5.15425 12.4385 5.08174 12.3445 5.01001 12.25C4.10937 11.0636 3.62282 9.61452 3.62501 8.125C3.62501 6.30164 4.34934 4.55295 5.63865 3.26364C6.92796 1.97433 8.67664 1.25 10.5 1.25C12.3234 1.25 14.0721 1.97433 15.3614 3.26364C16.6507 4.55295 17.375 6.30164 17.375 8.125C17.3772 9.61384 16.8909 11.0623 15.9906 12.2481L15.99 12.25C15.99 12.25 15.8025 12.4963 15.7744 12.5294L10.5 18.75ZM6.00751 11.4969C6.00876 11.4969 6.15376 11.6894 6.18688 11.7306L10.5 16.8175L14.8188 11.7237C14.8463 11.6894 14.9925 11.4956 14.9931 11.495C15.7289 10.5257 16.1265 9.34189 16.125 8.125C16.125 6.63316 15.5324 5.20242 14.4775 4.14752C13.4226 3.09263 11.9918 2.5 10.5 2.5C9.00816 2.5 7.57742 3.09263 6.52253 4.14752C5.46764 5.20242 4.87501 6.63316 4.87501 8.125C4.8737 9.34265 5.27174 10.5271 6.00813 11.4969H6.00751Z" fill="currentColor"/>
</svg>
