<svg id="logo-smatez" viewBox="0 0 30 30" fill="none" xmlns="http://www.w3.org/2000/svg">
  <path
    d="M27.1267 12.4262H14.6428C14.5068 12.4262 14.3768 12.4904 14.2976 12.6009C14.2124 12.7173 14.1197 12.8277 14.0181 12.9292C13.5339 13.4128 12.8643 13.7128 12.1245 13.7128C11.3847 13.7128 10.7152 13.4143 10.2309 12.9292C9.74671 12.4457 9.44631 11.777 9.44631 11.0383C9.44631 10.2995 9.74521 9.63236 10.2309 9.14731C10.7152 8.66375 11.3847 8.36376 12.1245 8.36376C13.0182 8.36376 13.8104 8.80105 14.2961 9.47416C14.3768 9.5846 14.5053 9.65176 14.6428 9.65176H25.39C25.7891 9.65176 25.9893 9.16969 25.7069 8.88762L18.0847 1.27606C16.381 -0.425352 13.6191 -0.425352 11.9153 1.27606L1.25775 11.9203C0.585205 12.5904 0.178691 13.4262 0.0367105 14.2963C-0.244262 16.0201 1.12473 17.5752 2.87334 17.5752H15.3572C15.4932 17.5752 15.6232 17.5111 15.7024 17.4006C15.7876 17.2842 15.8803 17.1738 15.9819 17.0723C16.5289 16.526 17.312 16.2156 18.1639 16.3037C19.4164 16.435 20.4222 17.4529 20.5402 18.7035C20.6195 19.5438 20.3086 20.3124 19.7676 20.8512C19.2833 21.3348 18.6138 21.6347 17.874 21.6347C17.1342 21.6347 16.4646 21.3363 15.9804 20.8512C15.8788 20.7497 15.7846 20.6393 15.7009 20.5229C15.6217 20.4124 15.4917 20.3482 15.3557 20.3482H4.60999C4.21095 20.3482 4.01068 20.8303 4.29315 21.1124L11.9153 28.7239C13.6191 30.4254 16.381 30.4254 18.0847 28.7239L28.7423 18.0812C29.4148 17.4111 29.8213 16.5753 29.9633 15.7052C30.2443 13.9814 28.8753 12.4262 27.1267 12.4262Z"
    fill="currentColor" />
</svg>
