<svg width="80" height="80" viewBox="0 0 80 80" fill="none" xmlns="http://www.w3.org/2000/svg">
<path d="M62.5 70H47.0437C49.6402 67.6816 52.0887 65.2028 54.375 62.5781C62.9531 52.7125 67.5 42.3125 67.5 32.5C67.5 25.2065 64.6027 18.2118 59.4454 13.0546C54.2882 7.89731 47.2935 5 40 5C32.7065 5 25.7118 7.89731 20.5546 13.0546C15.3973 18.2118 12.5 25.2065 12.5 32.5C12.5 42.3125 17.0344 52.7125 25.625 62.5781C27.9113 65.2028 30.3598 67.6816 32.9562 70H17.5C16.837 70 16.2011 70.2634 15.7322 70.7322C15.2634 71.2011 15 71.837 15 72.5C15 73.163 15.2634 73.7989 15.7322 74.2678C16.2011 74.7366 16.837 75 17.5 75H62.5C63.163 75 63.7989 74.7366 64.2678 74.2678C64.7366 73.7989 65 73.163 65 72.5C65 71.837 64.7366 71.2011 64.2678 70.7322C63.7989 70.2634 63.163 70 62.5 70ZM17.5 32.5C17.5 26.5326 19.8705 20.8097 24.0901 16.5901C28.3097 12.3705 34.0326 10 40 10C45.9674 10 51.6903 12.3705 55.9099 16.5901C60.1295 20.8097 62.5 26.5326 62.5 32.5C62.5 50.3844 45.1656 65.3125 40 69.375C34.8344 65.3125 17.5 50.3844 17.5 32.5ZM52.5 32.5C52.5 30.0277 51.7669 27.611 50.3934 25.5554C49.0199 23.4998 47.0676 21.8976 44.7835 20.9515C42.4995 20.0054 39.9861 19.7579 37.5614 20.2402C35.1366 20.7225 32.9093 21.913 31.1612 23.6612C29.413 25.4093 28.2225 27.6366 27.7402 30.0614C27.2579 32.4861 27.5054 34.9995 28.4515 37.2835C29.3976 39.5676 30.9998 41.5199 33.0554 42.8934C35.111 44.2669 37.5277 45 40 45C43.3152 45 46.4946 43.683 48.8388 41.3388C51.183 38.9946 52.5 35.8152 52.5 32.5ZM32.5 32.5C32.5 31.0166 32.9399 29.5666 33.764 28.3332C34.5881 27.0999 35.7594 26.1386 37.1299 25.5709C38.5003 25.0032 40.0083 24.8547 41.4632 25.1441C42.918 25.4335 44.2544 26.1478 45.3033 27.1967C46.3522 28.2456 47.0665 29.582 47.3559 31.0368C47.6453 32.4917 47.4968 33.9997 46.9291 35.3701C46.3614 36.7406 45.4001 37.9119 44.1668 38.736C42.9334 39.5601 41.4834 40 40 40C38.0109 40 36.1032 39.2098 34.6967 37.8033C33.2902 36.3968 32.5 34.4891 32.5 32.5Z" fill="currentColor"/>
</svg>
