<svg viewBox="0 0 21 20" fill="none" xmlns="http://www.w3.org/2000/svg">
  <path d="M18.2594 5.73184L14.768 2.24122C14.6519 2.12511 14.5141 2.03301 14.3624 1.97018C14.2107 1.90734 14.0482 1.875 13.884 1.875C13.7198 1.875 13.5572 1.90734 13.4056 1.97018C13.2539 2.03301 13.1161 2.12511 13 2.24122L3.36641 11.8748C3.24983 11.9905 3.15741 12.1281 3.09451 12.2798C3.0316 12.4315 2.99948 12.5942 3.00001 12.7584V16.2498C3.00001 16.5813 3.1317 16.8993 3.36612 17.1337C3.60054 17.3681 3.91849 17.4998 4.25001 17.4998H17.375C17.5408 17.4998 17.6997 17.434 17.8169 17.3168C17.9342 17.1995 18 17.0406 18 16.8748C18 16.7091 17.9342 16.5501 17.8169 16.4329C17.6997 16.3157 17.5408 16.2498 17.375 16.2498H9.50938L18.2594 7.49981C18.3755 7.38373 18.4676 7.24592 18.5304 7.09425C18.5933 6.94257 18.6256 6.78 18.6256 6.61583C18.6256 6.45165 18.5933 6.28908 18.5304 6.13741C18.4676 5.98573 18.3755 5.84792 18.2594 5.73184ZM7.74141 16.2498H4.25001V12.7584L11.125 5.8834L14.6164 9.37481L7.74141 16.2498ZM15.5 8.49122L12.0094 4.99981L13.8844 3.12481L17.375 6.61622L15.5 8.49122Z" fill="currentColor"/>
</svg>
