<svg width="80" height="80" viewBox="0 0 80 80" fill="none" xmlns="http://www.w3.org/2000/svg">
<path d="M33.3307 16.6641H9.9974C9.11334 16.6641 8.26549 17.0153 7.64037 17.6404C7.01525 18.2655 6.66406 19.1133 6.66406 19.9974V63.3307C6.66406 64.2148 7.01525 65.0626 7.64037 65.6878C8.26549 66.3129 9.11334 66.6641 9.9974 66.6641H69.9974C70.8814 66.6641 71.7293 66.3129 72.3544 65.6878C72.9795 65.0626 73.3307 64.2148 73.3307 63.3307V59.1641" stroke="currentColor" stroke-width="4" stroke-linecap="round" stroke-linejoin="round"/>
<path d="M16.6641 38.3281H29.9974M16.6641 51.6615H56.6641" stroke="currentColor" stroke-width="4" stroke-linecap="round"/>
<path d="M56.6641 36.6641C62.1869 36.6641 66.6641 32.1869 66.6641 26.6641C66.6641 21.1412 62.1869 16.6641 56.6641 16.6641C51.1412 16.6641 46.6641 21.1412 46.6641 26.6641C46.6641 32.1869 51.1412 36.6641 56.6641 36.6641Z" stroke="currentColor" stroke-width="4" stroke-linecap="round" stroke-linejoin="round"/>
<path d="M73.3333 47.3624C70.0783 41.0007 63.3333 36.6641 56.6667 36.6641C50 36.6641 46.6783 38.5524 43.25 41.6641" stroke="currentColor" stroke-width="4" stroke-linecap="round" stroke-linejoin="round"/>
</svg>
