<svg width="80" height="80" viewBox="0 0 80 80" fill="none" xmlns="http://www.w3.org/2000/svg">
<path d="M40 60.0013C38.2535 60.0018 36.5616 59.3926 35.2161 58.279C33.8706 57.1654 32.956 55.6172 32.63 53.9013C27.7235 52.3901 23.4034 49.4005 20.26 45.3413C17.8844 42.2822 16.2521 38.713 15.4918 34.9152C14.7316 31.1173 14.8641 27.1948 15.879 23.457C16.8939 19.7191 18.7634 16.2682 21.3401 13.3764C23.9167 10.4847 27.13 8.23113 30.7265 6.79357C34.323 5.35601 38.2044 4.77376 42.0644 5.09275C45.9244 5.41173 49.6575 6.62323 52.9693 8.63167C56.281 10.6401 59.0808 13.3906 61.1478 16.6661C63.2148 19.9416 64.4925 23.6526 64.88 27.5063C65.015 28.8813 63.88 30.0013 62.5 30.0013C61.12 30.0013 60.015 28.8763 59.85 27.5063C59.4038 23.9705 58.0208 20.6181 55.8443 17.7961C53.6677 14.974 50.7766 12.7848 47.4701 11.455C44.1636 10.1252 40.5618 9.70308 37.0375 10.2323C33.5131 10.7615 30.1941 12.2229 27.424 14.4652C24.6539 16.7075 22.5333 19.6492 21.2816 22.9861C20.0299 26.3229 19.6925 29.9336 20.3044 33.4446C20.9163 36.9555 22.4553 40.2392 24.7621 42.9559C27.0689 45.6725 30.0597 47.7234 33.425 48.8963C34.0612 47.7356 34.9933 46.764 36.1266 46.08C37.2599 45.3961 38.554 45.0243 39.8774 45.0024C41.2009 44.9804 42.5066 45.3091 43.6619 45.9551C44.8173 46.6011 45.7811 47.5413 46.4554 48.6803C47.1298 49.8193 47.4907 51.1164 47.5015 52.44C47.5123 53.7637 47.1727 55.0666 46.517 56.2164C45.8613 57.3663 44.9131 58.3221 43.7684 58.9869C42.6238 59.6516 41.3237 60.0016 40 60.0013ZM20 52.5013V52.3663C18.6335 51.1412 17.3817 49.794 16.26 48.3413C15.4367 49.5723 14.9981 51.0204 15 52.5013V55.0013C15 64.8563 24.3 75.0013 40 75.0013C55.7 75.0013 65 64.8563 65 55.0013V52.5013C65 50.5122 64.2098 48.6046 62.8033 47.198C61.3968 45.7915 59.4891 45.0013 57.5 45.0013H50C51.095 46.4513 51.875 48.1513 52.25 50.0013H57.5C58.163 50.0013 58.7989 50.2647 59.2678 50.7336C59.7366 51.2024 60 51.8383 60 52.5013V55.0013C60 62.1913 52.84 70.0013 40 70.0013C27.16 70.0013 20 62.1913 20 55.0013V52.5013ZM40 40.0013C37.1384 39.9972 34.3627 40.9789 32.14 42.7813C29.9536 41.4424 28.1485 39.5636 26.8981 37.3254C25.6476 35.0873 24.994 32.5651 25 30.0013C25.0007 27.3862 25.6852 24.8167 26.9853 22.5478C28.2855 20.2788 30.1563 18.3891 32.4122 17.0663C34.668 15.7434 37.2305 15.0333 39.8455 15.0064C42.4604 14.9794 45.037 15.6366 47.3196 16.9127C49.6023 18.1888 51.5116 20.0395 52.8582 22.2812C54.2049 24.5229 54.9421 27.0778 54.9967 29.6923C55.0513 32.3068 54.4215 34.8902 53.1696 37.1862C51.9177 39.4822 50.0873 41.411 47.86 42.7813C45.6374 40.9789 42.8616 39.9972 40 40.0013ZM30 30.0013C30 32.6535 31.0536 35.197 32.9289 37.0724C34.8043 38.9478 37.3478 40.0013 40 40.0013C42.6522 40.0013 45.1957 38.9478 47.0711 37.0724C48.9464 35.197 50 32.6535 50 30.0013C50 27.3492 48.9464 24.8056 47.0711 22.9303C45.1957 21.0549 42.6522 20.0013 40 20.0013C37.3478 20.0013 34.8043 21.0549 32.9289 22.9303C31.0536 24.8056 30 27.3492 30 30.0013Z" fill="currentColor"/>
</svg>
