<svg viewBox="0 0 20 20" fill="none" xmlns="http://www.w3.org/2000/svg">
  <path d="M5.88154 2.01509L6.85404 1.72259C7.38678 1.56194 7.95978 1.60061 8.4661 1.83139C8.97242 2.06216 9.37749 2.46927 9.60571 2.97675L10.3574 4.64842C10.5536 5.08492 10.6082 5.5719 10.5136 6.04103C10.419 6.51017 10.1799 6.93791 9.82987 7.26425L8.58404 8.42508C8.54765 8.459 8.52459 8.50482 8.51904 8.55425C8.48237 8.88509 8.70654 9.52925 9.22404 10.4251C9.59904 11.0759 9.93987 11.5334 10.229 11.7893C10.4315 11.9684 10.5424 12.0068 10.5899 11.9934L12.2649 11.4809C12.7223 11.341 13.212 11.3477 13.6655 11.5002C14.1189 11.6526 14.5132 11.9431 14.7932 12.3309L15.8599 13.8109C16.1846 14.2609 16.335 14.8134 16.2832 15.3659C16.2314 15.9184 15.9809 16.4333 15.5782 16.8151L14.839 17.5151C14.4472 17.8862 13.9659 18.1495 13.442 18.2793C12.9182 18.4091 12.3697 18.4011 11.8499 18.2559C9.55487 17.6151 7.49737 15.6784 5.65404 12.4859C3.80904 9.28925 3.16071 6.53592 3.75904 4.22509C3.89335 3.70536 4.15928 3.229 4.53119 2.84192C4.90309 2.45483 5.36761 2.17007 5.88154 2.01509ZM6.24237 3.21259C5.93395 3.30534 5.65461 3.47598 5.43129 3.70806C5.20798 3.94013 5.0482 4.22582 4.96737 4.53759C4.46571 6.48092 5.03987 8.92175 6.73654 11.8609C8.43154 14.7959 10.2557 16.5126 12.1865 17.0526C12.4984 17.1396 12.8276 17.1443 13.1418 17.0663C13.4561 16.9883 13.7448 16.8303 13.9799 16.6076L14.7182 15.9076C14.9014 15.7341 15.0154 15.5 15.039 15.2488C15.0626 14.9976 14.9942 14.7463 14.8465 14.5418L13.7799 13.0626C13.6526 12.8861 13.4732 12.7539 13.267 12.6845C13.0607 12.6152 12.8379 12.6122 12.6299 12.6759L10.9507 13.1901C9.97571 13.4801 9.09154 12.6959 8.14154 11.0501C7.50071 9.94175 7.20237 9.08342 7.27737 8.41592C7.31571 8.06925 7.47737 7.74925 7.73154 7.51092L8.97737 6.35009C9.13642 6.20166 9.24501 6.00717 9.2879 5.7939C9.33079 5.58063 9.30584 5.35929 9.21654 5.16092L8.46571 3.48925C8.36196 3.25858 8.17782 3.07353 7.94766 2.96865C7.71749 2.86376 7.45703 2.84621 7.21487 2.91925L6.24237 3.21259Z" fill="currentColor"/>
</svg>
