<svg viewBox="0 0 21 20" fill="none" xmlns="http://www.w3.org/2000/svg">
  <path d="M15.5 8.125H14.25C14.2495 7.62787 14.0518 7.15125 13.7003 6.79972C13.3488 6.4482 12.8721 6.2505 12.375 6.25V5C13.2035 5.00099 13.9978 5.33055 14.5836 5.91639C15.1694 6.50222 15.499 7.2965 15.5 8.125Z" fill="currentColor"/>
  <path d="M18 8.125H16.75C16.7487 6.96508 16.2873 5.85306 15.4671 5.03287C14.6469 4.21269 13.5349 3.75132 12.375 3.75V2.5C13.8663 2.50165 15.2961 3.09482 16.3506 4.14935C17.4052 5.20389 17.9983 6.63367 18 8.125ZM16.75 18.125H16.6437C4.36249 17.4187 2.61874 7.05625 2.37499 3.89375C2.3369 3.39797 2.49729 2.90736 2.82091 2.52983C3.14452 2.1523 3.60484 1.91878 4.10062 1.88063C4.1502 1.87688 4.19999 1.875 4.24999 1.875H7.54374C7.79409 1.87476 8.03874 1.94969 8.24601 2.0901C8.45328 2.23051 8.61361 2.42992 8.70624 2.6625L9.65624 5C9.74771 5.22722 9.77041 5.4763 9.72152 5.71631C9.67263 5.95631 9.5543 6.17667 9.38124 6.35L8.04999 7.69375C8.25709 8.87583 8.82273 9.96562 9.6702 10.8153C10.5177 11.665 11.606 12.2335 12.7875 12.4438L14.1437 11.1C14.3197 10.9288 14.5421 10.8133 14.7833 10.7677C15.0245 10.7221 15.2737 10.7486 15.5 10.8438L17.8562 11.7875C18.0853 11.8831 18.2808 12.0446 18.4177 12.2517C18.5546 12.4587 18.6267 12.7018 18.625 12.95V16.25C18.625 16.7473 18.4274 17.2242 18.0758 17.5758C17.7242 17.9275 17.2473 18.125 16.75 18.125ZM4.24999 3.125C4.16792 3.12475 4.08659 3.14068 4.01067 3.17186C3.93475 3.20304 3.86571 3.24887 3.8075 3.30673C3.74929 3.36459 3.70305 3.43336 3.67141 3.50909C3.63977 3.58483 3.62336 3.66605 3.62312 3.74813C3.62312 3.76563 3.62374 3.78292 3.62499 3.8C3.91249 7.5 5.75624 16.25 16.7125 16.875C16.8779 16.8849 17.0405 16.8287 17.1645 16.7188C17.2885 16.6088 17.3638 16.4542 17.3737 16.2887L17.375 16.25V12.95L15.0187 12.0062L13.225 13.7875L12.925 13.75C7.48749 13.0688 6.74999 7.63125 6.74999 7.575L6.71249 7.275L8.48749 5.48125L7.54999 3.125H4.24999Z" fill="currentColor"/>
</svg>
