<svg xmlns="http://www.w3.org/2000/svg" width="52" height="52" viewBox="0 0 52 52" fill="none">
  <path d="M26.2917 49.5835C20.1143 49.5835 14.19 47.1295 9.82197 42.7615C5.45394 38.3935 3 32.4691 3 26.2918C3 20.1145 5.45394 14.1901 9.82197 9.8221C14.19 5.45406 20.1143 3.00013 26.2917 3.00013C29.9214 2.98811 33.5017 3.84232 36.735 5.49179C36.9256 5.58853 37.0953 5.72187 37.2345 5.8842C37.3736 6.04653 37.4793 6.23467 37.5457 6.43788C37.6121 6.64108 37.6378 6.85538 37.6214 7.06852C37.605 7.28167 37.5467 7.48949 37.45 7.68013C37.3533 7.87076 37.2199 8.04048 37.0576 8.17958C36.8953 8.31868 36.7071 8.42445 36.5039 8.49084C36.3007 8.55724 36.0864 8.58296 35.8733 8.56653C35.6601 8.55011 35.4523 8.49187 35.2617 8.39513C32.4881 6.96564 29.412 6.22261 26.2917 6.22846C22.3287 6.22846 18.4547 7.40334 15.1594 9.60459C11.864 11.8058 9.2952 14.9346 7.77766 18.5955C6.26012 22.2564 5.86197 26.285 6.63352 30.1721C7.40508 34.0592 9.31172 37.6303 12.1124 40.4341C14.9131 43.2378 18.4822 45.1483 22.3685 45.9241C26.2547 46.6998 30.2838 46.306 33.9463 44.7924C37.6088 43.2788 40.7404 40.7134 42.9452 37.4204C45.15 34.1275 46.3291 30.2547 46.3333 26.2918C46.3446 26.1114 46.3446 25.9305 46.3333 25.7501C46.2931 25.3192 46.4257 24.8898 46.702 24.5567C46.9783 24.2235 47.3757 24.0137 47.8067 23.9735C48.2376 23.9332 48.667 24.0659 49.0001 24.3422C49.3333 24.6185 49.5431 25.0158 49.5833 25.4468V26.2918C49.5776 32.4674 47.1218 38.3884 42.755 42.7552C38.3882 47.122 32.4672 49.5777 26.2917 49.5835Z" fill="currentColor"/>
  <path fill-rule="evenodd" clip-rule="evenodd" d="M25.3918 16C26.1604 16 26.7835 16.6476 26.7835 17.4464V26.1071H32.6082C33.3769 26.1071 34 26.7547 34 27.5536C34 28.3524 33.3769 29 32.6082 29H24V17.4464C24 16.6476 24.6231 16 25.3918 16Z" fill="currentColor"/>
</svg>
