<svg width="80" height="80" viewBox="0 0 80 80" fill="none" xmlns="http://www.w3.org/2000/svg">
<path d="M70 15H75V65H65V80L50 65H30L35 60H52.0703L60 67.9297V60H70V15ZM30 55L15 70V55H0V0H65V55H30ZM5 50H20V57.9297L27.9297 50H60V5H5V50ZM30 45V40H35V45H30ZM32.5 15C31.7969 15 31.1458 15.1302 30.5469 15.3906C29.9479 15.651 29.4271 16.0026 28.9844 16.4453C28.5417 16.888 28.1771 17.4219 27.8906 18.0469C27.6042 18.6719 27.474 19.3229 27.5 20H22.5C22.5 18.6198 22.7604 17.3307 23.2812 16.1328C23.8021 14.9349 24.5182 13.8672 25.4297 12.9297C26.3411 11.9922 27.3958 11.276 28.5938 10.7812C29.7917 10.2865 31.0938 10.026 32.5 10C33.8802 10 35.1693 10.2604 36.3672 10.7812C37.5651 11.3021 38.6328 12.0182 39.5703 12.9297C40.5078 13.8411 41.224 14.8958 41.7188 16.0938C42.2135 17.2917 42.474 18.5938 42.5 20C42.5 21.1979 42.3177 22.2526 41.9531 23.1641C41.5885 24.0755 41.1068 24.9219 40.5078 25.7031C39.9089 26.4844 39.2318 27.2266 38.4766 27.9297C37.7214 28.6328 36.9531 29.388 36.1719 30.1953C35.651 30.7161 35.3255 31.263 35.1953 31.8359C35.0651 32.4089 34.987 33.0208 34.9609 33.6719V34.2969C34.9609 34.5052 34.974 34.7396 35 35H30V33.125C30 31.9271 30.1823 30.8724 30.5469 29.9609C30.9115 29.0495 31.3672 28.2292 31.9141 27.5C32.4609 26.7708 33.0729 26.1198 33.75 25.5469C34.4271 24.974 35.026 24.388 35.5469 23.7891C36.0677 23.1901 36.5365 22.6042 36.9531 22.0312C37.3698 21.4583 37.5521 20.7812 37.5 20C37.5 19.2969 37.3698 18.6458 37.1094 18.0469C36.849 17.4479 36.4974 16.9271 36.0547 16.4844C35.612 16.0417 35.0781 15.6771 34.4531 15.3906C33.8281 15.1042 33.1771 14.974 32.5 15Z" fill="currentColor"/>
</svg>
