<svg xmlns="http://www.w3.org/2000/svg" width="53" height="52" viewBox="0 0 53 52" fill="none">
  <path d="M28.8529 38.2353C28.8529 38.7007 28.7149 39.1556 28.4564 39.5425C28.1979 39.9295 27.8304 40.231 27.4004 40.4091C26.9705 40.5872 26.4974 40.6338 26.041 40.543C25.5845 40.4522 25.1653 40.2281 24.8362 39.8991C24.5072 39.57 24.2831 39.1507 24.1923 38.6943C24.1015 38.2379 24.1481 37.7648 24.3262 37.3349C24.5043 36.9049 24.8058 36.5374 25.1928 36.2789C25.5797 36.0203 26.0346 35.8823 26.5 35.8823C27.124 35.8823 27.7225 36.1302 28.1638 36.5715C28.605 37.0128 28.8529 37.6112 28.8529 38.2353ZM26.5 13.2941C21.5588 13.2941 17.5588 16.8823 17.5588 21.2941V22.2353C17.5588 22.6097 17.7076 22.9688 17.9723 23.2336C18.2371 23.4983 18.5962 23.6471 18.9706 23.6471C19.345 23.6471 19.7041 23.4983 19.9689 23.2336C20.2336 22.9688 20.3824 22.6097 20.3824 22.2353V21.2941C20.3824 18.44 23.1259 16.1176 26.5 16.1176C29.8741 16.1176 32.6177 18.44 32.6177 21.2941C32.6177 24.1482 29.8741 26.4706 26.5 26.4706C26.1256 26.4706 25.7665 26.6193 25.5017 26.8841C25.237 27.1488 25.0882 27.5079 25.0882 27.8823V29.7647C25.0882 30.1391 25.237 30.4982 25.5017 30.763C25.7665 31.0277 26.1256 31.1765 26.5 31.1765C26.8744 31.1765 27.2335 31.0277 27.4983 30.763C27.763 30.4982 27.9118 30.1391 27.9118 29.7647V29.1953C32.1729 28.5882 35.4412 25.2753 35.4412 21.2941C35.4412 16.8823 31.4412 13.2941 26.5 13.2941ZM50.5 26C50.5 30.7467 49.0924 35.3869 46.4553 39.3337C43.8181 43.2805 40.0698 46.3566 35.6844 48.1731C31.299 49.9896 26.4734 50.4649 21.8178 49.5388C17.1623 48.6128 12.8859 46.327 9.52945 42.9706C6.17299 39.6141 3.88721 35.3377 2.96116 30.6822C2.03512 26.0266 2.5104 21.201 4.3269 16.8156C6.1434 12.4302 9.21954 8.68188 13.1663 6.04473C17.1131 3.40757 21.7533 2 26.5 2C32.8629 2.00747 38.9631 4.53844 43.4623 9.03769C47.9616 13.5369 50.4925 19.6371 50.5 26ZM47.6765 26C47.6765 21.8117 46.4345 17.7174 44.1076 14.235C41.7807 10.7525 38.4734 8.03829 34.6039 6.43549C30.7344 4.83269 26.4765 4.41333 22.3687 5.23043C18.2608 6.04753 14.4876 8.06439 11.526 11.026C8.5644 13.9876 6.54754 17.7608 5.73044 21.8687C4.91334 25.9765 5.33271 30.2344 6.9355 34.1039C8.5383 37.9734 11.2525 41.2807 14.735 43.6076C18.2174 45.9345 22.3117 47.1765 26.5 47.1765C32.1144 47.1702 37.4971 44.9371 41.4672 40.9671C45.4372 36.9971 47.6702 31.6144 47.6765 26Z" fill="currentColor"/>
</svg>
