<svg width="80" height="80" viewBox="0 0 80 80" fill="none" xmlns="http://www.w3.org/2000/svg">
<path d="M52.8125 44.1406C48.8438 44.1406 45.625 47.3594 45.625 51.3281C45.625 55.2969 48.8438 58.5156 52.8125 58.5156C56.7812 58.5156 60 55.2969 60 51.3281C60 47.3594 56.7812 44.1406 52.8125 44.1406ZM52.8125 53.9844C51.3438 53.9844 50.1562 52.7969 50.1562 51.3281C50.1562 49.8594 51.3438 48.6719 52.8125 48.6719C54.2812 48.6719 55.4688 49.8594 55.4688 51.3281C55.4688 52.7969 54.2812 53.9844 52.8125 53.9844ZM68.75 13.125H52.1875C52.1875 10.7109 50.2266 8.75 47.8125 8.75H41.5625C39.1484 8.75 37.1875 10.7109 37.1875 13.125H20.625C19.2422 13.125 18.125 14.2422 18.125 15.625V31.25H11.25C9.86719 31.25 8.75 32.3672 8.75 33.75V68.75C8.75 70.1328 9.86719 71.25 11.25 71.25H37.5C38.8828 71.25 40 70.1328 40 68.75V67.5H68.75C70.1328 67.5 71.25 66.3828 71.25 65V15.625C71.25 14.2422 70.1328 13.125 68.75 13.125ZM36.5625 18.125H42.1875V13.75H47.1875V18.125H52.8125V21.875H36.5625V18.125ZM35 66.25H13.75V48.125H35V66.25ZM35 43.125H13.75V36.25H35V43.125ZM65.625 61.875H40V33.75C40 32.3672 38.8828 31.25 37.5 31.25H23.75V18.75H31.5625V26.875H57.8125V18.75H65.625V61.875ZM55 31.875V39.375C55 39.7188 55.2812 40 55.625 40H59.375C59.7188 40 60 39.7188 60 39.375V31.875C60 31.5312 59.7188 31.25 59.375 31.25H55.625C55.2812 31.25 55 31.5312 55 31.875ZM46.25 40H50C50.3438 40 50.625 39.7188 50.625 39.375V35C50.625 34.6562 50.3438 34.375 50 34.375H46.25C45.9062 34.375 45.625 34.6562 45.625 35V39.375C45.625 39.7188 45.9062 40 46.25 40Z" fill="currentColor"/>
</svg>
