<svg width="80" height="80" viewBox="0 0 80 80" fill="none" xmlns="http://www.w3.org/2000/svg">
<path d="M18.9226 14.1899C32.016 3.45995 51.366 4.20662 63.5893 16.4299C76.606 29.4466 76.606 50.5533 63.5893 63.5699C50.5726 76.5866 29.466 76.5866 16.4493 63.5699C12.4553 59.5805 9.54077 54.6414 7.9793 49.2165C6.41784 43.7916 6.2607 38.0589 7.52264 32.5566L7.77931 31.5133L14.226 33.2133C12.6278 39.2875 13.225 45.7309 15.9122 51.4079C18.5995 57.0849 23.2044 61.6312 28.9154 64.2455C34.6264 66.8599 41.0769 67.3744 47.1301 65.6985C53.1834 64.0226 58.4508 60.2639 62.0041 55.0847C65.5574 49.9055 67.1685 43.6382 66.5534 37.3875C65.9384 31.1367 63.1368 25.3037 58.6422 20.9163C54.1476 16.5289 48.2487 13.8688 41.9849 13.4048C35.7211 12.9408 29.4946 14.7027 24.4026 18.3799L23.6693 18.9333L27.0593 22.3233L11.7393 25.8566L15.2726 10.5366L18.9226 14.1899ZM43.3526 19.9999V26.6666H51.686V33.3333H33.3526C32.9362 33.3325 32.5345 33.4877 32.2267 33.7683C31.9189 34.0489 31.7274 34.4346 31.6897 34.8494C31.6521 35.2641 31.7711 35.678 32.0234 36.0094C32.2756 36.3408 32.6428 36.5657 33.0526 36.6399L33.3526 36.6666H46.686C48.8961 36.6666 51.0157 37.5446 52.5785 39.1074C54.1413 40.6702 55.0193 42.7898 55.0193 45C55.0193 47.2101 54.1413 49.3297 52.5785 50.8925C51.0157 52.4553 48.8961 53.3333 46.686 53.3333H43.3526V59.9999H36.686V53.3333H28.3526V46.6666H46.686C47.1025 46.6674 47.5041 46.5122 47.8119 46.2316C48.1197 45.951 48.3113 45.5653 48.3489 45.1505C48.3865 44.7358 48.2675 44.3219 48.0152 43.9905C47.763 43.6591 47.3958 43.4342 46.986 43.36L46.686 43.3333H33.3526C31.1425 43.3333 29.0229 42.4553 27.4601 40.8925C25.8973 39.3297 25.0193 37.2101 25.0193 34.9999C25.0193 32.7898 25.8973 30.6702 27.4601 29.1074C29.0229 27.5446 31.1425 26.6666 33.3526 26.6666H36.686V19.9999H43.3526Z" fill="currentColor"/>
</svg>
