<svg width="80" height="80" viewBox="0 0 80 80" fill="none" xmlns="http://www.w3.org/2000/svg">
<path d="M75 15V10H67.5V5H62.5V10H60C57.2425 10 55 12.245 55 15V20C55 22.7575 57.2425 25 60 25H70V30H55V35H62.5V40H67.5V35H70C72.7575 35 75 32.7575 75 30V25C75 22.245 72.7575 20 70 20H60V15H75ZM60 50V55H66.465L57.5 63.965L51.77 58.2325C51.3019 57.7642 50.6671 57.5008 50.005 57.5H50C49.6721 57.5 49.3474 57.5647 49.0445 57.6904C48.7416 57.8161 48.4666 58.0003 48.235 58.2325L35 71.465L38.535 75L50.0025 63.535L55.7325 69.2675C56.2013 69.7362 56.8371 69.9995 57.5 69.9995C58.1629 69.9995 58.7987 69.7362 59.2675 69.2675L70 58.535V65H75V50H60ZM10 75H5V62.5C5 52.85 12.85 45 22.5 45H37.5C42.4725 45 47.225 47.125 50.5425 50.8325L46.8175 54.1675C45.6442 52.8574 44.2081 51.8092 42.6027 51.0911C40.9973 50.3731 39.2587 50.0013 37.5 50H22.5C15.6075 50 10 55.6075 10 62.5V75ZM30 40C34.6413 40 39.0925 38.1563 42.3744 34.8744C45.6563 31.5925 47.5 27.1413 47.5 22.5C47.5 17.8587 45.6563 13.4075 42.3744 10.1256C39.0925 6.84374 34.6413 5 30 5C25.3587 5 20.9075 6.84374 17.6256 10.1256C14.3437 13.4075 12.5 17.8587 12.5 22.5C12.5 27.1413 14.3437 31.5925 17.6256 34.8744C20.9075 38.1563 25.3587 40 30 40ZM30 10C33.3152 10 36.4946 11.317 38.8388 13.6612C41.183 16.0054 42.5 19.1848 42.5 22.5C42.5 25.8152 41.183 28.9946 38.8388 31.3388C36.4946 33.683 33.3152 35 30 35C26.6848 35 23.5054 33.683 21.1612 31.3388C18.817 28.9946 17.5 25.8152 17.5 22.5C17.5 19.1848 18.817 16.0054 21.1612 13.6612C23.5054 11.317 26.6848 10 30 10Z" fill="currentColor"/>
</svg>
