<svg width="80" height="80" viewBox="0 0 80 80" fill="none" xmlns="http://www.w3.org/2000/svg">
<path d="M32.5 12.5H17.5C16.1739 12.5 14.9021 13.0268 13.9645 13.9645C13.0268 14.9021 12.5 16.1739 12.5 17.5V32.5C12.5 33.8261 13.0268 35.0979 13.9645 36.0355C14.9021 36.9732 16.1739 37.5 17.5 37.5H32.5C33.8261 37.5 35.0979 36.9732 36.0355 36.0355C36.9732 35.0979 37.5 33.8261 37.5 32.5V17.5C37.5 16.1739 36.9732 14.9021 36.0355 13.9645C35.0979 13.0268 33.8261 12.5 32.5 12.5ZM32.5 32.5H17.5V17.5H32.5V32.5ZM62.5 12.5H47.5C46.1739 12.5 44.9021 13.0268 43.9645 13.9645C43.0268 14.9021 42.5 16.1739 42.5 17.5V32.5C42.5 33.8261 43.0268 35.0979 43.9645 36.0355C44.9021 36.9732 46.1739 37.5 47.5 37.5H62.5C63.8261 37.5 65.0979 36.9732 66.0355 36.0355C66.9732 35.0979 67.5 33.8261 67.5 32.5V17.5C67.5 16.1739 66.9732 14.9021 66.0355 13.9645C65.0979 13.0268 63.8261 12.5 62.5 12.5ZM62.5 32.5H47.5V17.5H62.5V32.5ZM32.5 42.5H17.5C16.1739 42.5 14.9021 43.0268 13.9645 43.9645C13.0268 44.9021 12.5 46.1739 12.5 47.5V62.5C12.5 63.8261 13.0268 65.0979 13.9645 66.0355C14.9021 66.9732 16.1739 67.5 17.5 67.5H32.5C33.8261 67.5 35.0979 66.9732 36.0355 66.0355C36.9732 65.0979 37.5 63.8261 37.5 62.5V47.5C37.5 46.1739 36.9732 44.9021 36.0355 43.9645C35.0979 43.0268 33.8261 42.5 32.5 42.5ZM32.5 62.5H17.5V47.5H32.5V62.5ZM62.5 42.5H47.5C46.1739 42.5 44.9021 43.0268 43.9645 43.9645C43.0268 44.9021 42.5 46.1739 42.5 47.5V62.5C42.5 63.8261 43.0268 65.0979 43.9645 66.0355C44.9021 66.9732 46.1739 67.5 47.5 67.5H62.5C63.8261 67.5 65.0979 66.9732 66.0355 66.0355C66.9732 65.0979 67.5 63.8261 67.5 62.5V47.5C67.5 46.1739 66.9732 44.9021 66.0355 43.9645C65.0979 43.0268 63.8261 42.5 62.5 42.5ZM62.5 62.5H47.5V47.5H62.5V62.5Z" fill="currentColor"/>
</svg>
