<svg viewBox="0 0 41 40" fill="none" xmlns="http://www.w3.org/2000/svg">
  <path
    d="M38 21.25V31.25C38 31.913 37.7366 32.5489 37.2678 33.0178C36.7989 33.4866 36.163 33.75 35.5 33.75H5.5C4.83696 33.75 4.20107 33.4866 3.73223 33.0178C3.26339 32.5489 3 31.913 3 31.25V21.25C3 20.587 3.26339 19.9511 3.73223 19.4822C4.20107 19.0134 4.83696 18.75 5.5 18.75H13C13.3315 18.75 13.6495 18.8817 13.8839 19.1161C14.1183 19.3505 14.25 19.6685 14.25 20C14.25 20.3315 14.1183 20.6495 13.8839 20.8839C13.6495 21.1183 13.3315 21.25 13 21.25H5.5V31.25H35.5V21.25H28C27.6685 21.25 27.3505 21.1183 27.1161 20.8839C26.8817 20.6495 26.75 20.3315 26.75 20C26.75 19.6685 26.8817 19.3505 27.1161 19.1161C27.3505 18.8817 27.6685 18.75 28 18.75H35.5C36.163 18.75 36.7989 19.0134 37.2678 19.4822C37.7366 19.9511 38 20.587 38 21.25ZM13.8844 12.1344L19.25 6.76719V20C19.25 20.3315 19.3817 20.6495 19.6161 20.8839C19.8505 21.1183 20.1685 21.25 20.5 21.25C20.8315 21.25 21.1495 21.1183 21.3839 20.8839C21.6183 20.6495 21.75 20.3315 21.75 20V6.76719L27.1156 12.1344C27.3502 12.3689 27.6683 12.5007 28 12.5007C28.3317 12.5007 28.6498 12.3689 28.8844 12.1344C29.1189 11.8998 29.2507 11.5817 29.2507 11.25C29.2507 10.9183 29.1189 10.6002 28.8844 10.3656L21.3844 2.86563C21.2683 2.74941 21.1304 2.65721 20.9787 2.59431C20.8269 2.5314 20.6643 2.49902 20.5 2.49902C20.3357 2.49902 20.1731 2.5314 20.0213 2.59431C19.8696 2.65721 19.7317 2.74941 19.6156 2.86563L12.1156 10.3656C11.8811 10.6002 11.7493 10.9183 11.7493 11.25C11.7493 11.5817 11.8811 11.8998 12.1156 12.1344C12.3502 12.3689 12.6683 12.5007 13 12.5007C13.3317 12.5007 13.6498 12.3689 13.8844 12.1344ZM31.75 26.25C31.75 25.8792 31.64 25.5167 31.434 25.2083C31.228 24.9 30.9351 24.6596 30.5925 24.5177C30.2499 24.3758 29.8729 24.3387 29.5092 24.411C29.1455 24.4834 28.8114 24.662 28.5492 24.9242C28.287 25.1864 28.1084 25.5205 28.036 25.8842C27.9637 26.2479 28.0008 26.6249 28.1427 26.9675C28.2846 27.3101 28.525 27.603 28.8333 27.809C29.1416 28.015 29.5042 28.125 29.875 28.125C30.3723 28.125 30.8492 27.9275 31.2008 27.5758C31.5525 27.2242 31.75 26.7473 31.75 26.25Z"
    fill="currentColor"
  />
</svg>
