<svg width="80" height="80" viewBox="0 0 80 80" fill="none" xmlns="http://www.w3.org/2000/svg">
<path d="M40 12.5C30.3625 12.5 22.5 20.3625 22.5 30C22.5 36.025 25.575 41.375 30.235 44.5325C21.3175 48.3575 15 57.2075 15 67.5H20C20 56.425 28.925 47.5 40 47.5C51.075 47.5 60 56.425 60 67.5H65C65 57.2075 58.6825 48.36 49.765 44.53C52.1434 42.9244 54.092 40.7605 55.4405 38.2275C56.7889 35.6945 57.4961 32.8696 57.5 30C57.5 20.3625 49.6375 12.5 40 12.5ZM40 17.5C46.9325 17.5 52.5 23.0675 52.5 30C52.5 36.9325 46.9325 42.5 40 42.5C33.0675 42.5 27.5 36.9325 27.5 30C27.5 23.0675 33.0675 17.5 40 17.5Z" fill="currentColor"/>
</svg>
