<svg width="24" height="24" viewBox="0 0 24 24" fill="none" xmlns="http://www.w3.org/2000/svg">
<g id="UsersThree">
<path id="Vector" d="M22.9503 14.0992C22.8715 14.1583 22.7818 14.2013 22.6864 14.2257C22.591 14.2502 22.4917 14.2556 22.3942 14.2417C22.2967 14.2277 22.2029 14.1947 22.1182 14.1445C22.0334 14.0944 21.9594 14.028 21.9003 13.9492C21.4482 13.3416 20.8598 12.8486 20.1824 12.5099C19.5051 12.1712 18.7576 11.9963 18.0003 11.9992C17.8528 11.9992 17.7086 11.9557 17.5857 11.8741C17.4628 11.7926 17.3667 11.6766 17.3093 11.5408C17.2704 11.4485 17.2504 11.3493 17.2504 11.2492C17.2504 11.149 17.2704 11.0499 17.3093 10.9576C17.3667 10.8217 17.4628 10.7058 17.5857 10.6242C17.7086 10.5427 17.8528 10.4992 18.0003 10.4992C18.4211 10.4992 18.8335 10.3811 19.1906 10.1584C19.5477 9.93579 19.8351 9.61746 20.0204 9.2396C20.2056 8.86175 20.2812 8.43952 20.2385 8.02087C20.1958 7.60223 20.0365 7.20395 19.7788 6.87127C19.5211 6.5386 19.1753 6.28487 18.7806 6.13889C18.3859 5.99292 17.9582 5.96056 17.546 6.04549C17.1338 6.13042 16.7538 6.32923 16.4489 6.61934C16.1441 6.90945 15.9267 7.27924 15.8215 7.68669C15.7969 7.7821 15.7537 7.87173 15.6945 7.95046C15.6352 8.02919 15.561 8.09547 15.4761 8.14553C15.3913 8.19559 15.2974 8.22844 15.1998 8.2422C15.1022 8.25596 15.0029 8.25038 14.9075 8.22575C14.8121 8.20113 14.7224 8.15796 14.6437 8.09869C14.565 8.03943 14.4987 7.96524 14.4486 7.88037C14.3986 7.79549 14.3657 7.70158 14.352 7.60401C14.3382 7.50643 14.3438 7.4071 14.3684 7.31169C14.5144 6.74667 14.7903 6.22353 15.1741 5.7839C15.5579 5.34426 16.039 5.00026 16.5791 4.77927C17.1192 4.55828 17.7034 4.4664 18.2853 4.51094C18.8672 4.55548 19.4307 4.73521 19.9309 5.03583C20.4311 5.33645 20.8542 5.74966 21.1666 6.24258C21.479 6.73551 21.672 7.29454 21.7303 7.8752C21.7887 8.45586 21.7107 9.04212 21.5026 9.58733C21.2944 10.1325 20.9619 10.6217 20.5315 11.0158C21.5514 11.4573 22.4379 12.158 23.1031 13.0483C23.1622 13.1272 23.2051 13.2171 23.2294 13.3127C23.2537 13.4083 23.2589 13.5078 23.2447 13.6054C23.2305 13.7031 23.1972 13.7969 23.1467 13.8816C23.0962 13.9664 23.0294 14.0403 22.9503 14.0992ZM17.899 19.8742C17.9533 19.9596 17.9897 20.055 18.0062 20.1548C18.0226 20.2546 18.0186 20.3567 17.9946 20.455C17.9705 20.5532 17.9268 20.6456 17.8661 20.7265C17.8054 20.8074 17.729 20.8753 17.6414 20.9259C17.5539 20.9765 17.4569 21.0089 17.3565 21.0211C17.2561 21.0333 17.1543 21.025 17.0571 20.9968C16.96 20.9687 16.8695 20.9211 16.7913 20.8571C16.713 20.793 16.6484 20.7138 16.6015 20.6242C16.1291 19.8242 15.4562 19.1612 14.6493 18.7006C13.8424 18.2401 12.9294 17.9978 12.0003 17.9978C11.0712 17.9978 10.1582 18.2401 9.35126 18.7006C8.54436 19.1612 7.87149 19.8242 7.39903 20.6242C7.35215 20.7138 7.28762 20.793 7.20932 20.8571C7.13103 20.9211 7.04058 20.9687 6.94344 20.9968C6.84629 21.025 6.74445 21.0333 6.64403 21.0211C6.54362 21.0089 6.44671 20.9765 6.35914 20.9259C6.27156 20.8753 6.19514 20.8074 6.13445 20.7265C6.07376 20.6456 6.03007 20.5532 6.00601 20.455C5.98194 20.3567 5.978 20.2546 5.99442 20.1548C6.01083 20.055 6.04727 19.9596 6.10153 19.8742C6.82866 18.6249 7.93734 17.6417 9.26466 17.0692C8.51778 16.4974 7.96887 15.7058 7.6951 14.8059C7.42132 13.906 7.43644 12.9429 7.73833 12.052C8.04022 11.1611 8.6137 10.3872 9.37816 9.83908C10.1426 9.29096 11.0596 8.99619 12.0003 8.99619C12.9409 8.99619 13.8579 9.29096 14.6224 9.83908C15.3869 10.3872 15.9604 11.1611 16.2622 12.052C16.5641 12.9429 16.5792 13.906 16.3055 14.8059C16.0317 15.7058 15.4828 16.4974 14.7359 17.0692C16.0632 17.6417 17.1719 18.6249 17.899 19.8742ZM12.0003 16.4992C12.5936 16.4992 13.1736 16.3232 13.667 15.9936C14.1603 15.664 14.5449 15.1954 14.7719 14.6472C14.999 14.0991 15.0584 13.4959 14.9426 12.9139C14.8269 12.332 14.5412 11.7974 14.1216 11.3779C13.702 10.9583 13.1675 10.6726 12.5856 10.5568C12.0036 10.4411 11.4004 10.5005 10.8522 10.7276C10.3041 10.9546 9.83552 11.3391 9.50588 11.8325C9.17623 12.3258 9.00029 12.9058 9.00029 13.4992C9.00029 14.2948 9.31636 15.0579 9.87897 15.6205C10.4416 16.1831 11.2046 16.4992 12.0003 16.4992ZM6.75029 11.2492C6.75029 11.0503 6.67127 10.8595 6.53061 10.7189C6.38996 10.5782 6.1992 10.4992 6.00028 10.4992C5.57947 10.4992 5.16709 10.3811 4.81001 10.1584C4.45292 9.93579 4.16543 9.61746 3.98019 9.2396C3.79495 8.86175 3.71939 8.43952 3.7621 8.02087C3.8048 7.60223 3.96405 7.20395 4.22176 6.87127C4.47947 6.5386 4.82531 6.28487 5.22 6.13889C5.61469 5.99292 6.04241 5.96056 6.45457 6.04549C6.86672 6.13042 7.24681 6.32923 7.55164 6.61934C7.85647 6.90945 8.07383 7.27924 8.17904 7.68669C8.22876 7.87939 8.353 8.04444 8.52442 8.14553C8.69584 8.24662 8.9004 8.27548 9.0931 8.22575C9.28579 8.17603 9.45084 8.05179 9.55194 7.88037C9.65303 7.70895 9.68189 7.50439 9.63216 7.31169C9.48614 6.74667 9.21026 6.22353 8.82648 5.7839C8.4427 5.34426 7.96161 5.00026 7.42149 4.77927C6.88137 4.55828 6.29712 4.4664 5.71525 4.51094C5.13337 4.55548 4.56991 4.73521 4.06972 5.03583C3.56952 5.33645 3.14639 5.74966 2.83399 6.24258C2.52159 6.73551 2.32855 7.29454 2.27022 7.8752C2.2119 8.45586 2.2899 9.04212 2.49801 9.58733C2.70613 10.1325 3.03862 10.6217 3.46903 11.0158C2.45024 11.4577 1.5647 12.1584 0.900284 13.0483C0.780813 13.2074 0.729448 13.4075 0.757491 13.6045C0.785533 13.8015 0.890686 13.9793 1.04982 14.0987C1.20895 14.2182 1.40902 14.2696 1.60602 14.2415C1.80302 14.2135 1.98081 14.1083 2.10028 13.9492C2.55233 13.3416 3.14074 12.8486 3.81812 12.5099C4.49551 12.1712 5.24295 11.9963 6.00028 11.9992C6.1992 11.9992 6.38996 11.9202 6.53061 11.7795C6.67127 11.6389 6.75029 11.4481 6.75029 11.2492Z" fill="currentColor"/>
</g>
</svg>
