<svg id="view-card" viewBox="0 0 24 24" fill="none" xmlns="http://www.w3.org/2000/svg">
  <path
    d="M18.437 11H5.565C4.90196 11 4.26608 10.7366 3.79724 10.2678C3.32839 9.79892 3.065 9.16304 3.065 8.5V5.564C3.065 4.90095 3.32839 4.26507 3.79724 3.79623C4.26608 3.32739 4.90196 3.064 5.565 3.064H18.437C19.1 3.064 19.7359 3.32739 20.2048 3.79623C20.6736 4.26507 20.937 4.90095 20.937 5.564V8.5C20.937 9.16304 20.6736 9.79892 20.2048 10.2678C19.7359 10.7366 19.1 11 18.437 11ZM5.565 4.064C5.16718 4.064 4.78565 4.22203 4.50434 4.50334C4.22304 4.78464 4.065 5.16617 4.065 5.564V8.5C4.065 8.89782 4.22304 9.27935 4.50434 9.56066C4.78565 9.84196 5.16718 10 5.565 10H18.437C18.8348 10 19.2164 9.84196 19.4977 9.56066C19.779 9.27935 19.937 8.89782 19.937 8.5V5.564C19.937 5.16617 19.779 4.78464 19.4977 4.50334C19.2164 4.22203 18.8348 4.064 18.437 4.064H5.565ZM18.437 20.936H5.565C4.90196 20.936 4.26608 20.6726 3.79724 20.2038C3.32839 19.7349 3.065 19.099 3.065 18.436V15.5C3.065 14.837 3.32839 14.2011 3.79724 13.7322C4.26608 13.2634 4.90196 13 5.565 13H18.437C19.1 13 19.7359 13.2634 20.2048 13.7322C20.6736 14.2011 20.937 14.837 20.937 15.5V18.434C20.9373 18.7625 20.8728 19.0878 20.7473 19.3913C20.6218 19.6949 20.4376 19.9707 20.2055 20.2031C19.9733 20.4354 19.6976 20.6197 19.3942 20.7455C19.0907 20.8713 18.7655 20.936 18.437 20.936ZM5.565 14C5.16718 14 4.78565 14.158 4.50434 14.4393C4.22304 14.7206 4.065 15.1022 4.065 15.5V18.434C4.065 18.8318 4.22304 19.2134 4.50434 19.4947C4.78565 19.776 5.16718 19.934 5.565 19.934H18.437C18.8348 19.934 19.2164 19.776 19.4977 19.4947C19.779 19.2134 19.937 18.8318 19.937 18.434V15.5C19.937 15.1022 19.779 14.7206 19.4977 14.4393C19.2164 14.158 18.8348 14 18.437 14H5.565Z"
    fill="currentColor" />
</svg>
