<svg width="52" height="52" viewBox="0 0 52 52" fill="none" xmlns="http://www.w3.org/2000/svg">
  <path d="M51.4536 40.3392L30.7821 4.69593C30.3074 3.89432 29.63 3.22974 28.817 2.768C28.0041 2.30625 27.0838 2.06335 26.1472 2.06335C25.2107 2.06335 24.2904 2.30625 23.4775 2.768C22.6645 3.22974 21.9871 3.89432 21.5123 4.69593L0.840853 40.3392C0.385843 41.1126 0.146057 41.9922 0.146057 42.888C0.146057 43.7837 0.385843 44.6633 0.840853 45.4368C1.30929 46.244 1.98579 46.9128 2.8008 47.3744C3.61581 47.8359 4.53992 48.0736 5.47811 48.063H46.8164C47.7538 48.0728 48.6769 47.8347 49.491 47.3732C50.3051 46.9116 50.9809 46.2433 51.4489 45.4368C51.9046 44.6637 52.1452 43.7843 52.1461 42.8886C52.1469 41.9929 51.9079 41.113 51.4536 40.3392ZM48.9932 44.0262C48.7723 44.4034 48.4542 44.7153 48.0716 44.9298C47.6889 45.1443 47.2557 45.2537 46.8164 45.2467H5.47811C5.03879 45.2537 4.60553 45.1443 4.22292 44.9298C3.84031 44.7153 3.52219 44.4034 3.30129 44.0262C3.09467 43.6812 2.98562 43.2871 2.98562 42.8856C2.98562 42.4841 3.09467 42.0901 3.30129 41.745L23.9704 6.10176C24.1964 5.72903 24.5156 5.42065 24.897 5.20657C25.2784 4.99249 25.7091 4.87999 26.1472 4.87999C26.5854 4.87999 27.0161 4.99249 27.3975 5.20657C27.7789 5.42065 28.0981 5.72903 28.3241 6.10176L48.9955 41.745C49.2018 42.0903 49.3105 42.4845 49.31 42.8859C49.3096 43.2874 49.2002 43.6814 48.9932 44.0262ZM24.7291 29.7567V20.3689C24.7291 19.9954 24.8785 19.6373 25.1445 19.3732C25.4104 19.1091 25.7711 18.9607 26.1472 18.9607C26.5233 18.9607 26.8841 19.1091 27.15 19.3732C27.416 19.6373 27.5654 19.9954 27.5654 20.3689V29.7567C27.5654 30.1302 27.416 30.4884 27.15 30.7525C26.8841 31.0166 26.5233 31.1649 26.1472 31.1649C25.7711 31.1649 25.4104 31.0166 25.1445 30.7525C24.8785 30.4884 24.7291 30.1302 24.7291 29.7567ZM28.5108 38.2058C28.5108 38.67 28.3722 39.1237 28.1124 39.5097C27.8527 39.8956 27.4836 40.1965 27.0517 40.3741C26.6198 40.5517 26.1446 40.5982 25.6861 40.5077C25.2277 40.4171 24.8065 40.1936 24.476 39.8653C24.1454 39.5371 23.9203 39.1189 23.8291 38.6637C23.7379 38.2084 23.7847 37.7365 23.9636 37.3077C24.1425 36.8788 24.4454 36.5123 24.8341 36.2544C25.2228 35.9965 25.6798 35.8588 26.1472 35.8588C26.7741 35.8588 27.3753 36.1061 27.8185 36.5462C28.2618 36.9864 28.5108 37.5833 28.5108 38.2058Z" fill="currentColor"/>
</svg>
