<svg xmlns="http://www.w3.org/2000/svg" width="52" height="52" viewBox="0 0 52 52" fill="none">
  <path d="M34.8824 19.1961L28.0784 26L34.8824 32.8039C35.0268 32.9385 35.1427 33.1009 35.2231 33.2813C35.3035 33.4617 35.3467 33.6564 35.3502 33.8539C35.3537 34.0513 35.3173 34.2475 35.2434 34.4306C35.1694 34.6137 35.0593 34.78 34.9197 34.9197C34.78 35.0593 34.6137 35.1694 34.4306 35.2434C34.2475 35.3173 34.0513 35.3537 33.8539 35.3502C33.6564 35.3467 33.4617 35.3035 33.2813 35.2231C33.1009 35.1427 32.9386 35.0268 32.8039 34.8823L26 28.0784L19.1961 34.8823C18.9173 35.1421 18.5486 35.2835 18.1676 35.2768C17.7866 35.2701 17.4231 35.1157 17.1537 34.8463C16.8843 34.5769 16.7299 34.2134 16.7232 33.8324C16.7165 33.4514 16.8579 33.0827 17.1177 32.8039L23.9216 26L17.1177 19.1961C16.8579 18.9173 16.7165 18.5486 16.7232 18.1676C16.7299 17.7866 16.8843 17.4231 17.1537 17.1537C17.4231 16.8842 17.7866 16.7299 18.1676 16.7232C18.5486 16.7165 18.9173 16.8579 19.1961 17.1176L26 23.9216L32.8039 17.1176C33.0827 16.8579 33.4514 16.7165 33.8324 16.7232C34.2134 16.7299 34.5769 16.8842 34.8463 17.1537C35.1158 17.4231 35.2701 17.7866 35.2768 18.1676C35.2835 18.5486 35.1421 18.9173 34.8824 19.1961ZM51 26C51 30.9445 49.5338 35.778 46.7867 39.8892C44.0397 44.0005 40.1352 47.2048 35.5671 49.097C30.9989 50.9892 25.9723 51.4842 21.1227 50.5196C16.2732 49.555 11.8187 47.174 8.32234 43.6777C4.82603 40.1813 2.44501 35.7268 1.48038 30.8773C0.515749 26.0277 1.01083 21.0011 2.90302 16.4329C4.79521 11.8648 7.99952 7.96029 12.1108 5.21326C16.222 2.46622 21.0555 1 26 1C32.628 1.00778 38.9823 3.6442 43.6691 8.33093C48.3558 13.0176 50.9922 19.372 51 26ZM48.0588 26C48.0588 21.6372 46.7651 17.3723 44.3412 13.7448C41.9174 10.1172 38.4723 7.28988 34.4416 5.6203C30.4108 3.95072 25.9755 3.51389 21.6965 4.36503C17.4176 5.21617 13.487 7.31707 10.4021 10.4021C7.31708 13.487 5.21619 17.4175 4.36504 21.6965C3.5139 25.9755 3.95073 30.4108 5.62031 34.4415C7.28989 38.4723 10.1172 41.9174 13.7448 44.3412C17.3723 46.7651 21.6372 48.0588 26 48.0588C31.8484 48.0523 37.4554 45.7262 41.5908 41.5908C45.7262 37.4553 48.0523 31.8484 48.0588 26Z" fill="currentColor"/>
</svg>
